<ttFont>
<head>
    <!-- Most of this table will be recalculated by the compiler -->
    <tableVersion value="1.0"/>
    <fontRevision value="0.0"/>
    <checkSumAdjustment value="0xf3be2016"/>
    <magicNumber value="0x5f0f3cf5"/>
    <flags value="00000000 00000001"/>
    <unitsPerEm value="2048"/>
    <created value="Wed Dec 21 16:09:30 2016"/>
    <modified value="Wed Dec 21 16:09:30 2016"/>
    <xMin value="-74"/>
    <yMin value="-515"/>
    <xMax value="2248"/>
    <yMax value="1766"/>
    <macStyle value="00000000 00000000"/>
    <lowestRecPPEM value="6"/>
    <fontDirectionHint value="2"/>
    <indexToLocFormat value="0"/>
    <glyphDataFormat value="0"/>
  </head>
    <TTGlyph name=".notdef" xMin="102" yMin="-456" xMax="922" yMax="1444">
      <contour>
        <pt x="102" y="-456" on="1"/>
        <pt x="922" y="-456" on="1"/>
        <pt x="922" y="1444" on="1"/>
        <pt x="102" y="1444" on="1"/>
      </contour>
      <contour>
        <pt x="204" y="-354" on="1"/>
        <pt x="204" y="1342" on="1"/>
        <pt x="820" y="1342" on="1"/>
        <pt x="820" y="-354" on="1"/>
      </contour>
    </TTGlyph>
    <TTGlyph name="A" xMin="24" yMin="-15" xMax="1297" yMax="1368">
      <contour>
        <pt x="635" y="1368" on="1"/>
        <pt x="661" y="1368" on="0"/>
        <pt x="661" y="1368" on="0"/>
        <pt x="661" y="1329" on="1"/>
        <pt x="661" y="1292" on="0"/>
        <pt x="661" y="1292" on="0"/>
        <pt x="622" y="1292" on="1"/>
        <pt x="573" y="1292" on="0"/>
        <pt x="573" y="1292" on="0"/>
        <pt x="590" y="1329" on="1"/>
        <pt x="607" y="1368" on="0"/>
        <pt x="607" y="1368" on="0"/>
      </contour>
      <contour>
        <pt x="687" y="1368" on="1"/>
        <pt x="715" y="1368" on="0"/>
        <pt x="715" y="1368" on="0"/>
        <pt x="732" y="1329" on="1"/>
        <pt x="749" y="1292" on="0"/>
        <pt x="749" y="1292" on="0"/>
        <pt x="700" y="1292" on="1"/>
        <pt x="661" y="1292" on="0"/>
        <pt x="661" y="1292" on="0"/>
        <pt x="661" y="1329" on="1"/>
        <pt x="661" y="1368" on="0"/>
        <pt x="661" y="1368" on="0"/>
      </contour>
      <contour>
        <pt x="57" y="30" on="1"/>
        <pt x="24" y="45" on="0"/>
        <pt x="24" y="45" on="0"/>
        <pt x="39" y="79" on="1"/>
        <pt x="54" y="113" on="0"/>
        <pt x="54" y="113" on="0"/>
        <pt x="87" y="99" on="1"/>
        <pt x="122" y="84" on="0"/>
        <pt x="122" y="84" on="0"/>
        <pt x="107" y="49" on="1"/>
        <pt x="92" y="15" on="0"/>
        <pt x="92" y="15" on="0"/>
      </contour>
      <contour>
        <pt x="127" y="0" on="1"/>
        <pt x="92" y="15" on="0"/>
        <pt x="92" y="15" on="0"/>
        <pt x="107" y="49" on="1"/>
        <pt x="122" y="84" on="0"/>
        <pt x="122" y="84" on="0"/>
        <pt x="157" y="69" on="1"/>
        <pt x="190" y="54" on="0"/>
        <pt x="190" y="54" on="0"/>
        <pt x="175" y="19" on="1"/>
        <pt x="160" y="-15" on="0"/>
        <pt x="160" y="-15" on="0"/>
      </contour>
      <contour>
        <pt x="87" y="99" on="1"/>
        <pt x="54" y="113" on="0"/>
        <pt x="54" y="113" on="0"/>
        <pt x="69" y="148" on="1"/>
        <pt x="84" y="183" on="0"/>
        <pt x="84" y="183" on="0"/>
        <pt x="117" y="168" on="1"/>
        <pt x="152" y="152" on="0"/>
        <pt x="152" y="152" on="0"/>
        <pt x="137" y="119" on="1"/>
        <pt x="122" y="84" on="0"/>
        <pt x="122" y="84" on="0"/>
      </contour>
      <contour>
        <pt x="157" y="69" on="1"/>
        <pt x="122" y="84" on="0"/>
        <pt x="122" y="84" on="0"/>
        <pt x="137" y="119" on="1"/>
        <pt x="152" y="152" on="0"/>
        <pt x="152" y="152" on="0"/>
        <pt x="187" y="137" on="1"/>
        <pt x="220" y="123" on="0"/>
        <pt x="220" y="123" on="0"/>
        <pt x="205" y="89" on="1"/>
        <pt x="190" y="54" on="0"/>
        <pt x="190" y="54" on="0"/>
      </contour>
      <contour>
        <pt x="117" y="168" on="1"/>
        <pt x="84" y="183" on="0"/>
        <pt x="84" y="183" on="0"/>
        <pt x="294" y="663" on="1"/>
        <pt x="309" y="697" on="0"/>
        <pt x="309" y="697" on="0"/>
        <pt x="342" y="683" on="1"/>
        <pt x="377" y="668" on="0"/>
        <pt x="377" y="668" on="0"/>
        <pt x="362" y="633" on="1"/>
        <pt x="152" y="152" on="0"/>
        <pt x="152" y="152" on="0"/>
      </contour>
      <contour>
        <pt x="187" y="137" on="1"/>
        <pt x="152" y="152" on="0"/>
        <pt x="152" y="152" on="0"/>
        <pt x="362" y="633" on="1"/>
        <pt x="377" y="668" on="0"/>
        <pt x="377" y="668" on="0"/>
        <pt x="412" y="653" on="1"/>
        <pt x="445" y="638" on="0"/>
        <pt x="445" y="638" on="0"/>
        <pt x="430" y="603" on="1"/>
        <pt x="220" y="123" on="0"/>
        <pt x="220" y="123" on="0"/>
      </contour>
      <contour>
        <pt x="342" y="683" on="1"/>
        <pt x="309" y="697" on="0"/>
        <pt x="309" y="697" on="0"/>
        <pt x="324" y="732" on="1"/>
        <pt x="540" y="1216" on="0"/>
        <pt x="540" y="1216" on="0"/>
        <pt x="580" y="1216" on="1"/>
        <pt x="619" y="1216" on="0"/>
        <pt x="619" y="1216" on="0"/>
        <pt x="392" y="703" on="1"/>
        <pt x="377" y="668" on="0"/>
        <pt x="377" y="668" on="0"/>
      </contour>
      <contour>
        <pt x="412" y="653" on="1"/>
        <pt x="377" y="668" on="0"/>
        <pt x="377" y="668" on="0"/>
        <pt x="392" y="703" on="1"/>
        <pt x="619" y="1216" on="0"/>
        <pt x="619" y="1216" on="0"/>
        <pt x="638" y="1167" on="1"/>
        <pt x="656" y="1120" on="0"/>
        <pt x="656" y="1120" on="0"/>
        <pt x="460" y="673" on="1"/>
        <pt x="445" y="638" on="0"/>
        <pt x="445" y="638" on="0"/>
      </contour>
      <contour>
        <pt x="1204" y="170" on="1"/>
        <pt x="1165" y="153" on="0"/>
        <pt x="1165" y="153" on="0"/>
        <pt x="955" y="633" on="1"/>
        <pt x="940" y="668" on="0"/>
        <pt x="940" y="668" on="0"/>
        <pt x="978" y="682" on="1"/>
        <pt x="1014" y="695" on="0"/>
        <pt x="1014" y="695" on="0"/>
        <pt x="1029" y="663" on="1"/>
        <pt x="1238" y="185" on="0"/>
        <pt x="1238" y="185" on="0"/>
      </contour>
      <contour>
        <pt x="1129" y="138" on="1"/>
        <pt x="1094" y="123" on="0"/>
        <pt x="1094" y="123" on="0"/>
        <pt x="882" y="603" on="1"/>
        <pt x="866" y="639" on="0"/>
        <pt x="866" y="639" on="0"/>
        <pt x="904" y="654" on="1"/>
        <pt x="940" y="668" on="0"/>
        <pt x="940" y="668" on="0"/>
        <pt x="955" y="633" on="1"/>
        <pt x="1165" y="153" on="0"/>
        <pt x="1165" y="153" on="0"/>
      </contour>
      <contour>
        <pt x="978" y="682" on="1"/>
        <pt x="940" y="668" on="0"/>
        <pt x="940" y="668" on="0"/>
        <pt x="925" y="703" on="1"/>
        <pt x="699" y="1216" on="0"/>
        <pt x="699" y="1216" on="0"/>
        <pt x="743" y="1216" on="1"/>
        <pt x="783" y="1216" on="0"/>
        <pt x="783" y="1216" on="0"/>
        <pt x="999" y="732" on="1"/>
        <pt x="1014" y="695" on="0"/>
        <pt x="1014" y="695" on="0"/>
      </contour>
      <contour>
        <pt x="904" y="654" on="1"/>
        <pt x="866" y="639" on="0"/>
        <pt x="866" y="639" on="0"/>
        <pt x="852" y="673" on="1"/>
        <pt x="656" y="1120" on="0"/>
        <pt x="656" y="1120" on="0"/>
        <pt x="677" y="1167" on="1"/>
        <pt x="699" y="1216" on="0"/>
        <pt x="699" y="1216" on="0"/>
        <pt x="925" y="703" on="1"/>
        <pt x="940" y="668" on="0"/>
        <pt x="940" y="668" on="0"/>
      </contour>
      <contour>
        <pt x="1264" y="32" on="1"/>
        <pt x="1226" y="15" on="0"/>
        <pt x="1226" y="15" on="0"/>
        <pt x="1210" y="49" on="1"/>
        <pt x="1195" y="84" on="0"/>
        <pt x="1195" y="84" on="0"/>
        <pt x="1234" y="101" on="1"/>
        <pt x="1267" y="115" on="0"/>
        <pt x="1267" y="115" on="0"/>
        <pt x="1282" y="81" on="1"/>
        <pt x="1297" y="47" on="0"/>
        <pt x="1297" y="47" on="0"/>
      </contour>
      <contour>
        <pt x="1188" y="-1" on="1"/>
        <pt x="1155" y="-15" on="0"/>
        <pt x="1155" y="-15" on="0"/>
        <pt x="1140" y="19" on="1"/>
        <pt x="1124" y="54" on="0"/>
        <pt x="1124" y="54" on="0"/>
        <pt x="1159" y="69" on="1"/>
        <pt x="1195" y="84" on="0"/>
        <pt x="1195" y="84" on="0"/>
        <pt x="1210" y="49" on="1"/>
        <pt x="1226" y="15" on="0"/>
        <pt x="1226" y="15" on="0"/>
      </contour>
      <contour>
        <pt x="1234" y="101" on="1"/>
        <pt x="1195" y="84" on="0"/>
        <pt x="1195" y="84" on="0"/>
        <pt x="1180" y="119" on="1"/>
        <pt x="1165" y="153" on="0"/>
        <pt x="1165" y="153" on="0"/>
        <pt x="1204" y="170" on="1"/>
        <pt x="1238" y="185" on="0"/>
        <pt x="1238" y="185" on="0"/>
        <pt x="1252" y="150" on="1"/>
        <pt x="1267" y="115" on="0"/>
        <pt x="1267" y="115" on="0"/>
      </contour>
      <contour>
        <pt x="1159" y="69" on="1"/>
        <pt x="1124" y="54" on="0"/>
        <pt x="1124" y="54" on="0"/>
        <pt x="1109" y="89" on="1"/>
        <pt x="1094" y="123" on="0"/>
        <pt x="1094" y="123" on="0"/>
        <pt x="1129" y="138" on="1"/>
        <pt x="1165" y="153" on="0"/>
        <pt x="1165" y="153" on="0"/>
        <pt x="1180" y="119" on="1"/>
        <pt x="1195" y="84" on="0"/>
        <pt x="1195" y="84" on="0"/>
      </contour>
      <contour>
        <pt x="661" y="1216" on="1"/>
        <pt x="699" y="1216" on="0"/>
        <pt x="699" y="1216" on="0"/>
        <pt x="677" y="1167" on="1"/>
        <pt x="656" y="1120" on="0"/>
        <pt x="656" y="1120" on="0"/>
        <pt x="638" y="1167" on="1"/>
        <pt x="619" y="1216" on="0"/>
        <pt x="619" y="1216" on="0"/>
      </contour>
      <contour>
        <pt x="613" y="1292" on="1"/>
        <pt x="661" y="1292" on="0"/>
        <pt x="661" y="1292" on="0"/>
        <pt x="661" y="1253" on="1"/>
        <pt x="661" y="1216" on="0"/>
        <pt x="661" y="1216" on="0"/>
        <pt x="600" y="1216" on="1"/>
        <pt x="540" y="1216" on="0"/>
        <pt x="540" y="1216" on="0"/>
        <pt x="556" y="1253" on="1"/>
        <pt x="573" y="1292" on="0"/>
        <pt x="573" y="1292" on="0"/>
      </contour>
      <contour>
        <pt x="709" y="1292" on="1"/>
        <pt x="749" y="1292" on="0"/>
        <pt x="749" y="1292" on="0"/>
        <pt x="766" y="1253" on="1"/>
        <pt x="783" y="1216" on="0"/>
        <pt x="782" y="1216" on="0"/>
        <pt x="722" y="1216" on="1"/>
        <pt x="661" y="1216" on="0"/>
        <pt x="661" y="1216" on="0"/>
        <pt x="661" y="1253" on="1"/>
        <pt x="661" y="1292" on="0"/>
        <pt x="661" y="1292" on="0"/>
      </contour>
      <contour>
        <pt x="933" y="380" on="1"/>
        <pt x="981" y="380" on="0"/>
        <pt x="981" y="380" on="0"/>
        <pt x="996" y="346" on="1"/>
        <pt x="1011" y="312" on="0"/>
        <pt x="1011" y="312" on="0"/>
        <pt x="961" y="312" on="1"/>
        <pt x="373" y="312" on="1"/>
        <pt x="302" y="312" on="0"/>
        <pt x="302" y="312" on="0"/>
        <pt x="317" y="346" on="1"/>
        <pt x="332" y="380" on="0"/>
        <pt x="332" y="380" on="0"/>
        <pt x="373" y="380" on="1"/>
      </contour>
      <contour>
        <pt x="961" y="312" on="1"/>
        <pt x="1011" y="312" on="0"/>
        <pt x="1011" y="312" on="0"/>
        <pt x="1026" y="278" on="1"/>
        <pt x="1041" y="244" on="0"/>
        <pt x="1041" y="244" on="0"/>
        <pt x="986" y="244" on="1"/>
        <pt x="373" y="244" on="1"/>
        <pt x="272" y="244" on="0"/>
        <pt x="272" y="244" on="0"/>
        <pt x="287" y="278" on="1"/>
        <pt x="302" y="312" on="0"/>
        <pt x="302" y="312" on="0"/>
        <pt x="373" y="312" on="1"/>
      </contour>
    </TTGlyph>
    <TTGlyph name="B" xMin="264" yMin="0" xMax="1012" yMax="1368">
      <contour>
        <pt x="816" y="775" on="1"/>
        <pt x="887" y="734" on="0"/>
        <pt x="1012" y="559" on="0"/>
        <pt x="1012" y="429" on="1"/>
        <pt x="1012" y="246" on="0"/>
        <pt x="764" y="0" on="0"/>
        <pt x="547" y="0" on="1"/>
        <pt x="537" y="0" on="0"/>
        <pt x="479" y="0" on="0"/>
        <pt x="468" y="0" on="1"/>
        <pt x="428" y="0" on="0"/>
        <pt x="428" y="0" on="0"/>
        <pt x="428" y="39" on="1"/>
        <pt x="428" y="76" on="0"/>
        <pt x="428" y="76" on="0"/>
        <pt x="468" y="76" on="1"/>
        <pt x="479" y="76" on="0"/>
        <pt x="509" y="76" on="0"/>
        <pt x="520" y="76" on="1"/>
        <pt x="723" y="76" on="0"/>
        <pt x="929" y="269" on="0"/>
        <pt x="929" y="425" on="1"/>
        <pt x="929" y="542" on="0"/>
        <pt x="843" y="675" on="0"/>
        <pt x="755" y="723" on="1"/>
        <pt x="774" y="735" on="0"/>
        <pt x="803" y="761" on="0"/>
      </contour>
      <contour>
        <pt x="526" y="1368" on="1"/>
        <pt x="693" y="1368" on="0"/>
        <pt x="908" y="1181" on="0"/>
        <pt x="908" y="1036" on="1"/>
        <pt x="908" y="885" on="0"/>
        <pt x="738" y="682" on="0"/>
        <pt x="607" y="682" on="1"/>
        <pt x="547" y="682" on="0"/>
        <pt x="478" y="682" on="0"/>
        <pt x="468" y="682" on="1"/>
        <pt x="428" y="682" on="0"/>
        <pt x="428" y="682" on="0"/>
        <pt x="428" y="720" on="1"/>
        <pt x="428" y="758" on="0"/>
        <pt x="428" y="758" on="0"/>
        <pt x="468" y="758" on="1"/>
        <pt x="478" y="758" on="0"/>
        <pt x="505" y="758" on="0"/>
        <pt x="543" y="758" on="1"/>
        <pt x="689" y="758" on="0"/>
        <pt x="829" y="904" on="0"/>
        <pt x="829" y="1025" on="1"/>
        <pt x="829" y="1145" on="0"/>
        <pt x="656" y="1292" on="0"/>
        <pt x="493" y="1292" on="1"/>
        <pt x="483" y="1292" on="0"/>
        <pt x="478" y="1292" on="0"/>
        <pt x="468" y="1292" on="1"/>
        <pt x="428" y="1292" on="0"/>
        <pt x="428" y="1292" on="0"/>
        <pt x="428" y="1330" on="1"/>
        <pt x="428" y="1368" on="0"/>
        <pt x="428" y="1368" on="0"/>
        <pt x="468" y="1368" on="1"/>
        <pt x="478" y="1368" on="0"/>
        <pt x="493" y="1368" on="0"/>
      </contour>
      <contour>
        <pt x="493" y="1292" on="1"/>
        <pt x="656" y="1292" on="0"/>
        <pt x="829" y="1145" on="0"/>
        <pt x="829" y="1025" on="1"/>
        <pt x="829" y="904" on="0"/>
        <pt x="689" y="758" on="0"/>
        <pt x="543" y="758" on="1"/>
        <pt x="533" y="758" on="0"/>
        <pt x="478" y="758" on="0"/>
        <pt x="468" y="758" on="1"/>
        <pt x="428" y="758" on="0"/>
        <pt x="428" y="758" on="0"/>
        <pt x="428" y="796" on="1"/>
        <pt x="428" y="834" on="0"/>
        <pt x="428" y="834" on="0"/>
        <pt x="468" y="834" on="1"/>
        <pt x="478" y="834" on="0"/>
        <pt x="533" y="834" on="0"/>
        <pt x="543" y="834" on="1"/>
        <pt x="659" y="834" on="0"/>
        <pt x="749" y="934" on="0"/>
        <pt x="749" y="1025" on="1"/>
        <pt x="749" y="1118" on="0"/>
        <pt x="612" y="1216" on="0"/>
        <pt x="493" y="1216" on="1"/>
        <pt x="483" y="1216" on="0"/>
        <pt x="478" y="1216" on="0"/>
        <pt x="468" y="1216" on="1"/>
        <pt x="428" y="1216" on="0"/>
        <pt x="428" y="1216" on="0"/>
        <pt x="428" y="1253" on="1"/>
        <pt x="428" y="1292" on="0"/>
        <pt x="428" y="1292" on="0"/>
        <pt x="468" y="1292" on="1"/>
        <pt x="478" y="1292" on="0"/>
        <pt x="483" y="1292" on="0"/>
      </contour>
      <contour>
        <pt x="755" y="723" on="1"/>
        <pt x="843" y="675" on="0"/>
        <pt x="929" y="542" on="0"/>
        <pt x="929" y="425" on="1"/>
        <pt x="929" y="269" on="0"/>
        <pt x="723" y="76" on="0"/>
        <pt x="520" y="76" on="1"/>
        <pt x="509" y="76" on="0"/>
        <pt x="479" y="76" on="0"/>
        <pt x="468" y="76" on="1"/>
        <pt x="428" y="76" on="0"/>
        <pt x="428" y="76" on="0"/>
        <pt x="428" y="114" on="1"/>
        <pt x="428" y="152" on="0"/>
        <pt x="428" y="152" on="0"/>
        <pt x="468" y="152" on="1"/>
        <pt x="479" y="152" on="0"/>
        <pt x="509" y="152" on="0"/>
        <pt x="520" y="152" on="1"/>
        <pt x="680" y="152" on="0"/>
        <pt x="849" y="297" on="0"/>
        <pt x="849" y="425" on="1"/>
        <pt x="849" y="541" on="0"/>
        <pt x="725" y="666" on="0"/>
        <pt x="650" y="685" on="1"/>
        <pt x="682" y="690" on="0"/>
        <pt x="731" y="708" on="0"/>
      </contour>
      <contour>
        <pt x="346" y="872" on="1"/>
        <pt x="346" y="834" on="0"/>
        <pt x="346" y="834" on="0"/>
        <pt x="305" y="834" on="1"/>
        <pt x="264" y="834" on="0"/>
        <pt x="264" y="834" on="0"/>
        <pt x="264" y="872" on="1"/>
        <pt x="264" y="910" on="0"/>
        <pt x="264" y="947" on="0"/>
        <pt x="264" y="1027" on="1"/>
        <pt x="264" y="1103" on="0"/>
        <pt x="264" y="1140" on="0"/>
        <pt x="264" y="1178" on="1"/>
        <pt x="264" y="1216" on="0"/>
        <pt x="264" y="1216" on="0"/>
        <pt x="305" y="1216" on="1"/>
        <pt x="346" y="1216" on="0"/>
        <pt x="346" y="1216" on="0"/>
        <pt x="346" y="1178" on="1"/>
        <pt x="346" y="1140" on="0"/>
        <pt x="346" y="1103" on="0"/>
        <pt x="346" y="1027" on="1"/>
        <pt x="346" y="947" on="0"/>
        <pt x="346" y="910" on="0"/>
      </contour>
      <contour>
        <pt x="428" y="872" on="1"/>
        <pt x="428" y="834" on="0"/>
        <pt x="428" y="834" on="0"/>
        <pt x="387" y="834" on="1"/>
        <pt x="346" y="834" on="0"/>
        <pt x="346" y="834" on="0"/>
        <pt x="346" y="872" on="1"/>
        <pt x="346" y="910" on="0"/>
        <pt x="346" y="947" on="0"/>
        <pt x="346" y="1027" on="1"/>
        <pt x="346" y="1103" on="0"/>
        <pt x="346" y="1140" on="0"/>
        <pt x="346" y="1178" on="1"/>
        <pt x="346" y="1216" on="0"/>
        <pt x="346" y="1216" on="0"/>
        <pt x="387" y="1216" on="1"/>
        <pt x="428" y="1216" on="0"/>
        <pt x="428" y="1216" on="0"/>
        <pt x="428" y="1178" on="1"/>
        <pt x="428" y="1140" on="0"/>
        <pt x="428" y="1103" on="0"/>
        <pt x="428" y="1027" on="1"/>
        <pt x="428" y="947" on="0"/>
        <pt x="428" y="910" on="0"/>
      </contour>
      <contour>
        <pt x="346" y="190" on="1"/>
        <pt x="346" y="152" on="0"/>
        <pt x="346" y="152" on="0"/>
        <pt x="305" y="152" on="1"/>
        <pt x="264" y="152" on="0"/>
        <pt x="264" y="152" on="0"/>
        <pt x="264" y="190" on="1"/>
        <pt x="264" y="228" on="0"/>
        <pt x="264" y="309" on="0"/>
        <pt x="264" y="424" on="1"/>
        <pt x="264" y="535" on="0"/>
        <pt x="264" y="606" on="0"/>
        <pt x="264" y="644" on="1"/>
        <pt x="264" y="682" on="0"/>
        <pt x="264" y="682" on="0"/>
        <pt x="305" y="682" on="1"/>
        <pt x="346" y="682" on="0"/>
        <pt x="346" y="682" on="0"/>
        <pt x="346" y="644" on="1"/>
        <pt x="346" y="606" on="0"/>
        <pt x="346" y="534" on="0"/>
        <pt x="346" y="424" on="1"/>
        <pt x="346" y="309" on="0"/>
        <pt x="346" y="228" on="0"/>
      </contour>
      <contour>
        <pt x="428" y="190" on="1"/>
        <pt x="428" y="152" on="0"/>
        <pt x="428" y="152" on="0"/>
        <pt x="387" y="152" on="1"/>
        <pt x="346" y="152" on="0"/>
        <pt x="346" y="152" on="0"/>
        <pt x="346" y="190" on="1"/>
        <pt x="346" y="228" on="0"/>
        <pt x="346" y="309" on="0"/>
        <pt x="346" y="424" on="1"/>
        <pt x="346" y="534" on="0"/>
        <pt x="346" y="606" on="0"/>
        <pt x="346" y="644" on="1"/>
        <pt x="346" y="682" on="0"/>
        <pt x="346" y="682" on="0"/>
        <pt x="387" y="682" on="1"/>
        <pt x="428" y="682" on="0"/>
        <pt x="428" y="682" on="0"/>
        <pt x="428" y="644" on="1"/>
        <pt x="428" y="606" on="0"/>
        <pt x="428" y="534" on="0"/>
        <pt x="428" y="424" on="1"/>
        <pt x="428" y="309" on="0"/>
        <pt x="428" y="228" on="0"/>
      </contour>
      <contour>
        <pt x="305" y="682" on="1"/>
        <pt x="264" y="682" on="0"/>
        <pt x="264" y="682" on="0"/>
        <pt x="264" y="720" on="1"/>
        <pt x="264" y="758" on="0"/>
        <pt x="264" y="758" on="0"/>
        <pt x="305" y="758" on="1"/>
        <pt x="346" y="758" on="0"/>
        <pt x="346" y="758" on="0"/>
        <pt x="346" y="720" on="1"/>
        <pt x="346" y="682" on="0"/>
        <pt x="346" y="682" on="0"/>
      </contour>
      <contour>
        <pt x="387" y="682" on="1"/>
        <pt x="346" y="682" on="0"/>
        <pt x="346" y="682" on="0"/>
        <pt x="346" y="720" on="1"/>
        <pt x="346" y="758" on="0"/>
        <pt x="346" y="758" on="0"/>
        <pt x="387" y="758" on="1"/>
        <pt x="428" y="758" on="0"/>
        <pt x="428" y="758" on="0"/>
        <pt x="428" y="720" on="1"/>
        <pt x="428" y="682" on="0"/>
        <pt x="428" y="682" on="0"/>
      </contour>
      <contour>
        <pt x="305" y="758" on="1"/>
        <pt x="264" y="758" on="0"/>
        <pt x="264" y="758" on="0"/>
        <pt x="264" y="796" on="1"/>
        <pt x="264" y="834" on="0"/>
        <pt x="264" y="834" on="0"/>
        <pt x="305" y="834" on="1"/>
        <pt x="346" y="834" on="0"/>
        <pt x="346" y="834" on="0"/>
        <pt x="346" y="796" on="1"/>
        <pt x="346" y="758" on="0"/>
        <pt x="346" y="758" on="0"/>
      </contour>
      <contour>
        <pt x="387" y="758" on="1"/>
        <pt x="346" y="758" on="0"/>
        <pt x="346" y="758" on="0"/>
        <pt x="346" y="796" on="1"/>
        <pt x="346" y="834" on="0"/>
        <pt x="346" y="834" on="0"/>
        <pt x="387" y="834" on="1"/>
        <pt x="428" y="834" on="0"/>
        <pt x="428" y="834" on="0"/>
        <pt x="428" y="796" on="1"/>
        <pt x="428" y="758" on="0"/>
        <pt x="428" y="758" on="0"/>
      </contour>
      <contour>
        <pt x="305" y="0" on="1"/>
        <pt x="264" y="0" on="0"/>
        <pt x="264" y="0" on="0"/>
        <pt x="264" y="38" on="1"/>
        <pt x="264" y="76" on="0"/>
        <pt x="264" y="76" on="0"/>
        <pt x="305" y="76" on="1"/>
        <pt x="346" y="76" on="0"/>
        <pt x="346" y="76" on="0"/>
        <pt x="346" y="38" on="1"/>
        <pt x="346" y="0" on="0"/>
        <pt x="346" y="0" on="0"/>
      </contour>
      <contour>
        <pt x="387" y="0" on="1"/>
        <pt x="346" y="0" on="0"/>
        <pt x="346" y="0" on="0"/>
        <pt x="346" y="38" on="1"/>
        <pt x="346" y="76" on="0"/>
        <pt x="346" y="76" on="0"/>
        <pt x="387" y="76" on="1"/>
        <pt x="428" y="76" on="0"/>
        <pt x="428" y="76" on="0"/>
        <pt x="428" y="38" on="1"/>
        <pt x="428" y="0" on="0"/>
        <pt x="428" y="0" on="0"/>
      </contour>
      <contour>
        <pt x="305" y="76" on="1"/>
        <pt x="264" y="76" on="0"/>
        <pt x="264" y="76" on="0"/>
        <pt x="264" y="114" on="1"/>
        <pt x="264" y="152" on="0"/>
        <pt x="264" y="152" on="0"/>
        <pt x="305" y="152" on="1"/>
        <pt x="346" y="152" on="0"/>
        <pt x="346" y="152" on="0"/>
        <pt x="346" y="114" on="1"/>
        <pt x="346" y="76" on="0"/>
        <pt x="346" y="76" on="0"/>
      </contour>
      <contour>
        <pt x="387" y="76" on="1"/>
        <pt x="346" y="76" on="0"/>
        <pt x="346" y="76" on="0"/>
        <pt x="346" y="114" on="1"/>
        <pt x="346" y="152" on="0"/>
        <pt x="346" y="152" on="0"/>
        <pt x="387" y="152" on="1"/>
        <pt x="428" y="152" on="0"/>
        <pt x="428" y="152" on="0"/>
        <pt x="428" y="114" on="1"/>
        <pt x="428" y="76" on="0"/>
        <pt x="428" y="76" on="0"/>
      </contour>
      <contour>
        <pt x="305" y="1216" on="1"/>
        <pt x="264" y="1216" on="0"/>
        <pt x="264" y="1216" on="0"/>
        <pt x="264" y="1254" on="1"/>
        <pt x="264" y="1292" on="0"/>
        <pt x="264" y="1292" on="0"/>
        <pt x="305" y="1292" on="1"/>
        <pt x="346" y="1292" on="0"/>
        <pt x="346" y="1292" on="0"/>
        <pt x="346" y="1254" on="1"/>
        <pt x="346" y="1216" on="0"/>
        <pt x="346" y="1216" on="0"/>
      </contour>
      <contour>
        <pt x="387" y="1216" on="1"/>
        <pt x="346" y="1216" on="0"/>
        <pt x="346" y="1216" on="0"/>
        <pt x="346" y="1254" on="1"/>
        <pt x="346" y="1292" on="0"/>
        <pt x="346" y="1292" on="0"/>
        <pt x="387" y="1292" on="1"/>
        <pt x="428" y="1292" on="0"/>
        <pt x="428" y="1292" on="0"/>
        <pt x="428" y="1254" on="1"/>
        <pt x="428" y="1216" on="0"/>
        <pt x="428" y="1216" on="0"/>
      </contour>
      <contour>
        <pt x="305" y="1292" on="1"/>
        <pt x="264" y="1292" on="0"/>
        <pt x="264" y="1292" on="0"/>
        <pt x="264" y="1330" on="1"/>
        <pt x="264" y="1368" on="0"/>
        <pt x="264" y="1368" on="0"/>
        <pt x="305" y="1368" on="1"/>
        <pt x="346" y="1368" on="0"/>
        <pt x="346" y="1368" on="0"/>
        <pt x="346" y="1330" on="1"/>
        <pt x="346" y="1292" on="0"/>
        <pt x="346" y="1292" on="0"/>
      </contour>
      <contour>
        <pt x="387" y="1292" on="1"/>
        <pt x="346" y="1292" on="0"/>
        <pt x="346" y="1292" on="0"/>
        <pt x="346" y="1330" on="1"/>
        <pt x="346" y="1368" on="0"/>
        <pt x="346" y="1368" on="0"/>
        <pt x="387" y="1368" on="1"/>
        <pt x="428" y="1368" on="0"/>
        <pt x="428" y="1368" on="0"/>
        <pt x="428" y="1330" on="1"/>
        <pt x="428" y="1292" on="0"/>
        <pt x="428" y="1292" on="0"/>
      </contour>
    </TTGlyph>
    <TTGlyph name="BaseCurvedElement" xMin="29" yMin="19" xMax="193" yMax="191">
      <contour>
        <pt x="150" y="167" on="1"/>
        <pt x="111" y="171" on="0"/>
        <pt x="111" y="171" on="0"/>
        <pt x="111" y="136" on="1"/>
        <pt x="111" y="97" on="0"/>
        <pt x="111" y="97" on="0"/>
        <pt x="151" y="93" on="1"/>
        <pt x="193" y="90" on="0"/>
        <pt x="193" y="90" on="0"/>
        <pt x="193" y="126" on="1"/>
        <pt x="193" y="164" on="0"/>
        <pt x="193" y="164" on="0"/>
      </contour>
      <contour>
        <pt x="151" y="93" on="1"/>
        <pt x="111" y="97" on="0"/>
        <pt x="111" y="97" on="0"/>
        <pt x="111" y="62" on="1"/>
        <pt x="111" y="25" on="0"/>
        <pt x="111" y="25" on="0"/>
        <pt x="152" y="21" on="1"/>
        <pt x="193" y="19" on="0"/>
        <pt x="193" y="19" on="0"/>
        <pt x="193" y="54" on="1"/>
        <pt x="193" y="90" on="0"/>
        <pt x="193" y="90" on="0"/>
      </contour>
      <contour>
        <pt x="72" y="179" on="1"/>
        <pt x="29" y="191" on="0"/>
        <pt x="29" y="191" on="0"/>
        <pt x="29" y="153" on="1"/>
        <pt x="29" y="117" on="0"/>
        <pt x="29" y="116" on="0"/>
        <pt x="70" y="105" on="1"/>
        <pt x="111" y="97" on="0"/>
        <pt x="111" y="97" on="0"/>
        <pt x="111" y="136" on="1"/>
        <pt x="111" y="171" on="0"/>
        <pt x="111" y="171" on="0"/>
      </contour>
      <contour>
        <pt x="70" y="105" on="1"/>
        <pt x="29" y="116" on="0"/>
        <pt x="29" y="117" on="0"/>
        <pt x="29" y="76" on="1"/>
        <pt x="29" y="42" on="0"/>
        <pt x="29" y="42" on="0"/>
        <pt x="70" y="32" on="1"/>
        <pt x="111" y="25" on="0"/>
        <pt x="111" y="25" on="0"/>
        <pt x="111" y="62" on="1"/>
        <pt x="111" y="97" on="0"/>
        <pt x="111" y="97" on="0"/>
      </contour>
    </TTGlyph>
    <TTGlyph name="BaseElement" xMin="246" yMin="0" xMax="410" yMax="152">
      <contour>
        <pt x="287" y="0" on="1"/>
        <pt x="246" y="0" on="0"/>
        <pt x="246" y="0" on="0"/>
        <pt x="246" y="38" on="1"/>
        <pt x="246" y="76" on="0"/>
        <pt x="246" y="76" on="0"/>
        <pt x="287" y="76" on="1"/>
        <pt x="328" y="76" on="0"/>
        <pt x="328" y="76" on="0"/>
        <pt x="328" y="38" on="1"/>
        <pt x="328" y="0" on="0"/>
        <pt x="328" y="0" on="0"/>
      </contour>
      <contour>
        <pt x="369" y="0" on="1"/>
        <pt x="328" y="0" on="0"/>
        <pt x="328" y="0" on="0"/>
        <pt x="328" y="38" on="1"/>
        <pt x="328" y="76" on="0"/>
        <pt x="328" y="76" on="0"/>
        <pt x="369" y="76" on="1"/>
        <pt x="410" y="76" on="0"/>
        <pt x="410" y="76" on="0"/>
        <pt x="410" y="38" on="1"/>
        <pt x="410" y="0" on="0"/>
        <pt x="410" y="0" on="0"/>
      </contour>
      <contour>
        <pt x="287" y="76" on="1"/>
        <pt x="246" y="76" on="0"/>
        <pt x="246" y="76" on="0"/>
        <pt x="246" y="114" on="1"/>
        <pt x="246" y="152" on="0"/>
        <pt x="246" y="152" on="0"/>
        <pt x="287" y="152" on="1"/>
        <pt x="328" y="152" on="0"/>
        <pt x="328" y="152" on="0"/>
        <pt x="328" y="114" on="1"/>
        <pt x="328" y="76" on="0"/>
        <pt x="328" y="76" on="0"/>
      </contour>
      <contour>
        <pt x="369" y="76" on="1"/>
        <pt x="328" y="76" on="0"/>
        <pt x="328" y="76" on="0"/>
        <pt x="328" y="114" on="1"/>
        <pt x="328" y="152" on="0"/>
        <pt x="328" y="152" on="0"/>
        <pt x="369" y="152" on="1"/>
        <pt x="410" y="152" on="0"/>
        <pt x="410" y="152" on="0"/>
        <pt x="410" y="114" on="1"/>
        <pt x="410" y="76" on="0"/>
        <pt x="410" y="76" on="0"/>
      </contour>
    </TTGlyph>
    <TTGlyph name="BaseElement2" xMin="246" yMin="0" xMax="410" yMax="152">
      <contour>
        <pt x="287" y="0" on="1"/>
        <pt x="246" y="0" on="0"/>
        <pt x="246" y="0" on="0"/>
        <pt x="246" y="38" on="1"/>
        <pt x="246" y="76" on="0"/>
        <pt x="246" y="76" on="0"/>
        <pt x="287" y="76" on="1"/>
        <pt x="328" y="76" on="0"/>
        <pt x="328" y="76" on="0"/>
        <pt x="328" y="38" on="1"/>
        <pt x="328" y="0" on="0"/>
        <pt x="328" y="0" on="0"/>
      </contour>
      <contour>
        <pt x="369" y="0" on="1"/>
        <pt x="328" y="0" on="0"/>
        <pt x="328" y="0" on="0"/>
        <pt x="328" y="38" on="1"/>
        <pt x="328" y="76" on="0"/>
        <pt x="328" y="76" on="0"/>
        <pt x="369" y="76" on="1"/>
        <pt x="410" y="76" on="0"/>
        <pt x="410" y="76" on="0"/>
        <pt x="410" y="38" on="1"/>
        <pt x="410" y="0" on="0"/>
        <pt x="410" y="0" on="0"/>
      </contour>
      <contour>
        <pt x="287" y="76" on="1"/>
        <pt x="246" y="76" on="0"/>
        <pt x="246" y="76" on="0"/>
        <pt x="246" y="114" on="1"/>
        <pt x="246" y="152" on="0"/>
        <pt x="246" y="152" on="0"/>
        <pt x="287" y="152" on="1"/>
        <pt x="328" y="152" on="0"/>
        <pt x="328" y="152" on="0"/>
        <pt x="328" y="114" on="1"/>
        <pt x="328" y="76" on="0"/>
        <pt x="328" y="76" on="0"/>
      </contour>
      <contour>
        <pt x="369" y="76" on="1"/>
        <pt x="328" y="76" on="0"/>
        <pt x="328" y="76" on="0"/>
        <pt x="328" y="114" on="1"/>
        <pt x="328" y="152" on="0"/>
        <pt x="328" y="152" on="0"/>
        <pt x="369" y="152" on="1"/>
        <pt x="410" y="152" on="0"/>
        <pt x="410" y="152" on="0"/>
        <pt x="410" y="114" on="1"/>
        <pt x="410" y="76" on="0"/>
        <pt x="410" y="76" on="0"/>
      </contour>
    </TTGlyph>
    <TTGlyph name="BaseElement3" xMin="246" yMin="0" xMax="410" yMax="152">
      <contour>
        <pt x="287" y="0" on="1"/>
        <pt x="246" y="0" on="0"/>
        <pt x="246" y="0" on="0"/>
        <pt x="246" y="38" on="1"/>
        <pt x="246" y="76" on="0"/>
        <pt x="246" y="76" on="0"/>
        <pt x="287" y="76" on="1"/>
        <pt x="328" y="76" on="0"/>
        <pt x="328" y="76" on="0"/>
        <pt x="328" y="38" on="1"/>
        <pt x="328" y="0" on="0"/>
        <pt x="328" y="0" on="0"/>
      </contour>
      <contour>
        <pt x="369" y="0" on="1"/>
        <pt x="328" y="0" on="0"/>
        <pt x="328" y="0" on="0"/>
        <pt x="328" y="38" on="1"/>
        <pt x="328" y="76" on="0"/>
        <pt x="328" y="76" on="0"/>
        <pt x="369" y="76" on="1"/>
        <pt x="410" y="76" on="0"/>
        <pt x="410" y="76" on="0"/>
        <pt x="410" y="38" on="1"/>
        <pt x="410" y="0" on="0"/>
        <pt x="410" y="0" on="0"/>
      </contour>
      <contour>
        <pt x="287" y="76" on="1"/>
        <pt x="246" y="76" on="0"/>
        <pt x="246" y="76" on="0"/>
        <pt x="246" y="114" on="1"/>
        <pt x="246" y="152" on="0"/>
        <pt x="246" y="152" on="0"/>
        <pt x="287" y="152" on="1"/>
        <pt x="328" y="152" on="0"/>
        <pt x="328" y="152" on="0"/>
        <pt x="328" y="114" on="1"/>
        <pt x="328" y="76" on="0"/>
        <pt x="328" y="76" on="0"/>
      </contour>
      <contour>
        <pt x="369" y="76" on="1"/>
        <pt x="328" y="76" on="0"/>
        <pt x="328" y="76" on="0"/>
        <pt x="328" y="114" on="1"/>
        <pt x="328" y="152" on="0"/>
        <pt x="328" y="152" on="0"/>
        <pt x="369" y="152" on="1"/>
        <pt x="410" y="152" on="0"/>
        <pt x="410" y="152" on="0"/>
        <pt x="410" y="114" on="1"/>
        <pt x="410" y="76" on="0"/>
        <pt x="410" y="76" on="0"/>
      </contour>
    </TTGlyph>
    <TTGlyph name="BaseElementV2" xMin="246" yMin="0" xMax="410" yMax="152">
      <contour>
        <pt x="287" y="0" on="1"/>
        <pt x="246" y="0" on="0"/>
        <pt x="246" y="0" on="0"/>
        <pt x="246" y="38" on="1"/>
        <pt x="246" y="76" on="0"/>
        <pt x="246" y="76" on="0"/>
        <pt x="287" y="76" on="1"/>
        <pt x="328" y="76" on="0"/>
        <pt x="328" y="76" on="0"/>
        <pt x="328" y="38" on="1"/>
        <pt x="328" y="0" on="0"/>
        <pt x="328" y="0" on="0"/>
      </contour>
      <contour>
        <pt x="369" y="0" on="1"/>
        <pt x="328" y="0" on="0"/>
        <pt x="328" y="0" on="0"/>
        <pt x="328" y="38" on="1"/>
        <pt x="328" y="76" on="0"/>
        <pt x="328" y="76" on="0"/>
        <pt x="369" y="76" on="1"/>
        <pt x="410" y="76" on="0"/>
        <pt x="410" y="76" on="0"/>
        <pt x="410" y="38" on="1"/>
        <pt x="410" y="0" on="0"/>
        <pt x="410" y="0" on="0"/>
      </contour>
      <contour>
        <pt x="287" y="76" on="1"/>
        <pt x="246" y="76" on="0"/>
        <pt x="246" y="76" on="0"/>
        <pt x="246" y="114" on="1"/>
        <pt x="246" y="152" on="0"/>
        <pt x="246" y="152" on="0"/>
        <pt x="287" y="152" on="1"/>
        <pt x="328" y="152" on="0"/>
        <pt x="328" y="152" on="0"/>
        <pt x="328" y="114" on="1"/>
        <pt x="328" y="76" on="0"/>
        <pt x="328" y="76" on="0"/>
      </contour>
      <contour>
        <pt x="369" y="76" on="1"/>
        <pt x="328" y="76" on="0"/>
        <pt x="328" y="76" on="0"/>
        <pt x="328" y="114" on="1"/>
        <pt x="328" y="152" on="0"/>
        <pt x="328" y="152" on="0"/>
        <pt x="369" y="152" on="1"/>
        <pt x="410" y="152" on="0"/>
        <pt x="410" y="152" on="0"/>
        <pt x="410" y="114" on="1"/>
        <pt x="410" y="76" on="0"/>
        <pt x="410" y="76" on="0"/>
      </contour>
    </TTGlyph>
    <TTGlyph name="BaseElementV3" xMin="246" yMin="0" xMax="410" yMax="152">
      <contour>
        <pt x="287" y="0" on="1"/>
        <pt x="246" y="0" on="0"/>
        <pt x="246" y="0" on="0"/>
        <pt x="246" y="38" on="1"/>
        <pt x="246" y="76" on="0"/>
        <pt x="246" y="76" on="0"/>
        <pt x="287" y="76" on="1"/>
        <pt x="328" y="76" on="0"/>
        <pt x="328" y="76" on="0"/>
        <pt x="328" y="38" on="1"/>
        <pt x="328" y="0" on="0"/>
        <pt x="328" y="0" on="0"/>
      </contour>
      <contour>
        <pt x="369" y="0" on="1"/>
        <pt x="328" y="0" on="0"/>
        <pt x="328" y="0" on="0"/>
        <pt x="328" y="38" on="1"/>
        <pt x="328" y="76" on="0"/>
        <pt x="328" y="76" on="0"/>
        <pt x="369" y="76" on="1"/>
        <pt x="410" y="76" on="0"/>
        <pt x="410" y="76" on="0"/>
        <pt x="410" y="38" on="1"/>
        <pt x="410" y="0" on="0"/>
        <pt x="410" y="0" on="0"/>
      </contour>
      <contour>
        <pt x="287" y="76" on="1"/>
        <pt x="246" y="76" on="0"/>
        <pt x="246" y="76" on="0"/>
        <pt x="246" y="114" on="1"/>
        <pt x="246" y="152" on="0"/>
        <pt x="246" y="152" on="0"/>
        <pt x="287" y="152" on="1"/>
        <pt x="328" y="152" on="0"/>
        <pt x="328" y="152" on="0"/>
        <pt x="328" y="114" on="1"/>
        <pt x="328" y="76" on="0"/>
        <pt x="328" y="76" on="0"/>
      </contour>
      <contour>
        <pt x="369" y="76" on="1"/>
        <pt x="328" y="76" on="0"/>
        <pt x="328" y="76" on="0"/>
        <pt x="328" y="114" on="1"/>
        <pt x="328" y="152" on="0"/>
        <pt x="328" y="152" on="0"/>
        <pt x="369" y="152" on="1"/>
        <pt x="410" y="152" on="0"/>
        <pt x="410" y="152" on="0"/>
        <pt x="410" y="114" on="1"/>
        <pt x="410" y="76" on="0"/>
        <pt x="410" y="76" on="0"/>
      </contour>
    </TTGlyph>
    <TTGlyph name="C" xMin="82" yMin="-38" xMax="1148" yMax="1404">
      <contour>
        <pt x="943" y="1315" on="1"/>
        <pt x="902" y="1322" on="0"/>
        <pt x="854" y="1326" on="0"/>
        <pt x="807" y="1326" on="1"/>
        <pt x="518" y="1326" on="0"/>
        <pt x="166" y="987" on="0"/>
        <pt x="166" y="684" on="1"/>
        <pt x="166" y="375" on="0"/>
        <pt x="528" y="35" on="0"/>
        <pt x="807" y="35" on="1"/>
        <pt x="857" y="35" on="0"/>
        <pt x="908" y="39" on="0"/>
        <pt x="946" y="45" on="1"/>
        <pt x="984" y="53" on="0"/>
        <pt x="984" y="53" on="0"/>
        <pt x="984" y="90" on="1"/>
        <pt x="984" y="127" on="0"/>
        <pt x="984" y="127" on="0"/>
        <pt x="946" y="119" on="1"/>
        <pt x="908" y="111" on="0"/>
        <pt x="857" y="107" on="0"/>
        <pt x="807" y="107" on="1"/>
        <pt x="559" y="107" on="0"/>
        <pt x="246" y="418" on="0"/>
        <pt x="246" y="684" on="1"/>
        <pt x="246" y="960" on="0"/>
        <pt x="563" y="1249" on="0"/>
        <pt x="807" y="1249" on="1"/>
        <pt x="854" y="1249" on="0"/>
        <pt x="902" y="1244" on="0"/>
        <pt x="943" y="1235" on="1"/>
        <pt x="984" y="1225" on="0"/>
        <pt x="984" y="1225" on="0"/>
        <pt x="984" y="1267" on="1"/>
        <pt x="984" y="1306" on="0"/>
        <pt x="984" y="1306" on="0"/>
      </contour>
      <contour>
        <pt x="946" y="1394" on="1"/>
        <pt x="904" y="1400" on="0"/>
        <pt x="853" y="1404" on="0"/>
        <pt x="807" y="1404" on="1"/>
        <pt x="481" y="1404" on="0"/>
        <pt x="82" y="1016" on="0"/>
        <pt x="82" y="684" on="1"/>
        <pt x="82" y="352" on="0"/>
        <pt x="481" y="-38" on="0"/>
        <pt x="807" y="-38" on="1"/>
        <pt x="855" y="-38" on="0"/>
        <pt x="906" y="-34" on="0"/>
        <pt x="947" y="-27" on="1"/>
        <pt x="984" y="-20" on="0"/>
        <pt x="984" y="-20" on="0"/>
        <pt x="984" y="15" on="1"/>
        <pt x="984" y="53" on="0"/>
        <pt x="984" y="53" on="0"/>
        <pt x="946" y="45" on="1"/>
        <pt x="908" y="39" on="0"/>
        <pt x="857" y="35" on="0"/>
        <pt x="807" y="35" on="1"/>
        <pt x="528" y="35" on="0"/>
        <pt x="166" y="375" on="0"/>
        <pt x="166" y="684" on="1"/>
        <pt x="166" y="987" on="0"/>
        <pt x="518" y="1326" on="0"/>
        <pt x="807" y="1326" on="1"/>
        <pt x="854" y="1326" on="0"/>
        <pt x="902" y="1322" on="0"/>
        <pt x="943" y="1315" on="1"/>
        <pt x="984" y="1306" on="0"/>
        <pt x="984" y="1306" on="0"/>
        <pt x="984" y="1347" on="1"/>
        <pt x="984" y="1387" on="0"/>
        <pt x="984" y="1387" on="0"/>
      </contour>
      <contour>
        <pt x="1027" y="140" on="1"/>
        <pt x="1066" y="155" on="0"/>
        <pt x="1066" y="155" on="0"/>
        <pt x="1066" y="118" on="1"/>
        <pt x="1066" y="79" on="0"/>
        <pt x="1066" y="79" on="0"/>
        <pt x="1026" y="65" on="1"/>
        <pt x="984" y="53" on="0"/>
        <pt x="984" y="53" on="0"/>
        <pt x="984" y="90" on="1"/>
        <pt x="984" y="127" on="0"/>
        <pt x="984" y="127" on="0"/>
      </contour>
      <contour>
        <pt x="1026" y="65" on="1"/>
        <pt x="1066" y="79" on="0"/>
        <pt x="1066" y="79" on="0"/>
        <pt x="1066" y="41" on="1"/>
        <pt x="1066" y="2" on="0"/>
        <pt x="1066" y="2" on="0"/>
        <pt x="1025" y="-10" on="1"/>
        <pt x="984" y="-20" on="0"/>
        <pt x="984" y="-20" on="0"/>
        <pt x="984" y="15" on="1"/>
        <pt x="984" y="53" on="0"/>
        <pt x="984" y="53" on="0"/>
      </contour>
      <contour>
        <pt x="1105" y="176" on="1"/>
        <pt x="1148" y="206" on="0"/>
        <pt x="1148" y="206" on="0"/>
        <pt x="1148" y="154" on="1"/>
        <pt x="1148" y="122" on="0"/>
        <pt x="1148" y="122" on="0"/>
        <pt x="1107" y="98" on="1"/>
        <pt x="1066" y="79" on="0"/>
        <pt x="1066" y="79" on="0"/>
        <pt x="1066" y="118" on="1"/>
        <pt x="1066" y="155" on="0"/>
        <pt x="1066" y="155" on="0"/>
      </contour>
      <contour>
        <pt x="1107" y="98" on="1"/>
        <pt x="1148" y="122" on="0"/>
        <pt x="1148" y="122" on="0"/>
        <pt x="1148" y="67" on="1"/>
        <pt x="1148" y="36" on="0"/>
        <pt x="1148" y="36" on="0"/>
        <pt x="1107" y="18" on="1"/>
        <pt x="1066" y="2" on="0"/>
        <pt x="1066" y="2" on="0"/>
        <pt x="1066" y="41" on="1"/>
        <pt x="1066" y="79" on="0"/>
        <pt x="1066" y="79" on="0"/>
      </contour>
      <contour>
        <pt x="1027" y="1210" on="1"/>
        <pt x="1066" y="1193" on="0"/>
        <pt x="1066" y="1193" on="0"/>
        <pt x="1066" y="1229" on="1"/>
        <pt x="1066" y="1280" on="0"/>
        <pt x="1066" y="1280" on="0"/>
        <pt x="1026" y="1294" on="1"/>
        <pt x="984" y="1306" on="0"/>
        <pt x="984" y="1306" on="0"/>
        <pt x="984" y="1261" on="1"/>
        <pt x="984" y="1225" on="0"/>
        <pt x="984" y="1225" on="0"/>
      </contour>
      <contour>
        <pt x="1026" y="1294" on="1"/>
        <pt x="1066" y="1280" on="0"/>
        <pt x="1066" y="1280" on="0"/>
        <pt x="1066" y="1324" on="1"/>
        <pt x="1066" y="1365" on="0"/>
        <pt x="1066" y="1365" on="0"/>
        <pt x="1025" y="1377" on="1"/>
        <pt x="984" y="1387" on="0"/>
        <pt x="984" y="1387" on="0"/>
        <pt x="984" y="1344" on="1"/>
        <pt x="984" y="1306" on="0"/>
        <pt x="984" y="1306" on="0"/>
      </contour>
      <contour>
        <pt x="1105" y="1172" on="1"/>
        <pt x="1148" y="1144" on="0"/>
        <pt x="1148" y="1144" on="0"/>
        <pt x="1148" y="1205" on="1"/>
        <pt x="1148" y="1243" on="0"/>
        <pt x="1148" y="1243" on="0"/>
        <pt x="1107" y="1263" on="1"/>
        <pt x="1066" y="1280" on="0"/>
        <pt x="1066" y="1280" on="0"/>
        <pt x="1066" y="1229" on="1"/>
        <pt x="1066" y="1193" on="0"/>
        <pt x="1066" y="1193" on="0"/>
      </contour>
      <contour>
        <pt x="1107" y="1263" on="1"/>
        <pt x="1148" y="1243" on="0"/>
        <pt x="1148" y="1243" on="0"/>
        <pt x="1148" y="1292" on="1"/>
        <pt x="1148" y="1331" on="0"/>
        <pt x="1148" y="1331" on="0"/>
        <pt x="1107" y="1349" on="1"/>
        <pt x="1066" y="1365" on="0"/>
        <pt x="1066" y="1365" on="0"/>
        <pt x="1066" y="1324" on="1"/>
        <pt x="1066" y="1280" on="0"/>
        <pt x="1066" y="1280" on="0"/>
      </contour>
    </TTGlyph>
    <TTGlyph name="CapCrossbarElement" xMin="164" yMin="608" xMax="984" yMax="760">
      <contour>
        <pt x="204" y="608" on="1"/>
        <pt x="164" y="608" on="0"/>
        <pt x="164" y="608" on="0"/>
        <pt x="164" y="646" on="1"/>
        <pt x="164" y="684" on="0"/>
        <pt x="164" y="684" on="0"/>
        <pt x="204" y="684" on="1"/>
        <pt x="297" y="684" on="0"/>
        <pt x="465" y="684" on="0"/>
        <pt x="574" y="684" on="1"/>
        <pt x="680" y="684" on="0"/>
        <pt x="856" y="684" on="0"/>
        <pt x="944" y="684" on="1"/>
        <pt x="984" y="684" on="0"/>
        <pt x="984" y="684" on="0"/>
        <pt x="984" y="645" on="1"/>
        <pt x="984" y="608" on="0"/>
        <pt x="984" y="608" on="0"/>
        <pt x="944" y="608" on="1"/>
        <pt x="856" y="608" on="0"/>
        <pt x="681" y="608" on="0"/>
        <pt x="573" y="608" on="1"/>
        <pt x="465" y="608" on="0"/>
        <pt x="297" y="608" on="0"/>
      </contour>
      <contour>
        <pt x="204" y="684" on="1"/>
        <pt x="164" y="684" on="0"/>
        <pt x="164" y="684" on="0"/>
        <pt x="164" y="722" on="1"/>
        <pt x="164" y="760" on="0"/>
        <pt x="164" y="760" on="0"/>
        <pt x="204" y="760" on="1"/>
        <pt x="296" y="760" on="0"/>
        <pt x="464" y="760" on="0"/>
        <pt x="574" y="760" on="1"/>
        <pt x="679" y="760" on="0"/>
        <pt x="853" y="760" on="0"/>
        <pt x="944" y="760" on="1"/>
        <pt x="984" y="760" on="0"/>
        <pt x="984" y="760" on="0"/>
        <pt x="984" y="721" on="1"/>
        <pt x="984" y="684" on="0"/>
        <pt x="984" y="684" on="0"/>
        <pt x="944" y="684" on="1"/>
        <pt x="856" y="684" on="0"/>
        <pt x="679" y="684" on="0"/>
        <pt x="574" y="684" on="1"/>
        <pt x="464" y="684" on="0"/>
        <pt x="297" y="684" on="0"/>
      </contour>
    </TTGlyph>
    <TTGlyph name="CapStemPattern" xMin="246" yMin="0" xMax="410" yMax="1368">
      <component glyphName="WaistElement" x="0" y="0" flags="0x204"/>
      <component glyphName="TopElement" x="0" y="0" flags="0x204"/>
      <component glyphName="MidElement" x="0" y="0" flags="0x204"/>
      <component glyphName="BaseElement" x="0" y="0" flags="0x204"/>
    </TTGlyph>
    <TTGlyph name="CapStemPatternV2" xMin="246" yMin="0" xMax="410" yMax="1368">
      <component glyphName="WaistElement" x="0" y="0" flags="0x204"/>
      <component glyphName="MidElement" x="0" y="0" flags="0x204"/>
      <component glyphName="TopElementV2" x="0" y="0" flags="0x204"/>
      <component glyphName="BaseElementV2" x="0" y="0" flags="0x204"/>
    </TTGlyph>
    <TTGlyph name="CapStemPatternV3" xMin="246" yMin="0" xMax="410" yMax="1368">
      <component glyphName="WaistElement" x="0" y="0" flags="0x204"/>
      <component glyphName="MidElement" x="0" y="0" flags="0x204"/>
      <component glyphName="BaseElementV3" x="0" y="0" flags="0x204"/>
      <component glyphName="TopElementV3" x="0" y="0" flags="0x204"/>
    </TTGlyph>
    <TTGlyph name="Ccedilla" xMin="82" yMin="-510" xMax="1148" yMax="1404">
      <component glyphName="C" x="0" y="0" flags="0x4"/>
      <component glyphName="cedilla" x="282" y="0" flags="0x4"/>
    </TTGlyph>
    <TTGlyph name="D" xMin="164" yMin="0" xMax="1230" yMax="1368">
      <contour>
        <pt x="367" y="0" on="1"/>
        <pt x="328" y="0" on="0"/>
        <pt x="328" y="0" on="0"/>
        <pt x="328" y="34" on="1"/>
        <pt x="328" y="76" on="0"/>
        <pt x="328" y="76" on="0"/>
        <pt x="367" y="76" on="1"/>
        <pt x="410" y="76" on="0"/>
        <pt x="494" y="76" on="0"/>
        <pt x="533" y="76" on="1"/>
        <pt x="752" y="76" on="0"/>
        <pt x="1105" y="351" on="0"/>
        <pt x="1141" y="570" on="1"/>
        <pt x="1148" y="608" on="0"/>
        <pt x="1148" y="608" on="0"/>
        <pt x="1187" y="608" on="1"/>
        <pt x="1227" y="608" on="0"/>
        <pt x="1227" y="608" on="0"/>
        <pt x="1222" y="569" on="1"/>
        <pt x="1186" y="304" on="0"/>
        <pt x="775" y="0" on="0"/>
        <pt x="534" y="0" on="1"/>
        <pt x="493" y="0" on="0"/>
        <pt x="410" y="0" on="0"/>
      </contour>
      <contour>
        <pt x="367" y="76" on="1"/>
        <pt x="410" y="76" on="0"/>
        <pt x="494" y="76" on="0"/>
        <pt x="533" y="76" on="1"/>
        <pt x="752" y="76" on="0"/>
        <pt x="1105" y="351" on="0"/>
        <pt x="1141" y="570" on="1"/>
        <pt x="1148" y="608" on="0"/>
        <pt x="1148" y="608" on="0"/>
        <pt x="1101" y="608" on="1"/>
        <pt x="1059" y="608" on="0"/>
        <pt x="1059" y="608" on="0"/>
        <pt x="1053" y="572" on="1"/>
        <pt x="1023" y="391" on="0"/>
        <pt x="730" y="152" on="0"/>
        <pt x="514" y="152" on="1"/>
        <pt x="493" y="152" on="0"/>
        <pt x="410" y="152" on="0"/>
        <pt x="367" y="152" on="1"/>
        <pt x="328" y="152" on="0"/>
        <pt x="328" y="152" on="0"/>
        <pt x="328" y="114" on="1"/>
        <pt x="328" y="76" on="0"/>
        <pt x="328" y="76" on="0"/>
      </contour>
      <contour>
        <pt x="1103" y="760" on="1"/>
        <pt x="1148" y="760" on="0"/>
        <pt x="1147" y="760" on="0"/>
        <pt x="1142" y="798" on="1"/>
        <pt x="1098" y="1014" on="0"/>
        <pt x="753" y="1292" on="0"/>
        <pt x="533" y="1292" on="1"/>
        <pt x="494" y="1292" on="0"/>
        <pt x="410" y="1292" on="0"/>
        <pt x="367" y="1292" on="1"/>
        <pt x="328" y="1292" on="0"/>
        <pt x="328" y="1292" on="0"/>
        <pt x="328" y="1254" on="1"/>
        <pt x="328" y="1216" on="0"/>
        <pt x="328" y="1216" on="0"/>
        <pt x="367" y="1216" on="1"/>
        <pt x="410" y="1216" on="0"/>
        <pt x="493" y="1216" on="0"/>
        <pt x="514" y="1216" on="1"/>
        <pt x="726" y="1216" on="0"/>
        <pt x="1017" y="981" on="0"/>
        <pt x="1053" y="796" on="1"/>
        <pt x="1060" y="760" on="0"/>
        <pt x="1060" y="760" on="0"/>
      </contour>
      <contour>
        <pt x="1188" y="760" on="1"/>
        <pt x="1148" y="760" on="0"/>
        <pt x="1147" y="760" on="0"/>
        <pt x="1142" y="798" on="1"/>
        <pt x="1098" y="1014" on="0"/>
        <pt x="753" y="1292" on="0"/>
        <pt x="533" y="1292" on="1"/>
        <pt x="494" y="1292" on="0"/>
        <pt x="410" y="1292" on="0"/>
        <pt x="367" y="1292" on="1"/>
        <pt x="328" y="1292" on="0"/>
        <pt x="328" y="1292" on="0"/>
        <pt x="328" y="1334" on="1"/>
        <pt x="328" y="1368" on="0"/>
        <pt x="328" y="1368" on="0"/>
        <pt x="367" y="1368" on="1"/>
        <pt x="410" y="1368" on="0"/>
        <pt x="493" y="1368" on="0"/>
        <pt x="534" y="1368" on="1"/>
        <pt x="806" y="1368" on="0"/>
        <pt x="1190" y="1049" on="0"/>
        <pt x="1223" y="799" on="1"/>
        <pt x="1227" y="760" on="0"/>
        <pt x="1227" y="760" on="0"/>
      </contour>
      <contour>
        <pt x="1101" y="608" on="1"/>
        <pt x="1059" y="608" on="0"/>
        <pt x="1059" y="608" on="0"/>
        <pt x="1063" y="646" on="1"/>
        <pt x="1065" y="684" on="0"/>
        <pt x="1065" y="684" on="0"/>
        <pt x="1103" y="684" on="1"/>
        <pt x="1148" y="684" on="0"/>
        <pt x="1148" y="684" on="0"/>
        <pt x="1148" y="646" on="1"/>
        <pt x="1148" y="608" on="0"/>
        <pt x="1148" y="608" on="0"/>
      </contour>
      <contour>
        <pt x="1103" y="684" on="1"/>
        <pt x="1065" y="684" on="0"/>
        <pt x="1065" y="684" on="0"/>
        <pt x="1063" y="722" on="1"/>
        <pt x="1060" y="760" on="0"/>
        <pt x="1060" y="760" on="0"/>
        <pt x="1103" y="760" on="1"/>
        <pt x="1147" y="760" on="0"/>
        <pt x="1148" y="760" on="0"/>
        <pt x="1148" y="722" on="1"/>
        <pt x="1148" y="684" on="0"/>
        <pt x="1148" y="684" on="0"/>
      </contour>
      <contour>
        <pt x="1187" y="608" on="1"/>
        <pt x="1148" y="608" on="0"/>
        <pt x="1148" y="608" on="0"/>
        <pt x="1148" y="646" on="1"/>
        <pt x="1148" y="684" on="0"/>
        <pt x="1148" y="684" on="0"/>
        <pt x="1189" y="684" on="1"/>
        <pt x="1230" y="684" on="0"/>
        <pt x="1230" y="684" on="0"/>
        <pt x="1229" y="646" on="1"/>
        <pt x="1227" y="608" on="0"/>
        <pt x="1227" y="608" on="0"/>
      </contour>
      <contour>
        <pt x="1188" y="684" on="1"/>
        <pt x="1148" y="684" on="0"/>
        <pt x="1148" y="684" on="0"/>
        <pt x="1148" y="722" on="1"/>
        <pt x="1148" y="760" on="0"/>
        <pt x="1147" y="760" on="0"/>
        <pt x="1188" y="760" on="1"/>
        <pt x="1227" y="760" on="0"/>
        <pt x="1227" y="760" on="0"/>
        <pt x="1229" y="722" on="1"/>
        <pt x="1230" y="684" on="0"/>
        <pt x="1230" y="684" on="0"/>
      </contour>
      <contour>
        <pt x="205" y="608" on="1"/>
        <pt x="164" y="608" on="0"/>
        <pt x="164" y="608" on="0"/>
        <pt x="164" y="646" on="1"/>
        <pt x="164" y="684" on="0"/>
        <pt x="164" y="684" on="0"/>
        <pt x="205" y="684" on="1"/>
        <pt x="246" y="684" on="0"/>
        <pt x="246" y="684" on="0"/>
        <pt x="246" y="646" on="1"/>
        <pt x="246" y="608" on="0"/>
        <pt x="246" y="608" on="0"/>
      </contour>
      <contour>
        <pt x="287" y="608" on="1"/>
        <pt x="246" y="608" on="0"/>
        <pt x="246" y="608" on="0"/>
        <pt x="246" y="646" on="1"/>
        <pt x="246" y="684" on="0"/>
        <pt x="246" y="684" on="0"/>
        <pt x="287" y="684" on="1"/>
        <pt x="328" y="684" on="0"/>
        <pt x="328" y="684" on="0"/>
        <pt x="328" y="646" on="1"/>
        <pt x="328" y="608" on="0"/>
        <pt x="328" y="608" on="0"/>
      </contour>
      <contour>
        <pt x="205" y="684" on="1"/>
        <pt x="164" y="684" on="0"/>
        <pt x="164" y="684" on="0"/>
        <pt x="164" y="722" on="1"/>
        <pt x="164" y="760" on="0"/>
        <pt x="164" y="760" on="0"/>
        <pt x="205" y="760" on="1"/>
        <pt x="246" y="760" on="0"/>
        <pt x="246" y="760" on="0"/>
        <pt x="246" y="722" on="1"/>
        <pt x="246" y="684" on="0"/>
        <pt x="246" y="684" on="0"/>
      </contour>
      <contour>
        <pt x="287" y="684" on="1"/>
        <pt x="246" y="684" on="0"/>
        <pt x="246" y="684" on="0"/>
        <pt x="246" y="722" on="1"/>
        <pt x="246" y="760" on="0"/>
        <pt x="246" y="760" on="0"/>
        <pt x="287" y="760" on="1"/>
        <pt x="328" y="760" on="0"/>
        <pt x="328" y="760" on="0"/>
        <pt x="328" y="722" on="1"/>
        <pt x="328" y="684" on="0"/>
        <pt x="328" y="684" on="0"/>
      </contour>
      <contour>
        <pt x="205" y="152" on="1"/>
        <pt x="164" y="152" on="0"/>
        <pt x="164" y="152" on="0"/>
        <pt x="164" y="190" on="1"/>
        <pt x="164" y="228" on="0"/>
        <pt x="164" y="265" on="0"/>
        <pt x="164" y="380" on="1"/>
        <pt x="164" y="491" on="0"/>
        <pt x="164" y="532" on="0"/>
        <pt x="164" y="570" on="1"/>
        <pt x="164" y="608" on="0"/>
        <pt x="164" y="608" on="0"/>
        <pt x="205" y="608" on="1"/>
        <pt x="246" y="608" on="0"/>
        <pt x="246" y="608" on="0"/>
        <pt x="246" y="570" on="1"/>
        <pt x="246" y="532" on="0"/>
        <pt x="246" y="490" on="0"/>
        <pt x="246" y="380" on="1"/>
        <pt x="246" y="263" on="0"/>
        <pt x="246" y="228" on="0"/>
        <pt x="246" y="190" on="1"/>
        <pt x="246" y="152" on="0"/>
        <pt x="246" y="152" on="0"/>
      </contour>
      <contour>
        <pt x="287" y="152" on="1"/>
        <pt x="246" y="152" on="0"/>
        <pt x="246" y="152" on="0"/>
        <pt x="246" y="190" on="1"/>
        <pt x="246" y="228" on="0"/>
        <pt x="246" y="265" on="0"/>
        <pt x="246" y="380" on="1"/>
        <pt x="246" y="491" on="0"/>
        <pt x="246" y="532" on="0"/>
        <pt x="246" y="570" on="1"/>
        <pt x="246" y="608" on="0"/>
        <pt x="246" y="608" on="0"/>
        <pt x="287" y="608" on="1"/>
        <pt x="328" y="608" on="0"/>
        <pt x="328" y="608" on="0"/>
        <pt x="328" y="570" on="1"/>
        <pt x="328" y="532" on="0"/>
        <pt x="328" y="490" on="0"/>
        <pt x="328" y="380" on="1"/>
        <pt x="328" y="263" on="0"/>
        <pt x="328" y="228" on="0"/>
        <pt x="328" y="190" on="1"/>
        <pt x="328" y="152" on="0"/>
        <pt x="328" y="152" on="0"/>
      </contour>
      <contour>
        <pt x="205" y="760" on="1"/>
        <pt x="164" y="760" on="0"/>
        <pt x="164" y="760" on="0"/>
        <pt x="164" y="798" on="1"/>
        <pt x="164" y="836" on="0"/>
        <pt x="164" y="877" on="0"/>
        <pt x="164" y="992" on="1"/>
        <pt x="164" y="1103" on="0"/>
        <pt x="164" y="1140" on="0"/>
        <pt x="164" y="1178" on="1"/>
        <pt x="164" y="1216" on="0"/>
        <pt x="164" y="1216" on="0"/>
        <pt x="205" y="1216" on="1"/>
        <pt x="246" y="1216" on="0"/>
        <pt x="246" y="1216" on="0"/>
        <pt x="246" y="1178" on="1"/>
        <pt x="246" y="1140" on="0"/>
        <pt x="246" y="1102" on="0"/>
        <pt x="246" y="992" on="1"/>
        <pt x="246" y="875" on="0"/>
        <pt x="246" y="836" on="0"/>
        <pt x="246" y="798" on="1"/>
        <pt x="246" y="760" on="0"/>
        <pt x="246" y="760" on="0"/>
      </contour>
      <contour>
        <pt x="287" y="760" on="1"/>
        <pt x="246" y="760" on="0"/>
        <pt x="246" y="760" on="0"/>
        <pt x="246" y="798" on="1"/>
        <pt x="246" y="836" on="0"/>
        <pt x="246" y="877" on="0"/>
        <pt x="246" y="992" on="1"/>
        <pt x="246" y="1103" on="0"/>
        <pt x="246" y="1140" on="0"/>
        <pt x="246" y="1178" on="1"/>
        <pt x="246" y="1216" on="0"/>
        <pt x="246" y="1216" on="0"/>
        <pt x="287" y="1216" on="1"/>
        <pt x="328" y="1216" on="0"/>
        <pt x="328" y="1216" on="0"/>
        <pt x="328" y="1178" on="1"/>
        <pt x="328" y="1140" on="0"/>
        <pt x="328" y="1102" on="0"/>
        <pt x="328" y="992" on="1"/>
        <pt x="328" y="875" on="0"/>
        <pt x="328" y="836" on="0"/>
        <pt x="328" y="798" on="1"/>
        <pt x="328" y="760" on="0"/>
        <pt x="328" y="760" on="0"/>
      </contour>
      <contour>
        <pt x="205" y="1216" on="1"/>
        <pt x="164" y="1216" on="0"/>
        <pt x="164" y="1216" on="0"/>
        <pt x="164" y="1254" on="1"/>
        <pt x="164" y="1292" on="0"/>
        <pt x="164" y="1292" on="0"/>
        <pt x="205" y="1292" on="1"/>
        <pt x="246" y="1292" on="0"/>
        <pt x="246" y="1292" on="0"/>
        <pt x="246" y="1254" on="1"/>
        <pt x="246" y="1216" on="0"/>
        <pt x="246" y="1216" on="0"/>
      </contour>
      <contour>
        <pt x="287" y="1216" on="1"/>
        <pt x="246" y="1216" on="0"/>
        <pt x="246" y="1216" on="0"/>
        <pt x="246" y="1254" on="1"/>
        <pt x="246" y="1292" on="0"/>
        <pt x="246" y="1292" on="0"/>
        <pt x="287" y="1292" on="1"/>
        <pt x="328" y="1292" on="0"/>
        <pt x="328" y="1292" on="0"/>
        <pt x="328" y="1254" on="1"/>
        <pt x="328" y="1216" on="0"/>
        <pt x="328" y="1216" on="0"/>
      </contour>
      <contour>
        <pt x="205" y="1292" on="1"/>
        <pt x="164" y="1292" on="0"/>
        <pt x="164" y="1292" on="0"/>
        <pt x="164" y="1330" on="1"/>
        <pt x="164" y="1368" on="0"/>
        <pt x="164" y="1368" on="0"/>
        <pt x="205" y="1368" on="1"/>
        <pt x="246" y="1368" on="0"/>
        <pt x="246" y="1368" on="0"/>
        <pt x="246" y="1330" on="1"/>
        <pt x="246" y="1292" on="0"/>
        <pt x="246" y="1292" on="0"/>
      </contour>
      <contour>
        <pt x="287" y="1292" on="1"/>
        <pt x="246" y="1292" on="0"/>
        <pt x="246" y="1292" on="0"/>
        <pt x="246" y="1330" on="1"/>
        <pt x="246" y="1368" on="0"/>
        <pt x="246" y="1368" on="0"/>
        <pt x="287" y="1368" on="1"/>
        <pt x="328" y="1368" on="0"/>
        <pt x="328" y="1368" on="0"/>
        <pt x="328" y="1330" on="1"/>
        <pt x="328" y="1292" on="0"/>
        <pt x="328" y="1292" on="0"/>
      </contour>
      <contour>
        <pt x="205" y="0" on="1"/>
        <pt x="164" y="0" on="0"/>
        <pt x="164" y="0" on="0"/>
        <pt x="164" y="38" on="1"/>
        <pt x="164" y="76" on="0"/>
        <pt x="164" y="76" on="0"/>
        <pt x="205" y="76" on="1"/>
        <pt x="246" y="76" on="0"/>
        <pt x="246" y="76" on="0"/>
        <pt x="246" y="38" on="1"/>
        <pt x="246" y="0" on="0"/>
        <pt x="246" y="0" on="0"/>
      </contour>
      <contour>
        <pt x="287" y="0" on="1"/>
        <pt x="246" y="0" on="0"/>
        <pt x="246" y="0" on="0"/>
        <pt x="246" y="38" on="1"/>
        <pt x="246" y="76" on="0"/>
        <pt x="246" y="76" on="0"/>
        <pt x="287" y="76" on="1"/>
        <pt x="328" y="76" on="0"/>
        <pt x="328" y="76" on="0"/>
        <pt x="328" y="38" on="1"/>
        <pt x="328" y="0" on="0"/>
        <pt x="328" y="0" on="0"/>
      </contour>
      <contour>
        <pt x="205" y="76" on="1"/>
        <pt x="164" y="76" on="0"/>
        <pt x="164" y="76" on="0"/>
        <pt x="164" y="114" on="1"/>
        <pt x="164" y="152" on="0"/>
        <pt x="164" y="152" on="0"/>
        <pt x="205" y="152" on="1"/>
        <pt x="246" y="152" on="0"/>
        <pt x="246" y="152" on="0"/>
        <pt x="246" y="114" on="1"/>
        <pt x="246" y="76" on="0"/>
        <pt x="246" y="76" on="0"/>
      </contour>
      <contour>
        <pt x="287" y="76" on="1"/>
        <pt x="246" y="76" on="0"/>
        <pt x="246" y="76" on="0"/>
        <pt x="246" y="114" on="1"/>
        <pt x="246" y="152" on="0"/>
        <pt x="246" y="152" on="0"/>
        <pt x="287" y="152" on="1"/>
        <pt x="328" y="152" on="0"/>
        <pt x="328" y="152" on="0"/>
        <pt x="328" y="114" on="1"/>
        <pt x="328" y="76" on="0"/>
        <pt x="328" y="76" on="0"/>
      </contour>
    </TTGlyph>
    <TTGlyph name="E" xMin="164" yMin="0" xMax="820" yMax="1368">
      <contour>
        <pt x="368" y="0" on="1"/>
        <pt x="328" y="0" on="0"/>
        <pt x="328" y="0" on="0"/>
        <pt x="328" y="38" on="1"/>
        <pt x="328" y="76" on="0"/>
        <pt x="328" y="76" on="0"/>
        <pt x="368" y="76" on="1"/>
        <pt x="404" y="76" on="0"/>
        <pt x="463" y="76" on="0"/>
        <pt x="490" y="76" on="1"/>
        <pt x="518" y="76" on="0"/>
        <pt x="578" y="76" on="0"/>
        <pt x="616" y="76" on="1"/>
        <pt x="656" y="76" on="0"/>
        <pt x="656" y="76" on="0"/>
        <pt x="656" y="37" on="1"/>
        <pt x="656" y="0" on="0"/>
        <pt x="656" y="0" on="0"/>
        <pt x="616" y="0" on="1"/>
        <pt x="578" y="0" on="0"/>
        <pt x="518" y="0" on="0"/>
        <pt x="490" y="0" on="1"/>
        <pt x="463" y="0" on="0"/>
        <pt x="404" y="0" on="0"/>
      </contour>
      <contour>
        <pt x="368" y="76" on="1"/>
        <pt x="328" y="76" on="0"/>
        <pt x="328" y="76" on="0"/>
        <pt x="328" y="114" on="1"/>
        <pt x="328" y="152" on="0"/>
        <pt x="328" y="152" on="0"/>
        <pt x="368" y="152" on="1"/>
        <pt x="404" y="152" on="0"/>
        <pt x="463" y="152" on="0"/>
        <pt x="490" y="152" on="1"/>
        <pt x="518" y="152" on="0"/>
        <pt x="578" y="152" on="0"/>
        <pt x="616" y="152" on="1"/>
        <pt x="656" y="152" on="0"/>
        <pt x="656" y="152" on="0"/>
        <pt x="656" y="113" on="1"/>
        <pt x="656" y="76" on="0"/>
        <pt x="656" y="76" on="0"/>
        <pt x="616" y="76" on="1"/>
        <pt x="578" y="76" on="0"/>
        <pt x="518" y="76" on="0"/>
        <pt x="490" y="76" on="1"/>
        <pt x="463" y="76" on="0"/>
        <pt x="404" y="76" on="0"/>
      </contour>
      <contour>
        <pt x="368" y="608" on="1"/>
        <pt x="328" y="608" on="0"/>
        <pt x="328" y="608" on="0"/>
        <pt x="328" y="646" on="1"/>
        <pt x="328" y="684" on="0"/>
        <pt x="328" y="684" on="0"/>
        <pt x="368" y="684" on="1"/>
        <pt x="442" y="684" on="0"/>
        <pt x="460" y="684" on="0"/>
        <pt x="534" y="684" on="1"/>
        <pt x="574" y="684" on="0"/>
        <pt x="574" y="684" on="0"/>
        <pt x="574" y="645" on="1"/>
        <pt x="574" y="608" on="0"/>
        <pt x="574" y="608" on="0"/>
        <pt x="534" y="608" on="1"/>
        <pt x="460" y="608" on="0"/>
        <pt x="442" y="608" on="0"/>
      </contour>
      <contour>
        <pt x="368" y="684" on="1"/>
        <pt x="328" y="684" on="0"/>
        <pt x="328" y="684" on="0"/>
        <pt x="328" y="722" on="1"/>
        <pt x="328" y="760" on="0"/>
        <pt x="328" y="760" on="0"/>
        <pt x="368" y="760" on="1"/>
        <pt x="442" y="760" on="0"/>
        <pt x="460" y="760" on="0"/>
        <pt x="534" y="760" on="1"/>
        <pt x="574" y="760" on="0"/>
        <pt x="574" y="760" on="0"/>
        <pt x="574" y="721" on="1"/>
        <pt x="574" y="684" on="0"/>
        <pt x="574" y="684" on="0"/>
        <pt x="534" y="684" on="1"/>
        <pt x="460" y="684" on="0"/>
        <pt x="442" y="684" on="0"/>
      </contour>
      <contour>
        <pt x="368" y="1216" on="1"/>
        <pt x="328" y="1216" on="0"/>
        <pt x="328" y="1216" on="0"/>
        <pt x="328" y="1254" on="1"/>
        <pt x="328" y="1292" on="0"/>
        <pt x="328" y="1292" on="0"/>
        <pt x="368" y="1292" on="1"/>
        <pt x="404" y="1292" on="0"/>
        <pt x="462" y="1292" on="0"/>
        <pt x="489" y="1292" on="1"/>
        <pt x="517" y="1292" on="0"/>
        <pt x="578" y="1292" on="0"/>
        <pt x="616" y="1292" on="1"/>
        <pt x="656" y="1292" on="0"/>
        <pt x="656" y="1292" on="0"/>
        <pt x="656" y="1253" on="1"/>
        <pt x="656" y="1216" on="0"/>
        <pt x="656" y="1216" on="0"/>
        <pt x="616" y="1216" on="1"/>
        <pt x="578" y="1216" on="0"/>
        <pt x="517" y="1216" on="0"/>
        <pt x="489" y="1216" on="1"/>
        <pt x="462" y="1216" on="0"/>
        <pt x="404" y="1216" on="0"/>
      </contour>
      <contour>
        <pt x="368" y="1292" on="1"/>
        <pt x="328" y="1292" on="0"/>
        <pt x="328" y="1292" on="0"/>
        <pt x="328" y="1330" on="1"/>
        <pt x="328" y="1368" on="0"/>
        <pt x="328" y="1368" on="0"/>
        <pt x="368" y="1368" on="1"/>
        <pt x="404" y="1368" on="0"/>
        <pt x="462" y="1368" on="0"/>
        <pt x="489" y="1368" on="1"/>
        <pt x="517" y="1368" on="0"/>
        <pt x="578" y="1368" on="0"/>
        <pt x="616" y="1368" on="1"/>
        <pt x="656" y="1368" on="0"/>
        <pt x="656" y="1368" on="0"/>
        <pt x="656" y="1329" on="1"/>
        <pt x="656" y="1292" on="0"/>
        <pt x="656" y="1292" on="0"/>
        <pt x="616" y="1292" on="1"/>
        <pt x="578" y="1292" on="0"/>
        <pt x="517" y="1292" on="0"/>
        <pt x="489" y="1292" on="1"/>
        <pt x="462" y="1292" on="0"/>
        <pt x="404" y="1292" on="0"/>
      </contour>
      <contour>
        <pt x="205" y="608" on="1"/>
        <pt x="164" y="608" on="0"/>
        <pt x="164" y="608" on="0"/>
        <pt x="164" y="646" on="1"/>
        <pt x="164" y="684" on="0"/>
        <pt x="164" y="684" on="0"/>
        <pt x="205" y="684" on="1"/>
        <pt x="246" y="684" on="0"/>
        <pt x="246" y="684" on="0"/>
        <pt x="246" y="646" on="1"/>
        <pt x="246" y="608" on="0"/>
        <pt x="246" y="608" on="0"/>
      </contour>
      <contour>
        <pt x="287" y="608" on="1"/>
        <pt x="246" y="608" on="0"/>
        <pt x="246" y="608" on="0"/>
        <pt x="246" y="646" on="1"/>
        <pt x="246" y="684" on="0"/>
        <pt x="246" y="684" on="0"/>
        <pt x="287" y="684" on="1"/>
        <pt x="328" y="684" on="0"/>
        <pt x="328" y="684" on="0"/>
        <pt x="328" y="646" on="1"/>
        <pt x="328" y="608" on="0"/>
        <pt x="328" y="608" on="0"/>
      </contour>
      <contour>
        <pt x="205" y="684" on="1"/>
        <pt x="164" y="684" on="0"/>
        <pt x="164" y="684" on="0"/>
        <pt x="164" y="722" on="1"/>
        <pt x="164" y="760" on="0"/>
        <pt x="164" y="760" on="0"/>
        <pt x="205" y="760" on="1"/>
        <pt x="246" y="760" on="0"/>
        <pt x="246" y="760" on="0"/>
        <pt x="246" y="722" on="1"/>
        <pt x="246" y="684" on="0"/>
        <pt x="246" y="684" on="0"/>
      </contour>
      <contour>
        <pt x="287" y="684" on="1"/>
        <pt x="246" y="684" on="0"/>
        <pt x="246" y="684" on="0"/>
        <pt x="246" y="722" on="1"/>
        <pt x="246" y="760" on="0"/>
        <pt x="246" y="760" on="0"/>
        <pt x="287" y="760" on="1"/>
        <pt x="328" y="760" on="0"/>
        <pt x="328" y="760" on="0"/>
        <pt x="328" y="722" on="1"/>
        <pt x="328" y="684" on="0"/>
        <pt x="328" y="684" on="0"/>
      </contour>
      <contour>
        <pt x="205" y="152" on="1"/>
        <pt x="164" y="152" on="0"/>
        <pt x="164" y="152" on="0"/>
        <pt x="164" y="190" on="1"/>
        <pt x="164" y="228" on="0"/>
        <pt x="164" y="265" on="0"/>
        <pt x="164" y="380" on="1"/>
        <pt x="164" y="491" on="0"/>
        <pt x="164" y="532" on="0"/>
        <pt x="164" y="570" on="1"/>
        <pt x="164" y="608" on="0"/>
        <pt x="164" y="608" on="0"/>
        <pt x="205" y="608" on="1"/>
        <pt x="246" y="608" on="0"/>
        <pt x="246" y="608" on="0"/>
        <pt x="246" y="570" on="1"/>
        <pt x="246" y="532" on="0"/>
        <pt x="246" y="490" on="0"/>
        <pt x="246" y="380" on="1"/>
        <pt x="246" y="263" on="0"/>
        <pt x="246" y="228" on="0"/>
        <pt x="246" y="190" on="1"/>
        <pt x="246" y="152" on="0"/>
        <pt x="246" y="152" on="0"/>
      </contour>
      <contour>
        <pt x="287" y="152" on="1"/>
        <pt x="246" y="152" on="0"/>
        <pt x="246" y="152" on="0"/>
        <pt x="246" y="190" on="1"/>
        <pt x="246" y="228" on="0"/>
        <pt x="246" y="265" on="0"/>
        <pt x="246" y="380" on="1"/>
        <pt x="246" y="491" on="0"/>
        <pt x="246" y="532" on="0"/>
        <pt x="246" y="570" on="1"/>
        <pt x="246" y="608" on="0"/>
        <pt x="246" y="608" on="0"/>
        <pt x="287" y="608" on="1"/>
        <pt x="328" y="608" on="0"/>
        <pt x="328" y="608" on="0"/>
        <pt x="328" y="570" on="1"/>
        <pt x="328" y="532" on="0"/>
        <pt x="328" y="490" on="0"/>
        <pt x="328" y="380" on="1"/>
        <pt x="328" y="263" on="0"/>
        <pt x="328" y="228" on="0"/>
        <pt x="328" y="190" on="1"/>
        <pt x="328" y="152" on="0"/>
        <pt x="328" y="152" on="0"/>
      </contour>
      <contour>
        <pt x="205" y="760" on="1"/>
        <pt x="164" y="760" on="0"/>
        <pt x="164" y="760" on="0"/>
        <pt x="164" y="798" on="1"/>
        <pt x="164" y="836" on="0"/>
        <pt x="164" y="877" on="0"/>
        <pt x="164" y="992" on="1"/>
        <pt x="164" y="1103" on="0"/>
        <pt x="164" y="1140" on="0"/>
        <pt x="164" y="1178" on="1"/>
        <pt x="164" y="1216" on="0"/>
        <pt x="164" y="1216" on="0"/>
        <pt x="205" y="1216" on="1"/>
        <pt x="246" y="1216" on="0"/>
        <pt x="246" y="1216" on="0"/>
        <pt x="246" y="1178" on="1"/>
        <pt x="246" y="1140" on="0"/>
        <pt x="246" y="1102" on="0"/>
        <pt x="246" y="992" on="1"/>
        <pt x="246" y="875" on="0"/>
        <pt x="246" y="836" on="0"/>
        <pt x="246" y="798" on="1"/>
        <pt x="246" y="760" on="0"/>
        <pt x="246" y="760" on="0"/>
      </contour>
      <contour>
        <pt x="287" y="760" on="1"/>
        <pt x="246" y="760" on="0"/>
        <pt x="246" y="760" on="0"/>
        <pt x="246" y="798" on="1"/>
        <pt x="246" y="836" on="0"/>
        <pt x="246" y="877" on="0"/>
        <pt x="246" y="992" on="1"/>
        <pt x="246" y="1103" on="0"/>
        <pt x="246" y="1140" on="0"/>
        <pt x="246" y="1178" on="1"/>
        <pt x="246" y="1216" on="0"/>
        <pt x="246" y="1216" on="0"/>
        <pt x="287" y="1216" on="1"/>
        <pt x="328" y="1216" on="0"/>
        <pt x="328" y="1216" on="0"/>
        <pt x="328" y="1178" on="1"/>
        <pt x="328" y="1140" on="0"/>
        <pt x="328" y="1102" on="0"/>
        <pt x="328" y="992" on="1"/>
        <pt x="328" y="875" on="0"/>
        <pt x="328" y="836" on="0"/>
        <pt x="328" y="798" on="1"/>
        <pt x="328" y="760" on="0"/>
        <pt x="328" y="760" on="0"/>
      </contour>
      <contour>
        <pt x="205" y="1216" on="1"/>
        <pt x="164" y="1216" on="0"/>
        <pt x="164" y="1216" on="0"/>
        <pt x="164" y="1254" on="1"/>
        <pt x="164" y="1292" on="0"/>
        <pt x="164" y="1292" on="0"/>
        <pt x="205" y="1292" on="1"/>
        <pt x="246" y="1292" on="0"/>
        <pt x="246" y="1292" on="0"/>
        <pt x="246" y="1254" on="1"/>
        <pt x="246" y="1216" on="0"/>
        <pt x="246" y="1216" on="0"/>
      </contour>
      <contour>
        <pt x="287" y="1216" on="1"/>
        <pt x="246" y="1216" on="0"/>
        <pt x="246" y="1216" on="0"/>
        <pt x="246" y="1254" on="1"/>
        <pt x="246" y="1292" on="0"/>
        <pt x="246" y="1292" on="0"/>
        <pt x="287" y="1292" on="1"/>
        <pt x="328" y="1292" on="0"/>
        <pt x="328" y="1292" on="0"/>
        <pt x="328" y="1254" on="1"/>
        <pt x="328" y="1216" on="0"/>
        <pt x="328" y="1216" on="0"/>
      </contour>
      <contour>
        <pt x="205" y="1292" on="1"/>
        <pt x="164" y="1292" on="0"/>
        <pt x="164" y="1292" on="0"/>
        <pt x="164" y="1330" on="1"/>
        <pt x="164" y="1368" on="0"/>
        <pt x="164" y="1368" on="0"/>
        <pt x="205" y="1368" on="1"/>
        <pt x="246" y="1368" on="0"/>
        <pt x="246" y="1368" on="0"/>
        <pt x="246" y="1330" on="1"/>
        <pt x="246" y="1292" on="0"/>
        <pt x="246" y="1292" on="0"/>
      </contour>
      <contour>
        <pt x="287" y="1292" on="1"/>
        <pt x="246" y="1292" on="0"/>
        <pt x="246" y="1292" on="0"/>
        <pt x="246" y="1330" on="1"/>
        <pt x="246" y="1368" on="0"/>
        <pt x="246" y="1368" on="0"/>
        <pt x="287" y="1368" on="1"/>
        <pt x="328" y="1368" on="0"/>
        <pt x="328" y="1368" on="0"/>
        <pt x="328" y="1330" on="1"/>
        <pt x="328" y="1292" on="0"/>
        <pt x="328" y="1292" on="0"/>
      </contour>
      <contour>
        <pt x="205" y="0" on="1"/>
        <pt x="164" y="0" on="0"/>
        <pt x="164" y="0" on="0"/>
        <pt x="164" y="38" on="1"/>
        <pt x="164" y="76" on="0"/>
        <pt x="164" y="76" on="0"/>
        <pt x="205" y="76" on="1"/>
        <pt x="246" y="76" on="0"/>
        <pt x="246" y="76" on="0"/>
        <pt x="246" y="38" on="1"/>
        <pt x="246" y="0" on="0"/>
        <pt x="246" y="0" on="0"/>
      </contour>
      <contour>
        <pt x="287" y="0" on="1"/>
        <pt x="246" y="0" on="0"/>
        <pt x="246" y="0" on="0"/>
        <pt x="246" y="38" on="1"/>
        <pt x="246" y="76" on="0"/>
        <pt x="246" y="76" on="0"/>
        <pt x="287" y="76" on="1"/>
        <pt x="328" y="76" on="0"/>
        <pt x="328" y="76" on="0"/>
        <pt x="328" y="38" on="1"/>
        <pt x="328" y="0" on="0"/>
        <pt x="328" y="0" on="0"/>
      </contour>
      <contour>
        <pt x="205" y="76" on="1"/>
        <pt x="164" y="76" on="0"/>
        <pt x="164" y="76" on="0"/>
        <pt x="164" y="114" on="1"/>
        <pt x="164" y="152" on="0"/>
        <pt x="164" y="152" on="0"/>
        <pt x="205" y="152" on="1"/>
        <pt x="246" y="152" on="0"/>
        <pt x="246" y="152" on="0"/>
        <pt x="246" y="114" on="1"/>
        <pt x="246" y="76" on="0"/>
        <pt x="246" y="76" on="0"/>
      </contour>
      <contour>
        <pt x="287" y="76" on="1"/>
        <pt x="246" y="76" on="0"/>
        <pt x="246" y="76" on="0"/>
        <pt x="246" y="114" on="1"/>
        <pt x="246" y="152" on="0"/>
        <pt x="246" y="152" on="0"/>
        <pt x="287" y="152" on="1"/>
        <pt x="328" y="152" on="0"/>
        <pt x="328" y="152" on="0"/>
        <pt x="328" y="114" on="1"/>
        <pt x="328" y="76" on="0"/>
        <pt x="328" y="76" on="0"/>
      </contour>
      <contour>
        <pt x="697" y="0" on="1"/>
        <pt x="656" y="0" on="0"/>
        <pt x="656" y="0" on="0"/>
        <pt x="656" y="38" on="1"/>
        <pt x="656" y="76" on="0"/>
        <pt x="656" y="76" on="0"/>
        <pt x="697" y="76" on="1"/>
        <pt x="738" y="76" on="0"/>
        <pt x="738" y="76" on="0"/>
        <pt x="738" y="38" on="1"/>
        <pt x="738" y="0" on="0"/>
        <pt x="738" y="0" on="0"/>
      </contour>
      <contour>
        <pt x="779" y="0" on="1"/>
        <pt x="738" y="0" on="0"/>
        <pt x="738" y="0" on="0"/>
        <pt x="738" y="38" on="1"/>
        <pt x="738" y="76" on="0"/>
        <pt x="738" y="76" on="0"/>
        <pt x="779" y="76" on="1"/>
        <pt x="820" y="76" on="0"/>
        <pt x="820" y="76" on="0"/>
        <pt x="820" y="38" on="1"/>
        <pt x="820" y="0" on="0"/>
        <pt x="820" y="0" on="0"/>
      </contour>
      <contour>
        <pt x="697" y="76" on="1"/>
        <pt x="656" y="76" on="0"/>
        <pt x="656" y="76" on="0"/>
        <pt x="656" y="114" on="1"/>
        <pt x="656" y="152" on="0"/>
        <pt x="656" y="152" on="0"/>
        <pt x="697" y="152" on="1"/>
        <pt x="738" y="152" on="0"/>
        <pt x="738" y="152" on="0"/>
        <pt x="738" y="114" on="1"/>
        <pt x="738" y="76" on="0"/>
        <pt x="738" y="76" on="0"/>
      </contour>
      <contour>
        <pt x="779" y="76" on="1"/>
        <pt x="738" y="76" on="0"/>
        <pt x="738" y="76" on="0"/>
        <pt x="738" y="114" on="1"/>
        <pt x="738" y="152" on="0"/>
        <pt x="738" y="152" on="0"/>
        <pt x="779" y="152" on="1"/>
        <pt x="820" y="152" on="0"/>
        <pt x="820" y="152" on="0"/>
        <pt x="820" y="114" on="1"/>
        <pt x="820" y="76" on="0"/>
        <pt x="820" y="76" on="0"/>
      </contour>
      <contour>
        <pt x="615" y="608" on="1"/>
        <pt x="574" y="608" on="0"/>
        <pt x="574" y="608" on="0"/>
        <pt x="574" y="646" on="1"/>
        <pt x="574" y="684" on="0"/>
        <pt x="574" y="684" on="0"/>
        <pt x="615" y="684" on="1"/>
        <pt x="656" y="684" on="0"/>
        <pt x="656" y="684" on="0"/>
        <pt x="656" y="646" on="1"/>
        <pt x="656" y="608" on="0"/>
        <pt x="656" y="608" on="0"/>
      </contour>
      <contour>
        <pt x="697" y="608" on="1"/>
        <pt x="656" y="608" on="0"/>
        <pt x="656" y="608" on="0"/>
        <pt x="656" y="646" on="1"/>
        <pt x="656" y="684" on="0"/>
        <pt x="656" y="684" on="0"/>
        <pt x="697" y="684" on="1"/>
        <pt x="738" y="684" on="0"/>
        <pt x="738" y="684" on="0"/>
        <pt x="738" y="646" on="1"/>
        <pt x="738" y="608" on="0"/>
        <pt x="738" y="608" on="0"/>
      </contour>
      <contour>
        <pt x="615" y="684" on="1"/>
        <pt x="574" y="684" on="0"/>
        <pt x="574" y="684" on="0"/>
        <pt x="574" y="722" on="1"/>
        <pt x="574" y="760" on="0"/>
        <pt x="574" y="760" on="0"/>
        <pt x="615" y="760" on="1"/>
        <pt x="656" y="760" on="0"/>
        <pt x="656" y="760" on="0"/>
        <pt x="656" y="722" on="1"/>
        <pt x="656" y="684" on="0"/>
        <pt x="656" y="684" on="0"/>
      </contour>
      <contour>
        <pt x="697" y="684" on="1"/>
        <pt x="656" y="684" on="0"/>
        <pt x="656" y="684" on="0"/>
        <pt x="656" y="722" on="1"/>
        <pt x="656" y="760" on="0"/>
        <pt x="656" y="760" on="0"/>
        <pt x="697" y="760" on="1"/>
        <pt x="738" y="760" on="0"/>
        <pt x="738" y="760" on="0"/>
        <pt x="738" y="722" on="1"/>
        <pt x="738" y="684" on="0"/>
        <pt x="738" y="684" on="0"/>
      </contour>
      <contour>
        <pt x="697" y="1216" on="1"/>
        <pt x="656" y="1216" on="0"/>
        <pt x="656" y="1216" on="0"/>
        <pt x="656" y="1254" on="1"/>
        <pt x="656" y="1292" on="0"/>
        <pt x="656" y="1292" on="0"/>
        <pt x="697" y="1292" on="1"/>
        <pt x="738" y="1292" on="0"/>
        <pt x="738" y="1292" on="0"/>
        <pt x="738" y="1254" on="1"/>
        <pt x="738" y="1216" on="0"/>
        <pt x="738" y="1216" on="0"/>
      </contour>
      <contour>
        <pt x="779" y="1216" on="1"/>
        <pt x="738" y="1216" on="0"/>
        <pt x="738" y="1216" on="0"/>
        <pt x="738" y="1254" on="1"/>
        <pt x="738" y="1292" on="0"/>
        <pt x="738" y="1292" on="0"/>
        <pt x="779" y="1292" on="1"/>
        <pt x="820" y="1292" on="0"/>
        <pt x="820" y="1292" on="0"/>
        <pt x="820" y="1254" on="1"/>
        <pt x="820" y="1216" on="0"/>
        <pt x="820" y="1216" on="0"/>
      </contour>
      <contour>
        <pt x="697" y="1292" on="1"/>
        <pt x="656" y="1292" on="0"/>
        <pt x="656" y="1292" on="0"/>
        <pt x="656" y="1330" on="1"/>
        <pt x="656" y="1368" on="0"/>
        <pt x="656" y="1368" on="0"/>
        <pt x="697" y="1368" on="1"/>
        <pt x="738" y="1368" on="0"/>
        <pt x="738" y="1368" on="0"/>
        <pt x="738" y="1330" on="1"/>
        <pt x="738" y="1292" on="0"/>
        <pt x="738" y="1292" on="0"/>
      </contour>
      <contour>
        <pt x="779" y="1292" on="1"/>
        <pt x="738" y="1292" on="0"/>
        <pt x="738" y="1292" on="0"/>
        <pt x="738" y="1330" on="1"/>
        <pt x="738" y="1368" on="0"/>
        <pt x="738" y="1368" on="0"/>
        <pt x="779" y="1368" on="1"/>
        <pt x="820" y="1368" on="0"/>
        <pt x="820" y="1368" on="0"/>
        <pt x="820" y="1330" on="1"/>
        <pt x="820" y="1292" on="0"/>
        <pt x="820" y="1292" on="0"/>
      </contour>
      <contour>
        <pt x="615" y="608" on="1"/>
        <pt x="574" y="608" on="0"/>
        <pt x="574" y="608" on="0"/>
        <pt x="574" y="646" on="1"/>
        <pt x="574" y="684" on="0"/>
        <pt x="574" y="684" on="0"/>
        <pt x="615" y="684" on="1"/>
        <pt x="656" y="684" on="0"/>
        <pt x="656" y="684" on="0"/>
        <pt x="656" y="646" on="1"/>
        <pt x="656" y="608" on="0"/>
        <pt x="656" y="608" on="0"/>
      </contour>
      <contour>
        <pt x="697" y="608" on="1"/>
        <pt x="656" y="608" on="0"/>
        <pt x="656" y="608" on="0"/>
        <pt x="656" y="646" on="1"/>
        <pt x="656" y="684" on="0"/>
        <pt x="656" y="684" on="0"/>
        <pt x="697" y="684" on="1"/>
        <pt x="738" y="684" on="0"/>
        <pt x="738" y="684" on="0"/>
        <pt x="738" y="646" on="1"/>
        <pt x="738" y="608" on="0"/>
        <pt x="738" y="608" on="0"/>
      </contour>
      <contour>
        <pt x="615" y="684" on="1"/>
        <pt x="574" y="684" on="0"/>
        <pt x="574" y="684" on="0"/>
        <pt x="574" y="722" on="1"/>
        <pt x="574" y="760" on="0"/>
        <pt x="574" y="760" on="0"/>
        <pt x="615" y="760" on="1"/>
        <pt x="656" y="760" on="0"/>
        <pt x="656" y="760" on="0"/>
        <pt x="656" y="722" on="1"/>
        <pt x="656" y="684" on="0"/>
        <pt x="656" y="684" on="0"/>
      </contour>
      <contour>
        <pt x="697" y="684" on="1"/>
        <pt x="656" y="684" on="0"/>
        <pt x="656" y="684" on="0"/>
        <pt x="656" y="722" on="1"/>
        <pt x="656" y="760" on="0"/>
        <pt x="656" y="760" on="0"/>
        <pt x="697" y="760" on="1"/>
        <pt x="738" y="760" on="0"/>
        <pt x="738" y="760" on="0"/>
        <pt x="738" y="722" on="1"/>
        <pt x="738" y="684" on="0"/>
        <pt x="738" y="684" on="0"/>
      </contour>
    </TTGlyph>
    <TTGlyph name="Eth" xMin="104" yMin="0" xMax="1226" yMax="1401">
      <contour>
        <pt x="386" y="1400" on="1"/>
        <pt x="386" y="0" on="1"/>
        <pt x="220" y="0" on="1"/>
        <pt x="220" y="1400" on="1"/>
      </contour>
      <contour>
        <pt x="501" y="1401" on="1"/>
        <pt x="827" y="1401" on="0"/>
        <pt x="1226" y="1017" on="0"/>
        <pt x="1226" y="700" on="1"/>
        <pt x="1226" y="384" on="0"/>
        <pt x="827" y="0" on="0"/>
        <pt x="501" y="0" on="1"/>
        <pt x="302" y="0" on="1"/>
        <pt x="302" y="152" on="1"/>
        <pt x="501" y="152" on="1"/>
        <pt x="749" y="152" on="0"/>
        <pt x="1054" y="440" on="0"/>
        <pt x="1054" y="700" on="1"/>
        <pt x="1054" y="961" on="0"/>
        <pt x="749" y="1247" on="0"/>
        <pt x="501" y="1246" on="1"/>
        <pt x="319" y="1246" on="1"/>
        <pt x="319" y="1401" on="1"/>
      </contour>
      <contour>
        <pt x="104" y="777" on="1"/>
        <pt x="718" y="777" on="1"/>
        <pt x="718" y="700" on="1"/>
        <pt x="104" y="700" on="1"/>
      </contour>
      <contour>
        <pt x="104" y="700" on="1"/>
        <pt x="718" y="700" on="1"/>
        <pt x="718" y="623" on="1"/>
        <pt x="104" y="623" on="1"/>
      </contour>
    </TTGlyph>
    <TTGlyph name="F" xMin="164" yMin="0" xMax="738" yMax="1368">
      <contour>
        <pt x="453" y="684" on="1"/>
        <pt x="493" y="684" on="0"/>
        <pt x="493" y="684" on="0"/>
        <pt x="493" y="645" on="1"/>
        <pt x="493" y="608" on="0"/>
        <pt x="493" y="608" on="0"/>
        <pt x="453" y="608" on="1"/>
        <pt x="409" y="608" on="0"/>
        <pt x="409" y="608" on="0"/>
        <pt x="368" y="608" on="1"/>
        <pt x="328" y="608" on="0"/>
        <pt x="328" y="608" on="0"/>
        <pt x="328" y="646" on="1"/>
        <pt x="328" y="684" on="0"/>
        <pt x="328" y="684" on="0"/>
        <pt x="368" y="684" on="1"/>
        <pt x="409" y="684" on="0"/>
        <pt x="409" y="684" on="0"/>
      </contour>
      <contour>
        <pt x="453" y="760" on="1"/>
        <pt x="493" y="760" on="0"/>
        <pt x="493" y="760" on="0"/>
        <pt x="493" y="721" on="1"/>
        <pt x="493" y="684" on="0"/>
        <pt x="493" y="684" on="0"/>
        <pt x="453" y="684" on="1"/>
        <pt x="409" y="684" on="0"/>
        <pt x="409" y="684" on="0"/>
        <pt x="368" y="684" on="1"/>
        <pt x="328" y="684" on="0"/>
        <pt x="328" y="684" on="0"/>
        <pt x="328" y="722" on="1"/>
        <pt x="328" y="760" on="0"/>
        <pt x="328" y="760" on="0"/>
        <pt x="368" y="760" on="1"/>
        <pt x="409" y="760" on="0"/>
        <pt x="409" y="760" on="0"/>
      </contour>
      <contour>
        <pt x="534" y="1292" on="1"/>
        <pt x="574" y="1292" on="0"/>
        <pt x="574" y="1292" on="0"/>
        <pt x="574" y="1253" on="1"/>
        <pt x="574" y="1216" on="0"/>
        <pt x="574" y="1216" on="0"/>
        <pt x="534" y="1216" on="1"/>
        <pt x="511" y="1216" on="0"/>
        <pt x="468" y="1216" on="0"/>
        <pt x="447" y="1216" on="1"/>
        <pt x="428" y="1216" on="0"/>
        <pt x="389" y="1216" on="0"/>
        <pt x="368" y="1216" on="1"/>
        <pt x="328" y="1216" on="0"/>
        <pt x="328" y="1216" on="0"/>
        <pt x="328" y="1254" on="1"/>
        <pt x="328" y="1292" on="0"/>
        <pt x="328" y="1292" on="0"/>
        <pt x="368" y="1292" on="1"/>
        <pt x="389" y="1292" on="0"/>
        <pt x="428" y="1292" on="0"/>
        <pt x="447" y="1292" on="1"/>
        <pt x="468" y="1292" on="0"/>
        <pt x="511" y="1292" on="0"/>
      </contour>
      <contour>
        <pt x="534" y="1368" on="1"/>
        <pt x="574" y="1368" on="0"/>
        <pt x="574" y="1368" on="0"/>
        <pt x="574" y="1329" on="1"/>
        <pt x="574" y="1292" on="0"/>
        <pt x="574" y="1292" on="0"/>
        <pt x="534" y="1292" on="1"/>
        <pt x="511" y="1292" on="0"/>
        <pt x="468" y="1292" on="0"/>
        <pt x="447" y="1292" on="1"/>
        <pt x="428" y="1292" on="0"/>
        <pt x="389" y="1292" on="0"/>
        <pt x="368" y="1292" on="1"/>
        <pt x="328" y="1292" on="0"/>
        <pt x="328" y="1292" on="0"/>
        <pt x="328" y="1330" on="1"/>
        <pt x="328" y="1368" on="0"/>
        <pt x="328" y="1368" on="0"/>
        <pt x="368" y="1368" on="1"/>
        <pt x="389" y="1368" on="0"/>
        <pt x="428" y="1368" on="0"/>
        <pt x="447" y="1368" on="1"/>
        <pt x="468" y="1368" on="0"/>
        <pt x="511" y="1368" on="0"/>
      </contour>
      <contour>
        <pt x="205" y="1216" on="1"/>
        <pt x="164" y="1216" on="0"/>
        <pt x="164" y="1216" on="0"/>
        <pt x="164" y="1254" on="1"/>
        <pt x="164" y="1292" on="0"/>
        <pt x="164" y="1292" on="0"/>
        <pt x="205" y="1292" on="1"/>
        <pt x="246" y="1292" on="0"/>
        <pt x="246" y="1292" on="0"/>
        <pt x="246" y="1254" on="1"/>
        <pt x="246" y="1216" on="0"/>
        <pt x="246" y="1216" on="0"/>
      </contour>
      <contour>
        <pt x="287" y="1216" on="1"/>
        <pt x="246" y="1216" on="0"/>
        <pt x="246" y="1216" on="0"/>
        <pt x="246" y="1254" on="1"/>
        <pt x="246" y="1292" on="0"/>
        <pt x="246" y="1292" on="0"/>
        <pt x="287" y="1292" on="1"/>
        <pt x="328" y="1292" on="0"/>
        <pt x="328" y="1292" on="0"/>
        <pt x="328" y="1254" on="1"/>
        <pt x="328" y="1216" on="0"/>
        <pt x="328" y="1216" on="0"/>
      </contour>
      <contour>
        <pt x="205" y="1292" on="1"/>
        <pt x="164" y="1292" on="0"/>
        <pt x="164" y="1292" on="0"/>
        <pt x="164" y="1330" on="1"/>
        <pt x="164" y="1368" on="0"/>
        <pt x="164" y="1368" on="0"/>
        <pt x="205" y="1368" on="1"/>
        <pt x="246" y="1368" on="0"/>
        <pt x="246" y="1368" on="0"/>
        <pt x="246" y="1330" on="1"/>
        <pt x="246" y="1292" on="0"/>
        <pt x="246" y="1292" on="0"/>
      </contour>
      <contour>
        <pt x="287" y="1292" on="1"/>
        <pt x="246" y="1292" on="0"/>
        <pt x="246" y="1292" on="0"/>
        <pt x="246" y="1330" on="1"/>
        <pt x="246" y="1368" on="0"/>
        <pt x="246" y="1368" on="0"/>
        <pt x="287" y="1368" on="1"/>
        <pt x="328" y="1368" on="0"/>
        <pt x="328" y="1368" on="0"/>
        <pt x="328" y="1330" on="1"/>
        <pt x="328" y="1292" on="0"/>
        <pt x="328" y="1292" on="0"/>
      </contour>
      <contour>
        <pt x="205" y="0" on="1"/>
        <pt x="164" y="0" on="0"/>
        <pt x="164" y="0" on="0"/>
        <pt x="164" y="38" on="1"/>
        <pt x="164" y="76" on="0"/>
        <pt x="164" y="76" on="0"/>
        <pt x="205" y="76" on="1"/>
        <pt x="246" y="76" on="0"/>
        <pt x="246" y="76" on="0"/>
        <pt x="246" y="38" on="1"/>
        <pt x="246" y="0" on="0"/>
        <pt x="246" y="0" on="0"/>
      </contour>
      <contour>
        <pt x="287" y="0" on="1"/>
        <pt x="246" y="0" on="0"/>
        <pt x="246" y="0" on="0"/>
        <pt x="246" y="38" on="1"/>
        <pt x="246" y="76" on="0"/>
        <pt x="246" y="76" on="0"/>
        <pt x="287" y="76" on="1"/>
        <pt x="328" y="76" on="0"/>
        <pt x="328" y="76" on="0"/>
        <pt x="328" y="38" on="1"/>
        <pt x="328" y="0" on="0"/>
        <pt x="328" y="0" on="0"/>
      </contour>
      <contour>
        <pt x="205" y="76" on="1"/>
        <pt x="164" y="76" on="0"/>
        <pt x="164" y="76" on="0"/>
        <pt x="164" y="114" on="1"/>
        <pt x="164" y="152" on="0"/>
        <pt x="164" y="152" on="0"/>
        <pt x="205" y="152" on="1"/>
        <pt x="246" y="152" on="0"/>
        <pt x="246" y="152" on="0"/>
        <pt x="246" y="114" on="1"/>
        <pt x="246" y="76" on="0"/>
        <pt x="246" y="76" on="0"/>
      </contour>
      <contour>
        <pt x="287" y="76" on="1"/>
        <pt x="246" y="76" on="0"/>
        <pt x="246" y="76" on="0"/>
        <pt x="246" y="114" on="1"/>
        <pt x="246" y="152" on="0"/>
        <pt x="246" y="152" on="0"/>
        <pt x="287" y="152" on="1"/>
        <pt x="328" y="152" on="0"/>
        <pt x="328" y="152" on="0"/>
        <pt x="328" y="114" on="1"/>
        <pt x="328" y="76" on="0"/>
        <pt x="328" y="76" on="0"/>
      </contour>
      <contour>
        <pt x="205" y="152" on="1"/>
        <pt x="164" y="152" on="0"/>
        <pt x="164" y="152" on="0"/>
        <pt x="164" y="190" on="1"/>
        <pt x="164" y="228" on="0"/>
        <pt x="164" y="265" on="0"/>
        <pt x="164" y="380" on="1"/>
        <pt x="164" y="491" on="0"/>
        <pt x="164" y="532" on="0"/>
        <pt x="164" y="570" on="1"/>
        <pt x="164" y="608" on="0"/>
        <pt x="164" y="608" on="0"/>
        <pt x="205" y="608" on="1"/>
        <pt x="246" y="608" on="0"/>
        <pt x="246" y="608" on="0"/>
        <pt x="246" y="570" on="1"/>
        <pt x="246" y="532" on="0"/>
        <pt x="246" y="490" on="0"/>
        <pt x="246" y="380" on="1"/>
        <pt x="246" y="263" on="0"/>
        <pt x="246" y="228" on="0"/>
        <pt x="246" y="190" on="1"/>
        <pt x="246" y="152" on="0"/>
        <pt x="246" y="152" on="0"/>
      </contour>
      <contour>
        <pt x="287" y="152" on="1"/>
        <pt x="246" y="152" on="0"/>
        <pt x="246" y="152" on="0"/>
        <pt x="246" y="190" on="1"/>
        <pt x="246" y="228" on="0"/>
        <pt x="246" y="265" on="0"/>
        <pt x="246" y="380" on="1"/>
        <pt x="246" y="491" on="0"/>
        <pt x="246" y="532" on="0"/>
        <pt x="246" y="570" on="1"/>
        <pt x="246" y="608" on="0"/>
        <pt x="246" y="608" on="0"/>
        <pt x="287" y="608" on="1"/>
        <pt x="328" y="608" on="0"/>
        <pt x="328" y="608" on="0"/>
        <pt x="328" y="570" on="1"/>
        <pt x="328" y="532" on="0"/>
        <pt x="328" y="490" on="0"/>
        <pt x="328" y="380" on="1"/>
        <pt x="328" y="263" on="0"/>
        <pt x="328" y="228" on="0"/>
        <pt x="328" y="190" on="1"/>
        <pt x="328" y="152" on="0"/>
        <pt x="328" y="152" on="0"/>
      </contour>
      <contour>
        <pt x="205" y="760" on="1"/>
        <pt x="164" y="760" on="0"/>
        <pt x="164" y="760" on="0"/>
        <pt x="164" y="798" on="1"/>
        <pt x="164" y="836" on="0"/>
        <pt x="164" y="877" on="0"/>
        <pt x="164" y="992" on="1"/>
        <pt x="164" y="1103" on="0"/>
        <pt x="164" y="1140" on="0"/>
        <pt x="164" y="1178" on="1"/>
        <pt x="164" y="1216" on="0"/>
        <pt x="164" y="1216" on="0"/>
        <pt x="205" y="1216" on="1"/>
        <pt x="246" y="1216" on="0"/>
        <pt x="246" y="1216" on="0"/>
        <pt x="246" y="1178" on="1"/>
        <pt x="246" y="1140" on="0"/>
        <pt x="246" y="1102" on="0"/>
        <pt x="246" y="992" on="1"/>
        <pt x="246" y="875" on="0"/>
        <pt x="246" y="836" on="0"/>
        <pt x="246" y="798" on="1"/>
        <pt x="246" y="760" on="0"/>
        <pt x="246" y="760" on="0"/>
      </contour>
      <contour>
        <pt x="287" y="760" on="1"/>
        <pt x="246" y="760" on="0"/>
        <pt x="246" y="760" on="0"/>
        <pt x="246" y="798" on="1"/>
        <pt x="246" y="836" on="0"/>
        <pt x="246" y="877" on="0"/>
        <pt x="246" y="992" on="1"/>
        <pt x="246" y="1103" on="0"/>
        <pt x="246" y="1140" on="0"/>
        <pt x="246" y="1178" on="1"/>
        <pt x="246" y="1216" on="0"/>
        <pt x="246" y="1216" on="0"/>
        <pt x="287" y="1216" on="1"/>
        <pt x="328" y="1216" on="0"/>
        <pt x="328" y="1216" on="0"/>
        <pt x="328" y="1178" on="1"/>
        <pt x="328" y="1140" on="0"/>
        <pt x="328" y="1102" on="0"/>
        <pt x="328" y="992" on="1"/>
        <pt x="328" y="875" on="0"/>
        <pt x="328" y="836" on="0"/>
        <pt x="328" y="798" on="1"/>
        <pt x="328" y="760" on="0"/>
        <pt x="328" y="760" on="0"/>
      </contour>
      <contour>
        <pt x="205" y="608" on="1"/>
        <pt x="164" y="608" on="0"/>
        <pt x="164" y="608" on="0"/>
        <pt x="164" y="646" on="1"/>
        <pt x="164" y="684" on="0"/>
        <pt x="164" y="684" on="0"/>
        <pt x="205" y="684" on="1"/>
        <pt x="246" y="684" on="0"/>
        <pt x="246" y="684" on="0"/>
        <pt x="246" y="646" on="1"/>
        <pt x="246" y="608" on="0"/>
        <pt x="246" y="608" on="0"/>
      </contour>
      <contour>
        <pt x="287" y="608" on="1"/>
        <pt x="246" y="608" on="0"/>
        <pt x="246" y="608" on="0"/>
        <pt x="246" y="646" on="1"/>
        <pt x="246" y="684" on="0"/>
        <pt x="246" y="684" on="0"/>
        <pt x="287" y="684" on="1"/>
        <pt x="328" y="684" on="0"/>
        <pt x="328" y="684" on="0"/>
        <pt x="328" y="646" on="1"/>
        <pt x="328" y="608" on="0"/>
        <pt x="328" y="608" on="0"/>
      </contour>
      <contour>
        <pt x="205" y="684" on="1"/>
        <pt x="164" y="684" on="0"/>
        <pt x="164" y="684" on="0"/>
        <pt x="164" y="722" on="1"/>
        <pt x="164" y="760" on="0"/>
        <pt x="164" y="760" on="0"/>
        <pt x="205" y="760" on="1"/>
        <pt x="246" y="760" on="0"/>
        <pt x="246" y="760" on="0"/>
        <pt x="246" y="722" on="1"/>
        <pt x="246" y="684" on="0"/>
        <pt x="246" y="684" on="0"/>
      </contour>
      <contour>
        <pt x="287" y="684" on="1"/>
        <pt x="246" y="684" on="0"/>
        <pt x="246" y="684" on="0"/>
        <pt x="246" y="722" on="1"/>
        <pt x="246" y="760" on="0"/>
        <pt x="246" y="760" on="0"/>
        <pt x="287" y="760" on="1"/>
        <pt x="328" y="760" on="0"/>
        <pt x="328" y="760" on="0"/>
        <pt x="328" y="722" on="1"/>
        <pt x="328" y="684" on="0"/>
        <pt x="328" y="684" on="0"/>
      </contour>
      <contour>
        <pt x="534" y="608" on="1"/>
        <pt x="493" y="608" on="0"/>
        <pt x="493" y="608" on="0"/>
        <pt x="493" y="646" on="1"/>
        <pt x="493" y="684" on="0"/>
        <pt x="493" y="684" on="0"/>
        <pt x="534" y="684" on="1"/>
        <pt x="575" y="684" on="0"/>
        <pt x="575" y="684" on="0"/>
        <pt x="575" y="646" on="1"/>
        <pt x="575" y="608" on="0"/>
        <pt x="575" y="608" on="0"/>
      </contour>
      <contour>
        <pt x="616" y="608" on="1"/>
        <pt x="575" y="608" on="0"/>
        <pt x="575" y="608" on="0"/>
        <pt x="575" y="646" on="1"/>
        <pt x="575" y="684" on="0"/>
        <pt x="575" y="684" on="0"/>
        <pt x="616" y="684" on="1"/>
        <pt x="657" y="684" on="0"/>
        <pt x="657" y="684" on="0"/>
        <pt x="657" y="646" on="1"/>
        <pt x="657" y="608" on="0"/>
        <pt x="657" y="608" on="0"/>
      </contour>
      <contour>
        <pt x="534" y="684" on="1"/>
        <pt x="493" y="684" on="0"/>
        <pt x="493" y="684" on="0"/>
        <pt x="493" y="722" on="1"/>
        <pt x="493" y="760" on="0"/>
        <pt x="493" y="760" on="0"/>
        <pt x="534" y="760" on="1"/>
        <pt x="575" y="760" on="0"/>
        <pt x="575" y="760" on="0"/>
        <pt x="575" y="722" on="1"/>
        <pt x="575" y="684" on="0"/>
        <pt x="575" y="684" on="0"/>
      </contour>
      <contour>
        <pt x="616" y="684" on="1"/>
        <pt x="575" y="684" on="0"/>
        <pt x="575" y="684" on="0"/>
        <pt x="575" y="722" on="1"/>
        <pt x="575" y="760" on="0"/>
        <pt x="575" y="760" on="0"/>
        <pt x="616" y="760" on="1"/>
        <pt x="657" y="760" on="0"/>
        <pt x="657" y="760" on="0"/>
        <pt x="657" y="722" on="1"/>
        <pt x="657" y="684" on="0"/>
        <pt x="657" y="684" on="0"/>
      </contour>
      <contour>
        <pt x="615" y="1216" on="1"/>
        <pt x="574" y="1216" on="0"/>
        <pt x="574" y="1216" on="0"/>
        <pt x="574" y="1254" on="1"/>
        <pt x="574" y="1292" on="0"/>
        <pt x="574" y="1292" on="0"/>
        <pt x="615" y="1292" on="1"/>
        <pt x="656" y="1292" on="0"/>
        <pt x="656" y="1292" on="0"/>
        <pt x="656" y="1254" on="1"/>
        <pt x="656" y="1216" on="0"/>
        <pt x="656" y="1216" on="0"/>
      </contour>
      <contour>
        <pt x="697" y="1216" on="1"/>
        <pt x="656" y="1216" on="0"/>
        <pt x="656" y="1216" on="0"/>
        <pt x="656" y="1254" on="1"/>
        <pt x="656" y="1292" on="0"/>
        <pt x="656" y="1292" on="0"/>
        <pt x="697" y="1292" on="1"/>
        <pt x="738" y="1292" on="0"/>
        <pt x="738" y="1292" on="0"/>
        <pt x="738" y="1254" on="1"/>
        <pt x="738" y="1216" on="0"/>
        <pt x="738" y="1216" on="0"/>
      </contour>
      <contour>
        <pt x="615" y="1292" on="1"/>
        <pt x="574" y="1292" on="0"/>
        <pt x="574" y="1292" on="0"/>
        <pt x="574" y="1330" on="1"/>
        <pt x="574" y="1368" on="0"/>
        <pt x="574" y="1368" on="0"/>
        <pt x="615" y="1368" on="1"/>
        <pt x="656" y="1368" on="0"/>
        <pt x="656" y="1368" on="0"/>
        <pt x="656" y="1330" on="1"/>
        <pt x="656" y="1292" on="0"/>
        <pt x="656" y="1292" on="0"/>
      </contour>
      <contour>
        <pt x="697" y="1292" on="1"/>
        <pt x="656" y="1292" on="0"/>
        <pt x="656" y="1292" on="0"/>
        <pt x="656" y="1330" on="1"/>
        <pt x="656" y="1368" on="0"/>
        <pt x="656" y="1368" on="0"/>
        <pt x="697" y="1368" on="1"/>
        <pt x="738" y="1368" on="0"/>
        <pt x="738" y="1368" on="0"/>
        <pt x="738" y="1330" on="1"/>
        <pt x="738" y="1292" on="0"/>
        <pt x="738" y="1292" on="0"/>
      </contour>
      <contour>
        <pt x="534" y="608" on="1"/>
        <pt x="493" y="608" on="0"/>
        <pt x="493" y="608" on="0"/>
        <pt x="493" y="646" on="1"/>
        <pt x="493" y="684" on="0"/>
        <pt x="493" y="684" on="0"/>
        <pt x="534" y="684" on="1"/>
        <pt x="575" y="684" on="0"/>
        <pt x="575" y="684" on="0"/>
        <pt x="575" y="646" on="1"/>
        <pt x="575" y="608" on="0"/>
        <pt x="575" y="608" on="0"/>
      </contour>
      <contour>
        <pt x="616" y="608" on="1"/>
        <pt x="575" y="608" on="0"/>
        <pt x="575" y="608" on="0"/>
        <pt x="575" y="646" on="1"/>
        <pt x="575" y="684" on="0"/>
        <pt x="575" y="684" on="0"/>
        <pt x="616" y="684" on="1"/>
        <pt x="657" y="684" on="0"/>
        <pt x="657" y="684" on="0"/>
        <pt x="657" y="646" on="1"/>
        <pt x="657" y="608" on="0"/>
        <pt x="657" y="608" on="0"/>
      </contour>
      <contour>
        <pt x="534" y="684" on="1"/>
        <pt x="493" y="684" on="0"/>
        <pt x="493" y="684" on="0"/>
        <pt x="493" y="722" on="1"/>
        <pt x="493" y="760" on="0"/>
        <pt x="493" y="760" on="0"/>
        <pt x="534" y="760" on="1"/>
        <pt x="575" y="760" on="0"/>
        <pt x="575" y="760" on="0"/>
        <pt x="575" y="722" on="1"/>
        <pt x="575" y="684" on="0"/>
        <pt x="575" y="684" on="0"/>
      </contour>
      <contour>
        <pt x="616" y="684" on="1"/>
        <pt x="575" y="684" on="0"/>
        <pt x="575" y="684" on="0"/>
        <pt x="575" y="722" on="1"/>
        <pt x="575" y="760" on="0"/>
        <pt x="575" y="760" on="0"/>
        <pt x="616" y="760" on="1"/>
        <pt x="657" y="760" on="0"/>
        <pt x="657" y="760" on="0"/>
        <pt x="657" y="722" on="1"/>
        <pt x="657" y="684" on="0"/>
        <pt x="657" y="684" on="0"/>
      </contour>
    </TTGlyph>
    <TTGlyph name="G" xMin="82" yMin="-38" xMax="1148" yMax="1404">
      <contour>
        <pt x="1066" y="412" on="1"/>
        <pt x="1066" y="480" on="0"/>
        <pt x="1066" y="480" on="0"/>
        <pt x="1026" y="480" on="1"/>
        <pt x="984" y="480" on="0"/>
        <pt x="984" y="480" on="0"/>
        <pt x="984" y="412" on="1"/>
        <pt x="984" y="362" on="0"/>
        <pt x="984" y="244" on="0"/>
        <pt x="984" y="209" on="1"/>
        <pt x="984" y="126" on="0"/>
        <pt x="984" y="126" on="0"/>
        <pt x="1022" y="138" on="1"/>
        <pt x="1066" y="156" on="0"/>
        <pt x="1066" y="156" on="0"/>
        <pt x="1066" y="239" on="1"/>
        <pt x="1066" y="264" on="0"/>
        <pt x="1066" y="372" on="0"/>
      </contour>
      <contour>
        <pt x="1148" y="412" on="1"/>
        <pt x="1148" y="480" on="0"/>
        <pt x="1148" y="480" on="0"/>
        <pt x="1107" y="480" on="1"/>
        <pt x="1066" y="480" on="0"/>
        <pt x="1066" y="480" on="0"/>
        <pt x="1066" y="412" on="1"/>
        <pt x="1066" y="372" on="0"/>
        <pt x="1066" y="264" on="0"/>
        <pt x="1066" y="239" on="1"/>
        <pt x="1066" y="156" on="0"/>
        <pt x="1066" y="156" on="0"/>
        <pt x="1107" y="177" on="1"/>
        <pt x="1148" y="206" on="0"/>
        <pt x="1148" y="206" on="0"/>
        <pt x="1148" y="289" on="1"/>
        <pt x="1148" y="297" on="0"/>
        <pt x="1148" y="389" on="0"/>
      </contour>
      <contour>
        <pt x="945" y="1231" on="1"/>
        <pt x="984" y="1219" on="0"/>
        <pt x="984" y="1219" on="0"/>
        <pt x="984" y="1265" on="1"/>
        <pt x="984" y="1305" on="0"/>
        <pt x="984" y="1305" on="0"/>
        <pt x="944" y="1316" on="1"/>
        <pt x="902" y="1322" on="0"/>
        <pt x="902" y="1322" on="0"/>
        <pt x="902" y="1282" on="1"/>
        <pt x="902" y="1241" on="0"/>
        <pt x="902" y="1241" on="0"/>
      </contour>
      <contour>
        <pt x="944" y="1316" on="1"/>
        <pt x="984" y="1305" on="0"/>
        <pt x="984" y="1305" on="0"/>
        <pt x="984" y="1346" on="1"/>
        <pt x="984" y="1386" on="0"/>
        <pt x="984" y="1386" on="0"/>
        <pt x="943" y="1393" on="1"/>
        <pt x="902" y="1399" on="0"/>
        <pt x="902" y="1399" on="0"/>
        <pt x="902" y="1361" on="1"/>
        <pt x="902" y="1322" on="0"/>
        <pt x="902" y="1322" on="0"/>
      </contour>
      <contour>
        <pt x="1026" y="1202" on="1"/>
        <pt x="1066" y="1180" on="0"/>
        <pt x="1066" y="1180" on="0"/>
        <pt x="1066" y="1231" on="1"/>
        <pt x="1066" y="1278" on="0"/>
        <pt x="1066" y="1278" on="0"/>
        <pt x="1025" y="1292" on="1"/>
        <pt x="984" y="1305" on="0"/>
        <pt x="984" y="1305" on="0"/>
        <pt x="984" y="1265" on="1"/>
        <pt x="984" y="1219" on="0"/>
        <pt x="984" y="1219" on="0"/>
      </contour>
      <contour>
        <pt x="1025" y="1292" on="1"/>
        <pt x="1066" y="1278" on="0"/>
        <pt x="1066" y="1278" on="0"/>
        <pt x="1066" y="1328" on="1"/>
        <pt x="1066" y="1367" on="0"/>
        <pt x="1066" y="1367" on="0"/>
        <pt x="1025" y="1378" on="1"/>
        <pt x="984" y="1386" on="0"/>
        <pt x="984" y="1386" on="0"/>
        <pt x="984" y="1346" on="1"/>
        <pt x="984" y="1305" on="0"/>
        <pt x="984" y="1305" on="0"/>
      </contour>
      <contour>
        <pt x="870" y="1324" on="1"/>
        <pt x="841" y="1326" on="0"/>
        <pt x="841" y="1326" on="0"/>
        <pt x="807" y="1326" on="1"/>
        <pt x="518" y="1331" on="0"/>
        <pt x="166" y="987" on="0"/>
        <pt x="166" y="684" on="1"/>
        <pt x="166" y="384" on="0"/>
        <pt x="528" y="35" on="0"/>
        <pt x="807" y="35" on="1"/>
        <pt x="853" y="35" on="0"/>
        <pt x="904" y="39" on="0"/>
        <pt x="947" y="45" on="1"/>
        <pt x="984" y="53" on="0"/>
        <pt x="984" y="53" on="0"/>
        <pt x="984" y="89" on="1"/>
        <pt x="984" y="126" on="0"/>
        <pt x="984" y="126" on="0"/>
        <pt x="947" y="118" on="1"/>
        <pt x="904" y="110" on="0"/>
        <pt x="853" y="107" on="0"/>
        <pt x="807" y="107" on="1"/>
        <pt x="559" y="107" on="0"/>
        <pt x="246" y="418" on="0"/>
        <pt x="246" y="684" on="1"/>
        <pt x="246" y="960" on="0"/>
        <pt x="563" y="1258" on="0"/>
        <pt x="807" y="1249" on="1"/>
        <pt x="841" y="1248" on="0"/>
        <pt x="841" y="1248" on="0"/>
        <pt x="870" y="1245" on="1"/>
        <pt x="902" y="1241" on="0"/>
        <pt x="902" y="1241" on="0"/>
        <pt x="902" y="1282" on="1"/>
        <pt x="902" y="1322" on="0"/>
        <pt x="902" y="1322" on="0"/>
      </contour>
      <contour>
        <pt x="870" y="1402" on="1"/>
        <pt x="841" y="1403" on="0"/>
        <pt x="841" y="1403" on="0"/>
        <pt x="807" y="1404" on="1"/>
        <pt x="481" y="1414" on="0"/>
        <pt x="82" y="1016" on="0"/>
        <pt x="82" y="684" on="1"/>
        <pt x="82" y="352" on="0"/>
        <pt x="491" y="-38" on="0"/>
        <pt x="817" y="-38" on="1"/>
        <pt x="853" y="-38" on="0"/>
        <pt x="904" y="-34" on="0"/>
        <pt x="947" y="-27" on="1"/>
        <pt x="984" y="-20" on="0"/>
        <pt x="984" y="-20" on="0"/>
        <pt x="984" y="16" on="1"/>
        <pt x="984" y="53" on="0"/>
        <pt x="984" y="53" on="0"/>
        <pt x="947" y="45" on="1"/>
        <pt x="904" y="39" on="0"/>
        <pt x="853" y="35" on="0"/>
        <pt x="807" y="35" on="1"/>
        <pt x="528" y="35" on="0"/>
        <pt x="166" y="384" on="0"/>
        <pt x="166" y="684" on="1"/>
        <pt x="166" y="987" on="0"/>
        <pt x="518" y="1331" on="0"/>
        <pt x="807" y="1326" on="1"/>
        <pt x="841" y="1326" on="0"/>
        <pt x="841" y="1326" on="0"/>
        <pt x="870" y="1324" on="1"/>
        <pt x="902" y="1322" on="0"/>
        <pt x="902" y="1322" on="0"/>
        <pt x="902" y="1361" on="1"/>
        <pt x="902" y="1399" on="0"/>
        <pt x="902" y="1399" on="0"/>
      </contour>
      <contour>
        <pt x="1022" y="138" on="1"/>
        <pt x="984" y="126" on="0"/>
        <pt x="984" y="126" on="0"/>
        <pt x="984" y="89" on="1"/>
        <pt x="984" y="53" on="0"/>
        <pt x="984" y="53" on="0"/>
        <pt x="1026" y="65" on="1"/>
        <pt x="1066" y="79" on="0"/>
        <pt x="1066" y="79" on="0"/>
        <pt x="1066" y="115" on="1"/>
        <pt x="1066" y="156" on="0"/>
        <pt x="1066" y="156" on="0"/>
      </contour>
      <contour>
        <pt x="1026" y="65" on="1"/>
        <pt x="984" y="53" on="0"/>
        <pt x="984" y="53" on="0"/>
        <pt x="984" y="16" on="1"/>
        <pt x="984" y="-20" on="0"/>
        <pt x="984" y="-20" on="0"/>
        <pt x="1025" y="-10" on="1"/>
        <pt x="1066" y="3" on="0"/>
        <pt x="1066" y="3" on="0"/>
        <pt x="1066" y="40" on="1"/>
        <pt x="1066" y="79" on="0"/>
        <pt x="1066" y="79" on="0"/>
      </contour>
      <contour>
        <pt x="1107" y="177" on="1"/>
        <pt x="1066" y="156" on="0"/>
        <pt x="1066" y="156" on="0"/>
        <pt x="1066" y="115" on="1"/>
        <pt x="1066" y="79" on="0"/>
        <pt x="1066" y="79" on="0"/>
        <pt x="1107" y="98" on="1"/>
        <pt x="1148" y="122" on="0"/>
        <pt x="1148" y="122" on="0"/>
        <pt x="1148" y="161" on="1"/>
        <pt x="1148" y="206" on="0"/>
        <pt x="1148" y="206" on="0"/>
      </contour>
      <contour>
        <pt x="1107" y="98" on="1"/>
        <pt x="1066" y="79" on="0"/>
        <pt x="1066" y="79" on="0"/>
        <pt x="1066" y="40" on="1"/>
        <pt x="1066" y="3" on="0"/>
        <pt x="1066" y="3" on="0"/>
        <pt x="1107" y="18" on="1"/>
        <pt x="1148" y="37" on="0"/>
        <pt x="1148" y="37" on="0"/>
        <pt x="1148" y="78" on="1"/>
        <pt x="1148" y="122" on="0"/>
        <pt x="1148" y="122" on="0"/>
      </contour>
      <contour>
        <pt x="1025" y="480" on="1"/>
        <pt x="984" y="480" on="0"/>
        <pt x="984" y="480" on="0"/>
        <pt x="984" y="518" on="1"/>
        <pt x="984" y="556" on="0"/>
        <pt x="984" y="556" on="0"/>
        <pt x="1025" y="556" on="1"/>
        <pt x="1066" y="556" on="0"/>
        <pt x="1066" y="556" on="0"/>
        <pt x="1066" y="518" on="1"/>
        <pt x="1066" y="480" on="0"/>
        <pt x="1066" y="480" on="0"/>
      </contour>
      <contour>
        <pt x="1107" y="480" on="1"/>
        <pt x="1066" y="480" on="0"/>
        <pt x="1066" y="480" on="0"/>
        <pt x="1066" y="518" on="1"/>
        <pt x="1066" y="556" on="0"/>
        <pt x="1066" y="556" on="0"/>
        <pt x="1107" y="556" on="1"/>
        <pt x="1148" y="556" on="0"/>
        <pt x="1148" y="556" on="0"/>
        <pt x="1148" y="518" on="1"/>
        <pt x="1148" y="480" on="0"/>
        <pt x="1148" y="480" on="0"/>
      </contour>
      <contour>
        <pt x="1025" y="556" on="1"/>
        <pt x="984" y="556" on="0"/>
        <pt x="984" y="556" on="0"/>
        <pt x="984" y="594" on="1"/>
        <pt x="984" y="632" on="0"/>
        <pt x="984" y="632" on="0"/>
        <pt x="1025" y="632" on="1"/>
        <pt x="1066" y="632" on="0"/>
        <pt x="1066" y="632" on="0"/>
        <pt x="1066" y="594" on="1"/>
        <pt x="1066" y="556" on="0"/>
        <pt x="1066" y="556" on="0"/>
      </contour>
      <contour>
        <pt x="1107" y="556" on="1"/>
        <pt x="1066" y="556" on="0"/>
        <pt x="1066" y="556" on="0"/>
        <pt x="1066" y="594" on="1"/>
        <pt x="1066" y="632" on="0"/>
        <pt x="1066" y="632" on="0"/>
        <pt x="1107" y="632" on="1"/>
        <pt x="1148" y="632" on="0"/>
        <pt x="1148" y="632" on="0"/>
        <pt x="1148" y="594" on="1"/>
        <pt x="1148" y="556" on="0"/>
        <pt x="1148" y="556" on="0"/>
      </contour>
    </TTGlyph>
    <TTGlyph name="H" xMin="164" yMin="0" xMax="1312" yMax="1368">
      <contour>
        <pt x="368" y="608" on="1"/>
        <pt x="328" y="608" on="0"/>
        <pt x="328" y="608" on="0"/>
        <pt x="328" y="646" on="1"/>
        <pt x="328" y="684" on="0"/>
        <pt x="328" y="684" on="0"/>
        <pt x="368" y="684" on="1"/>
        <pt x="486" y="684" on="0"/>
        <pt x="620" y="684" on="0"/>
        <pt x="738" y="684" on="1"/>
        <pt x="856" y="684" on="0"/>
        <pt x="990" y="684" on="0"/>
        <pt x="1108" y="684" on="1"/>
        <pt x="1148" y="684" on="0"/>
        <pt x="1148" y="684" on="0"/>
        <pt x="1148" y="646" on="1"/>
        <pt x="1148" y="608" on="0"/>
        <pt x="1148" y="608" on="0"/>
        <pt x="1108" y="608" on="1"/>
        <pt x="990" y="608" on="0"/>
        <pt x="855" y="608" on="0"/>
        <pt x="738" y="608" on="1"/>
        <pt x="619" y="608" on="0"/>
        <pt x="486" y="608" on="0"/>
      </contour>
      <contour>
        <pt x="368" y="684" on="1"/>
        <pt x="328" y="684" on="0"/>
        <pt x="328" y="684" on="0"/>
        <pt x="328" y="722" on="1"/>
        <pt x="328" y="760" on="0"/>
        <pt x="328" y="760" on="0"/>
        <pt x="368" y="760" on="1"/>
        <pt x="486" y="760" on="0"/>
        <pt x="620" y="760" on="0"/>
        <pt x="738" y="760" on="1"/>
        <pt x="856" y="760" on="0"/>
        <pt x="990" y="760" on="0"/>
        <pt x="1108" y="760" on="1"/>
        <pt x="1148" y="760" on="0"/>
        <pt x="1148" y="760" on="0"/>
        <pt x="1148" y="722" on="1"/>
        <pt x="1148" y="684" on="0"/>
        <pt x="1148" y="684" on="0"/>
        <pt x="1108" y="684" on="1"/>
        <pt x="990" y="684" on="0"/>
        <pt x="855" y="684" on="0"/>
        <pt x="738" y="684" on="1"/>
        <pt x="619" y="684" on="0"/>
        <pt x="486" y="684" on="0"/>
      </contour>
      <contour>
        <pt x="205" y="608" on="1"/>
        <pt x="164" y="608" on="0"/>
        <pt x="164" y="608" on="0"/>
        <pt x="164" y="646" on="1"/>
        <pt x="164" y="684" on="0"/>
        <pt x="164" y="684" on="0"/>
        <pt x="205" y="684" on="1"/>
        <pt x="246" y="684" on="0"/>
        <pt x="246" y="684" on="0"/>
        <pt x="246" y="646" on="1"/>
        <pt x="246" y="608" on="0"/>
        <pt x="246" y="608" on="0"/>
      </contour>
      <contour>
        <pt x="287" y="608" on="1"/>
        <pt x="246" y="608" on="0"/>
        <pt x="246" y="608" on="0"/>
        <pt x="246" y="646" on="1"/>
        <pt x="246" y="684" on="0"/>
        <pt x="246" y="684" on="0"/>
        <pt x="287" y="684" on="1"/>
        <pt x="328" y="684" on="0"/>
        <pt x="328" y="684" on="0"/>
        <pt x="328" y="646" on="1"/>
        <pt x="328" y="608" on="0"/>
        <pt x="328" y="608" on="0"/>
      </contour>
      <contour>
        <pt x="205" y="684" on="1"/>
        <pt x="164" y="684" on="0"/>
        <pt x="164" y="684" on="0"/>
        <pt x="164" y="722" on="1"/>
        <pt x="164" y="760" on="0"/>
        <pt x="164" y="760" on="0"/>
        <pt x="205" y="760" on="1"/>
        <pt x="246" y="760" on="0"/>
        <pt x="246" y="760" on="0"/>
        <pt x="246" y="722" on="1"/>
        <pt x="246" y="684" on="0"/>
        <pt x="246" y="684" on="0"/>
      </contour>
      <contour>
        <pt x="287" y="684" on="1"/>
        <pt x="246" y="684" on="0"/>
        <pt x="246" y="684" on="0"/>
        <pt x="246" y="722" on="1"/>
        <pt x="246" y="760" on="0"/>
        <pt x="246" y="760" on="0"/>
        <pt x="287" y="760" on="1"/>
        <pt x="328" y="760" on="0"/>
        <pt x="328" y="760" on="0"/>
        <pt x="328" y="722" on="1"/>
        <pt x="328" y="684" on="0"/>
        <pt x="328" y="684" on="0"/>
      </contour>
      <contour>
        <pt x="205" y="152" on="1"/>
        <pt x="164" y="152" on="0"/>
        <pt x="164" y="152" on="0"/>
        <pt x="164" y="190" on="1"/>
        <pt x="164" y="228" on="0"/>
        <pt x="164" y="265" on="0"/>
        <pt x="164" y="380" on="1"/>
        <pt x="164" y="491" on="0"/>
        <pt x="164" y="532" on="0"/>
        <pt x="164" y="570" on="1"/>
        <pt x="164" y="608" on="0"/>
        <pt x="164" y="608" on="0"/>
        <pt x="205" y="608" on="1"/>
        <pt x="246" y="608" on="0"/>
        <pt x="246" y="608" on="0"/>
        <pt x="246" y="570" on="1"/>
        <pt x="246" y="532" on="0"/>
        <pt x="246" y="490" on="0"/>
        <pt x="246" y="380" on="1"/>
        <pt x="246" y="263" on="0"/>
        <pt x="246" y="228" on="0"/>
        <pt x="246" y="190" on="1"/>
        <pt x="246" y="152" on="0"/>
        <pt x="246" y="152" on="0"/>
      </contour>
      <contour>
        <pt x="287" y="152" on="1"/>
        <pt x="246" y="152" on="0"/>
        <pt x="246" y="152" on="0"/>
        <pt x="246" y="190" on="1"/>
        <pt x="246" y="228" on="0"/>
        <pt x="246" y="265" on="0"/>
        <pt x="246" y="380" on="1"/>
        <pt x="246" y="491" on="0"/>
        <pt x="246" y="532" on="0"/>
        <pt x="246" y="570" on="1"/>
        <pt x="246" y="608" on="0"/>
        <pt x="246" y="608" on="0"/>
        <pt x="287" y="608" on="1"/>
        <pt x="328" y="608" on="0"/>
        <pt x="328" y="608" on="0"/>
        <pt x="328" y="570" on="1"/>
        <pt x="328" y="532" on="0"/>
        <pt x="328" y="490" on="0"/>
        <pt x="328" y="380" on="1"/>
        <pt x="328" y="263" on="0"/>
        <pt x="328" y="228" on="0"/>
        <pt x="328" y="190" on="1"/>
        <pt x="328" y="152" on="0"/>
        <pt x="328" y="152" on="0"/>
      </contour>
      <contour>
        <pt x="205" y="760" on="1"/>
        <pt x="164" y="760" on="0"/>
        <pt x="164" y="760" on="0"/>
        <pt x="164" y="798" on="1"/>
        <pt x="164" y="836" on="0"/>
        <pt x="164" y="877" on="0"/>
        <pt x="164" y="992" on="1"/>
        <pt x="164" y="1103" on="0"/>
        <pt x="164" y="1140" on="0"/>
        <pt x="164" y="1178" on="1"/>
        <pt x="164" y="1216" on="0"/>
        <pt x="164" y="1216" on="0"/>
        <pt x="205" y="1216" on="1"/>
        <pt x="246" y="1216" on="0"/>
        <pt x="246" y="1216" on="0"/>
        <pt x="246" y="1178" on="1"/>
        <pt x="246" y="1140" on="0"/>
        <pt x="246" y="1102" on="0"/>
        <pt x="246" y="992" on="1"/>
        <pt x="246" y="875" on="0"/>
        <pt x="246" y="836" on="0"/>
        <pt x="246" y="798" on="1"/>
        <pt x="246" y="760" on="0"/>
        <pt x="246" y="760" on="0"/>
      </contour>
      <contour>
        <pt x="287" y="760" on="1"/>
        <pt x="246" y="760" on="0"/>
        <pt x="246" y="760" on="0"/>
        <pt x="246" y="798" on="1"/>
        <pt x="246" y="836" on="0"/>
        <pt x="246" y="877" on="0"/>
        <pt x="246" y="992" on="1"/>
        <pt x="246" y="1103" on="0"/>
        <pt x="246" y="1140" on="0"/>
        <pt x="246" y="1178" on="1"/>
        <pt x="246" y="1216" on="0"/>
        <pt x="246" y="1216" on="0"/>
        <pt x="287" y="1216" on="1"/>
        <pt x="328" y="1216" on="0"/>
        <pt x="328" y="1216" on="0"/>
        <pt x="328" y="1178" on="1"/>
        <pt x="328" y="1140" on="0"/>
        <pt x="328" y="1102" on="0"/>
        <pt x="328" y="992" on="1"/>
        <pt x="328" y="875" on="0"/>
        <pt x="328" y="836" on="0"/>
        <pt x="328" y="798" on="1"/>
        <pt x="328" y="760" on="0"/>
        <pt x="328" y="760" on="0"/>
      </contour>
      <contour>
        <pt x="205" y="0" on="1"/>
        <pt x="164" y="0" on="0"/>
        <pt x="164" y="0" on="0"/>
        <pt x="164" y="38" on="1"/>
        <pt x="164" y="76" on="0"/>
        <pt x="164" y="76" on="0"/>
        <pt x="205" y="76" on="1"/>
        <pt x="246" y="76" on="0"/>
        <pt x="246" y="76" on="0"/>
        <pt x="246" y="38" on="1"/>
        <pt x="246" y="0" on="0"/>
        <pt x="246" y="0" on="0"/>
      </contour>
      <contour>
        <pt x="287" y="0" on="1"/>
        <pt x="246" y="0" on="0"/>
        <pt x="246" y="0" on="0"/>
        <pt x="246" y="38" on="1"/>
        <pt x="246" y="76" on="0"/>
        <pt x="246" y="76" on="0"/>
        <pt x="287" y="76" on="1"/>
        <pt x="328" y="76" on="0"/>
        <pt x="328" y="76" on="0"/>
        <pt x="328" y="38" on="1"/>
        <pt x="328" y="0" on="0"/>
        <pt x="328" y="0" on="0"/>
      </contour>
      <contour>
        <pt x="205" y="76" on="1"/>
        <pt x="164" y="76" on="0"/>
        <pt x="164" y="76" on="0"/>
        <pt x="164" y="114" on="1"/>
        <pt x="164" y="152" on="0"/>
        <pt x="164" y="152" on="0"/>
        <pt x="205" y="152" on="1"/>
        <pt x="246" y="152" on="0"/>
        <pt x="246" y="152" on="0"/>
        <pt x="246" y="114" on="1"/>
        <pt x="246" y="76" on="0"/>
        <pt x="246" y="76" on="0"/>
      </contour>
      <contour>
        <pt x="287" y="76" on="1"/>
        <pt x="246" y="76" on="0"/>
        <pt x="246" y="76" on="0"/>
        <pt x="246" y="114" on="1"/>
        <pt x="246" y="152" on="0"/>
        <pt x="246" y="152" on="0"/>
        <pt x="287" y="152" on="1"/>
        <pt x="328" y="152" on="0"/>
        <pt x="328" y="152" on="0"/>
        <pt x="328" y="114" on="1"/>
        <pt x="328" y="76" on="0"/>
        <pt x="328" y="76" on="0"/>
      </contour>
      <contour>
        <pt x="205" y="1216" on="1"/>
        <pt x="164" y="1216" on="0"/>
        <pt x="164" y="1216" on="0"/>
        <pt x="164" y="1254" on="1"/>
        <pt x="164" y="1292" on="0"/>
        <pt x="164" y="1292" on="0"/>
        <pt x="205" y="1292" on="1"/>
        <pt x="246" y="1292" on="0"/>
        <pt x="246" y="1292" on="0"/>
        <pt x="246" y="1254" on="1"/>
        <pt x="246" y="1216" on="0"/>
        <pt x="246" y="1216" on="0"/>
      </contour>
      <contour>
        <pt x="287" y="1216" on="1"/>
        <pt x="246" y="1216" on="0"/>
        <pt x="246" y="1216" on="0"/>
        <pt x="246" y="1254" on="1"/>
        <pt x="246" y="1292" on="0"/>
        <pt x="246" y="1292" on="0"/>
        <pt x="287" y="1292" on="1"/>
        <pt x="328" y="1292" on="0"/>
        <pt x="328" y="1292" on="0"/>
        <pt x="328" y="1254" on="1"/>
        <pt x="328" y="1216" on="0"/>
        <pt x="328" y="1216" on="0"/>
      </contour>
      <contour>
        <pt x="205" y="1292" on="1"/>
        <pt x="164" y="1292" on="0"/>
        <pt x="164" y="1292" on="0"/>
        <pt x="164" y="1330" on="1"/>
        <pt x="164" y="1368" on="0"/>
        <pt x="164" y="1368" on="0"/>
        <pt x="205" y="1368" on="1"/>
        <pt x="246" y="1368" on="0"/>
        <pt x="246" y="1368" on="0"/>
        <pt x="246" y="1330" on="1"/>
        <pt x="246" y="1292" on="0"/>
        <pt x="246" y="1292" on="0"/>
      </contour>
      <contour>
        <pt x="287" y="1292" on="1"/>
        <pt x="246" y="1292" on="0"/>
        <pt x="246" y="1292" on="0"/>
        <pt x="246" y="1330" on="1"/>
        <pt x="246" y="1368" on="0"/>
        <pt x="246" y="1368" on="0"/>
        <pt x="287" y="1368" on="1"/>
        <pt x="328" y="1368" on="0"/>
        <pt x="328" y="1368" on="0"/>
        <pt x="328" y="1330" on="1"/>
        <pt x="328" y="1292" on="0"/>
        <pt x="328" y="1292" on="0"/>
      </contour>
      <contour>
        <pt x="1189" y="608" on="1"/>
        <pt x="1148" y="608" on="0"/>
        <pt x="1148" y="608" on="0"/>
        <pt x="1148" y="646" on="1"/>
        <pt x="1148" y="684" on="0"/>
        <pt x="1148" y="684" on="0"/>
        <pt x="1189" y="684" on="1"/>
        <pt x="1230" y="684" on="0"/>
        <pt x="1230" y="684" on="0"/>
        <pt x="1230" y="646" on="1"/>
        <pt x="1230" y="608" on="0"/>
        <pt x="1230" y="608" on="0"/>
      </contour>
      <contour>
        <pt x="1271" y="608" on="1"/>
        <pt x="1230" y="608" on="0"/>
        <pt x="1230" y="608" on="0"/>
        <pt x="1230" y="646" on="1"/>
        <pt x="1230" y="684" on="0"/>
        <pt x="1230" y="684" on="0"/>
        <pt x="1271" y="684" on="1"/>
        <pt x="1312" y="684" on="0"/>
        <pt x="1312" y="684" on="0"/>
        <pt x="1312" y="646" on="1"/>
        <pt x="1312" y="608" on="0"/>
        <pt x="1312" y="608" on="0"/>
      </contour>
      <contour>
        <pt x="1189" y="684" on="1"/>
        <pt x="1148" y="684" on="0"/>
        <pt x="1148" y="684" on="0"/>
        <pt x="1148" y="722" on="1"/>
        <pt x="1148" y="760" on="0"/>
        <pt x="1148" y="760" on="0"/>
        <pt x="1189" y="760" on="1"/>
        <pt x="1230" y="760" on="0"/>
        <pt x="1230" y="760" on="0"/>
        <pt x="1230" y="722" on="1"/>
        <pt x="1230" y="684" on="0"/>
        <pt x="1230" y="684" on="0"/>
      </contour>
      <contour>
        <pt x="1271" y="684" on="1"/>
        <pt x="1230" y="684" on="0"/>
        <pt x="1230" y="684" on="0"/>
        <pt x="1230" y="722" on="1"/>
        <pt x="1230" y="760" on="0"/>
        <pt x="1230" y="760" on="0"/>
        <pt x="1271" y="760" on="1"/>
        <pt x="1312" y="760" on="0"/>
        <pt x="1312" y="760" on="0"/>
        <pt x="1312" y="722" on="1"/>
        <pt x="1312" y="684" on="0"/>
        <pt x="1312" y="684" on="0"/>
      </contour>
      <contour>
        <pt x="1189" y="152" on="1"/>
        <pt x="1148" y="152" on="0"/>
        <pt x="1148" y="152" on="0"/>
        <pt x="1148" y="190" on="1"/>
        <pt x="1148" y="228" on="0"/>
        <pt x="1148" y="265" on="0"/>
        <pt x="1148" y="380" on="1"/>
        <pt x="1148" y="491" on="0"/>
        <pt x="1148" y="532" on="0"/>
        <pt x="1148" y="570" on="1"/>
        <pt x="1148" y="608" on="0"/>
        <pt x="1148" y="608" on="0"/>
        <pt x="1189" y="608" on="1"/>
        <pt x="1230" y="608" on="0"/>
        <pt x="1230" y="608" on="0"/>
        <pt x="1230" y="570" on="1"/>
        <pt x="1230" y="532" on="0"/>
        <pt x="1230" y="490" on="0"/>
        <pt x="1230" y="380" on="1"/>
        <pt x="1230" y="263" on="0"/>
        <pt x="1230" y="228" on="0"/>
        <pt x="1230" y="190" on="1"/>
        <pt x="1230" y="152" on="0"/>
        <pt x="1230" y="152" on="0"/>
      </contour>
      <contour>
        <pt x="1271" y="152" on="1"/>
        <pt x="1230" y="152" on="0"/>
        <pt x="1230" y="152" on="0"/>
        <pt x="1230" y="190" on="1"/>
        <pt x="1230" y="228" on="0"/>
        <pt x="1230" y="265" on="0"/>
        <pt x="1230" y="380" on="1"/>
        <pt x="1230" y="491" on="0"/>
        <pt x="1230" y="532" on="0"/>
        <pt x="1230" y="570" on="1"/>
        <pt x="1230" y="608" on="0"/>
        <pt x="1230" y="608" on="0"/>
        <pt x="1271" y="608" on="1"/>
        <pt x="1312" y="608" on="0"/>
        <pt x="1312" y="608" on="0"/>
        <pt x="1312" y="570" on="1"/>
        <pt x="1312" y="532" on="0"/>
        <pt x="1312" y="490" on="0"/>
        <pt x="1312" y="380" on="1"/>
        <pt x="1312" y="263" on="0"/>
        <pt x="1312" y="228" on="0"/>
        <pt x="1312" y="190" on="1"/>
        <pt x="1312" y="152" on="0"/>
        <pt x="1312" y="152" on="0"/>
      </contour>
      <contour>
        <pt x="1189" y="760" on="1"/>
        <pt x="1148" y="760" on="0"/>
        <pt x="1148" y="760" on="0"/>
        <pt x="1148" y="798" on="1"/>
        <pt x="1148" y="836" on="0"/>
        <pt x="1148" y="877" on="0"/>
        <pt x="1148" y="992" on="1"/>
        <pt x="1148" y="1103" on="0"/>
        <pt x="1148" y="1140" on="0"/>
        <pt x="1148" y="1178" on="1"/>
        <pt x="1148" y="1216" on="0"/>
        <pt x="1148" y="1216" on="0"/>
        <pt x="1189" y="1216" on="1"/>
        <pt x="1230" y="1216" on="0"/>
        <pt x="1230" y="1216" on="0"/>
        <pt x="1230" y="1178" on="1"/>
        <pt x="1230" y="1140" on="0"/>
        <pt x="1230" y="1102" on="0"/>
        <pt x="1230" y="992" on="1"/>
        <pt x="1230" y="875" on="0"/>
        <pt x="1230" y="836" on="0"/>
        <pt x="1230" y="798" on="1"/>
        <pt x="1230" y="760" on="0"/>
        <pt x="1230" y="760" on="0"/>
      </contour>
      <contour>
        <pt x="1271" y="760" on="1"/>
        <pt x="1230" y="760" on="0"/>
        <pt x="1230" y="760" on="0"/>
        <pt x="1230" y="798" on="1"/>
        <pt x="1230" y="836" on="0"/>
        <pt x="1230" y="877" on="0"/>
        <pt x="1230" y="992" on="1"/>
        <pt x="1230" y="1103" on="0"/>
        <pt x="1230" y="1140" on="0"/>
        <pt x="1230" y="1178" on="1"/>
        <pt x="1230" y="1216" on="0"/>
        <pt x="1230" y="1216" on="0"/>
        <pt x="1271" y="1216" on="1"/>
        <pt x="1312" y="1216" on="0"/>
        <pt x="1312" y="1216" on="0"/>
        <pt x="1312" y="1178" on="1"/>
        <pt x="1312" y="1140" on="0"/>
        <pt x="1312" y="1102" on="0"/>
        <pt x="1312" y="992" on="1"/>
        <pt x="1312" y="875" on="0"/>
        <pt x="1312" y="836" on="0"/>
        <pt x="1312" y="798" on="1"/>
        <pt x="1312" y="760" on="0"/>
        <pt x="1312" y="760" on="0"/>
      </contour>
      <contour>
        <pt x="1189" y="0" on="1"/>
        <pt x="1148" y="0" on="0"/>
        <pt x="1148" y="0" on="0"/>
        <pt x="1148" y="38" on="1"/>
        <pt x="1148" y="76" on="0"/>
        <pt x="1148" y="76" on="0"/>
        <pt x="1189" y="76" on="1"/>
        <pt x="1230" y="76" on="0"/>
        <pt x="1230" y="76" on="0"/>
        <pt x="1230" y="38" on="1"/>
        <pt x="1230" y="0" on="0"/>
        <pt x="1230" y="0" on="0"/>
      </contour>
      <contour>
        <pt x="1271" y="0" on="1"/>
        <pt x="1230" y="0" on="0"/>
        <pt x="1230" y="0" on="0"/>
        <pt x="1230" y="38" on="1"/>
        <pt x="1230" y="76" on="0"/>
        <pt x="1230" y="76" on="0"/>
        <pt x="1271" y="76" on="1"/>
        <pt x="1312" y="76" on="0"/>
        <pt x="1312" y="76" on="0"/>
        <pt x="1312" y="38" on="1"/>
        <pt x="1312" y="0" on="0"/>
        <pt x="1312" y="0" on="0"/>
      </contour>
      <contour>
        <pt x="1189" y="76" on="1"/>
        <pt x="1148" y="76" on="0"/>
        <pt x="1148" y="76" on="0"/>
        <pt x="1148" y="114" on="1"/>
        <pt x="1148" y="152" on="0"/>
        <pt x="1148" y="152" on="0"/>
        <pt x="1189" y="152" on="1"/>
        <pt x="1230" y="152" on="0"/>
        <pt x="1230" y="152" on="0"/>
        <pt x="1230" y="114" on="1"/>
        <pt x="1230" y="76" on="0"/>
        <pt x="1230" y="76" on="0"/>
      </contour>
      <contour>
        <pt x="1271" y="76" on="1"/>
        <pt x="1230" y="76" on="0"/>
        <pt x="1230" y="76" on="0"/>
        <pt x="1230" y="114" on="1"/>
        <pt x="1230" y="152" on="0"/>
        <pt x="1230" y="152" on="0"/>
        <pt x="1271" y="152" on="1"/>
        <pt x="1312" y="152" on="0"/>
        <pt x="1312" y="152" on="0"/>
        <pt x="1312" y="114" on="1"/>
        <pt x="1312" y="76" on="0"/>
        <pt x="1312" y="76" on="0"/>
      </contour>
      <contour>
        <pt x="1189" y="1216" on="1"/>
        <pt x="1148" y="1216" on="0"/>
        <pt x="1148" y="1216" on="0"/>
        <pt x="1148" y="1254" on="1"/>
        <pt x="1148" y="1292" on="0"/>
        <pt x="1148" y="1292" on="0"/>
        <pt x="1189" y="1292" on="1"/>
        <pt x="1230" y="1292" on="0"/>
        <pt x="1230" y="1292" on="0"/>
        <pt x="1230" y="1254" on="1"/>
        <pt x="1230" y="1216" on="0"/>
        <pt x="1230" y="1216" on="0"/>
      </contour>
      <contour>
        <pt x="1271" y="1216" on="1"/>
        <pt x="1230" y="1216" on="0"/>
        <pt x="1230" y="1216" on="0"/>
        <pt x="1230" y="1254" on="1"/>
        <pt x="1230" y="1292" on="0"/>
        <pt x="1230" y="1292" on="0"/>
        <pt x="1271" y="1292" on="1"/>
        <pt x="1312" y="1292" on="0"/>
        <pt x="1312" y="1292" on="0"/>
        <pt x="1312" y="1254" on="1"/>
        <pt x="1312" y="1216" on="0"/>
        <pt x="1312" y="1216" on="0"/>
      </contour>
      <contour>
        <pt x="1189" y="1292" on="1"/>
        <pt x="1148" y="1292" on="0"/>
        <pt x="1148" y="1292" on="0"/>
        <pt x="1148" y="1330" on="1"/>
        <pt x="1148" y="1368" on="0"/>
        <pt x="1148" y="1368" on="0"/>
        <pt x="1189" y="1368" on="1"/>
        <pt x="1230" y="1368" on="0"/>
        <pt x="1230" y="1368" on="0"/>
        <pt x="1230" y="1330" on="1"/>
        <pt x="1230" y="1292" on="0"/>
        <pt x="1230" y="1292" on="0"/>
      </contour>
      <contour>
        <pt x="1271" y="1292" on="1"/>
        <pt x="1230" y="1292" on="0"/>
        <pt x="1230" y="1292" on="0"/>
        <pt x="1230" y="1330" on="1"/>
        <pt x="1230" y="1368" on="0"/>
        <pt x="1230" y="1368" on="0"/>
        <pt x="1271" y="1368" on="1"/>
        <pt x="1312" y="1368" on="0"/>
        <pt x="1312" y="1368" on="0"/>
        <pt x="1312" y="1330" on="1"/>
        <pt x="1312" y="1292" on="0"/>
        <pt x="1312" y="1292" on="0"/>
      </contour>
    </TTGlyph>
    <TTGlyph name="I" xMin="164" yMin="0" xMax="328" yMax="1368">
      <component glyphName="CapStemPatternV3" x="-82" y="0" flags="0x4"/>
    </TTGlyph>
    <TTGlyph name="J" xMin="29" yMin="-22" xMax="742" yMax="1368">
      <contour>
        <pt x="193" y="-21" on="1"/>
        <pt x="214" y="-22" on="0"/>
        <pt x="214" y="-22" on="0"/>
        <pt x="249" y="-22" on="1"/>
        <pt x="468" y="-22" on="0"/>
        <pt x="742" y="228" on="0"/>
        <pt x="742" y="502" on="1"/>
        <pt x="742" y="750" on="0"/>
        <pt x="742" y="968" on="0"/>
        <pt x="742" y="1150" on="1"/>
        <pt x="742" y="1216" on="0"/>
        <pt x="742" y="1216" on="0"/>
        <pt x="702" y="1216" on="1"/>
        <pt x="660" y="1216" on="0"/>
        <pt x="660" y="1216" on="0"/>
        <pt x="660" y="1150" on="1"/>
        <pt x="660" y="966" on="0"/>
        <pt x="660" y="748" on="0"/>
        <pt x="660" y="498" on="1"/>
        <pt x="660" y="264" on="0"/>
        <pt x="436" y="50" on="0"/>
        <pt x="240" y="50" on="1"/>
        <pt x="214" y="50" on="0"/>
        <pt x="214" y="50" on="0"/>
        <pt x="193" y="50" on="1"/>
        <pt x="193" y="16" on="0"/>
        <pt x="193" y="16" on="0"/>
      </contour>
      <contour>
        <pt x="193" y="50" on="1"/>
        <pt x="214" y="50" on="0"/>
        <pt x="214" y="50" on="0"/>
        <pt x="240" y="50" on="1"/>
        <pt x="436" y="50" on="0"/>
        <pt x="660" y="264" on="0"/>
        <pt x="660" y="498" on="1"/>
        <pt x="660" y="748" on="0"/>
        <pt x="660" y="966" on="0"/>
        <pt x="660" y="1150" on="1"/>
        <pt x="660" y="1216" on="0"/>
        <pt x="660" y="1216" on="0"/>
        <pt x="620" y="1216" on="1"/>
        <pt x="578" y="1216" on="0"/>
        <pt x="578" y="1216" on="0"/>
        <pt x="578" y="1150" on="1"/>
        <pt x="578" y="966" on="0"/>
        <pt x="578" y="748" on="0"/>
        <pt x="578" y="498" on="1"/>
        <pt x="578" y="300" on="0"/>
        <pt x="393" y="124" on="0"/>
        <pt x="232" y="124" on="1"/>
        <pt x="214" y="124" on="0"/>
        <pt x="214" y="124" on="0"/>
        <pt x="193" y="124" on="1"/>
        <pt x="193" y="88" on="0"/>
        <pt x="193" y="88" on="0"/>
      </contour>
      <contour>
        <pt x="150" y="127" on="1"/>
        <pt x="111" y="131" on="0"/>
        <pt x="111" y="131" on="0"/>
        <pt x="111" y="96" on="1"/>
        <pt x="111" y="57" on="0"/>
        <pt x="111" y="57" on="0"/>
        <pt x="151" y="53" on="1"/>
        <pt x="193" y="50" on="0"/>
        <pt x="193" y="50" on="0"/>
        <pt x="193" y="86" on="1"/>
        <pt x="193" y="124" on="0"/>
        <pt x="193" y="124" on="0"/>
      </contour>
      <contour>
        <pt x="151" y="53" on="1"/>
        <pt x="111" y="57" on="0"/>
        <pt x="111" y="57" on="0"/>
        <pt x="111" y="22" on="1"/>
        <pt x="111" y="-15" on="0"/>
        <pt x="111" y="-15" on="0"/>
        <pt x="152" y="-19" on="1"/>
        <pt x="193" y="-21" on="0"/>
        <pt x="193" y="-21" on="0"/>
        <pt x="193" y="14" on="1"/>
        <pt x="193" y="50" on="0"/>
        <pt x="193" y="50" on="0"/>
      </contour>
      <contour>
        <pt x="72" y="139" on="1"/>
        <pt x="29" y="151" on="0"/>
        <pt x="29" y="151" on="0"/>
        <pt x="29" y="113" on="1"/>
        <pt x="29" y="77" on="0"/>
        <pt x="29" y="76" on="0"/>
        <pt x="70" y="65" on="1"/>
        <pt x="111" y="57" on="0"/>
        <pt x="111" y="57" on="0"/>
        <pt x="111" y="96" on="1"/>
        <pt x="111" y="131" on="0"/>
        <pt x="111" y="131" on="0"/>
      </contour>
      <contour>
        <pt x="70" y="65" on="1"/>
        <pt x="29" y="76" on="0"/>
        <pt x="29" y="77" on="0"/>
        <pt x="29" y="36" on="1"/>
        <pt x="29" y="2" on="0"/>
        <pt x="29" y="2" on="0"/>
        <pt x="70" y="-8" on="1"/>
        <pt x="111" y="-15" on="0"/>
        <pt x="111" y="-15" on="0"/>
        <pt x="111" y="22" on="1"/>
        <pt x="111" y="57" on="0"/>
        <pt x="111" y="57" on="0"/>
      </contour>
      <contour>
        <pt x="619" y="1216" on="1"/>
        <pt x="578" y="1216" on="0"/>
        <pt x="578" y="1216" on="0"/>
        <pt x="578" y="1254" on="1"/>
        <pt x="578" y="1292" on="0"/>
        <pt x="578" y="1292" on="0"/>
        <pt x="619" y="1292" on="1"/>
        <pt x="660" y="1292" on="0"/>
        <pt x="660" y="1292" on="0"/>
        <pt x="660" y="1254" on="1"/>
        <pt x="660" y="1216" on="0"/>
        <pt x="660" y="1216" on="0"/>
      </contour>
      <contour>
        <pt x="701" y="1216" on="1"/>
        <pt x="660" y="1216" on="0"/>
        <pt x="660" y="1216" on="0"/>
        <pt x="660" y="1254" on="1"/>
        <pt x="660" y="1292" on="0"/>
        <pt x="660" y="1292" on="0"/>
        <pt x="701" y="1292" on="1"/>
        <pt x="742" y="1292" on="0"/>
        <pt x="742" y="1292" on="0"/>
        <pt x="742" y="1254" on="1"/>
        <pt x="742" y="1216" on="0"/>
        <pt x="742" y="1216" on="0"/>
      </contour>
      <contour>
        <pt x="619" y="1292" on="1"/>
        <pt x="578" y="1292" on="0"/>
        <pt x="578" y="1292" on="0"/>
        <pt x="578" y="1330" on="1"/>
        <pt x="578" y="1368" on="0"/>
        <pt x="578" y="1368" on="0"/>
        <pt x="619" y="1368" on="1"/>
        <pt x="660" y="1368" on="0"/>
        <pt x="660" y="1368" on="0"/>
        <pt x="660" y="1330" on="1"/>
        <pt x="660" y="1292" on="0"/>
        <pt x="660" y="1292" on="0"/>
      </contour>
      <contour>
        <pt x="701" y="1292" on="1"/>
        <pt x="660" y="1292" on="0"/>
        <pt x="660" y="1292" on="0"/>
        <pt x="660" y="1330" on="1"/>
        <pt x="660" y="1368" on="0"/>
        <pt x="660" y="1368" on="0"/>
        <pt x="701" y="1368" on="1"/>
        <pt x="742" y="1368" on="0"/>
        <pt x="742" y="1368" on="0"/>
        <pt x="742" y="1330" on="1"/>
        <pt x="742" y="1292" on="0"/>
        <pt x="742" y="1292" on="0"/>
      </contour>
    </TTGlyph>
    <TTGlyph name="K" xMin="164" yMin="-30" xMax="1163" yMax="1370">
      <contour>
        <pt x="919" y="1165" on="1"/>
        <pt x="767" y="1013" on="0"/>
        <pt x="688" y="935" on="0"/>
        <pt x="536" y="783" on="1"/>
        <pt x="499" y="746" on="0"/>
        <pt x="499" y="746" on="0"/>
        <pt x="472" y="773" on="1"/>
        <pt x="445" y="800" on="0"/>
        <pt x="445" y="800" on="0"/>
        <pt x="483" y="837" on="1"/>
        <pt x="635" y="988" on="0"/>
        <pt x="714" y="1067" on="0"/>
        <pt x="866" y="1218" on="1"/>
        <pt x="902" y="1254" on="0"/>
        <pt x="902" y="1254" on="0"/>
        <pt x="928" y="1228" on="1"/>
        <pt x="955" y="1201" on="0"/>
        <pt x="955" y="1201" on="0"/>
      </contour>
      <contour>
        <pt x="979" y="1116" on="1"/>
        <pt x="826" y="964" on="0"/>
        <pt x="742" y="881" on="0"/>
        <pt x="586" y="726" on="1"/>
        <pt x="552" y="692" on="0"/>
        <pt x="552" y="692" on="0"/>
        <pt x="524" y="721" on="1"/>
        <pt x="499" y="746" on="0"/>
        <pt x="499" y="746" on="0"/>
        <pt x="536" y="783" on="1"/>
        <pt x="688" y="935" on="0"/>
        <pt x="767" y="1013" on="0"/>
        <pt x="919" y="1165" on="1"/>
        <pt x="955" y="1201" on="0"/>
        <pt x="955" y="1201" on="0"/>
        <pt x="982" y="1175" on="1"/>
        <pt x="1010" y="1147" on="0"/>
        <pt x="1010" y="1147" on="0"/>
      </contour>
      <contour>
        <pt x="553" y="578" on="1"/>
        <pt x="719" y="413" on="0"/>
        <pt x="794" y="339" on="0"/>
        <pt x="952" y="182" on="1"/>
        <pt x="994" y="140" on="0"/>
        <pt x="994" y="140" on="0"/>
        <pt x="967" y="113" on="1"/>
        <pt x="940" y="86" on="0"/>
        <pt x="940" y="86" on="0"/>
        <pt x="898" y="128" on="1"/>
        <pt x="739" y="284" on="0"/>
        <pt x="662" y="356" on="0"/>
        <pt x="495" y="520" on="1"/>
        <pt x="437" y="577" on="0"/>
        <pt x="437" y="577" on="0"/>
        <pt x="467" y="607" on="1"/>
        <pt x="495" y="635" on="0"/>
        <pt x="495" y="635" on="0"/>
      </contour>
      <contour>
        <pt x="610" y="635" on="1"/>
        <pt x="774" y="468" on="0"/>
        <pt x="849" y="392" on="0"/>
        <pt x="1005" y="235" on="1"/>
        <pt x="1047" y="193" on="0"/>
        <pt x="1047" y="193" on="0"/>
        <pt x="1022" y="168" on="1"/>
        <pt x="994" y="140" on="0"/>
        <pt x="994" y="140" on="0"/>
        <pt x="952" y="182" on="1"/>
        <pt x="794" y="339" on="0"/>
        <pt x="719" y="413" on="0"/>
        <pt x="553" y="578" on="1"/>
        <pt x="495" y="635" on="0"/>
        <pt x="495" y="635" on="0"/>
        <pt x="522" y="662" on="1"/>
        <pt x="552" y="692" on="0"/>
        <pt x="552" y="692" on="0"/>
      </contour>
      <contour>
        <pt x="1039" y="1176" on="1"/>
        <pt x="1010" y="1147" on="0"/>
        <pt x="1010" y="1147" on="0"/>
        <pt x="983" y="1174" on="1"/>
        <pt x="956" y="1200" on="0"/>
        <pt x="956" y="1200" on="0"/>
        <pt x="984" y="1229" on="1"/>
        <pt x="1013" y="1259" on="0"/>
        <pt x="1013" y="1259" on="0"/>
        <pt x="1040" y="1232" on="1"/>
        <pt x="1067" y="1205" on="0"/>
        <pt x="1067" y="1205" on="0"/>
      </contour>
      <contour>
        <pt x="1096" y="1234" on="1"/>
        <pt x="1067" y="1205" on="0"/>
        <pt x="1067" y="1205" on="0"/>
        <pt x="1040" y="1232" on="1"/>
        <pt x="1013" y="1259" on="0"/>
        <pt x="1013" y="1259" on="0"/>
        <pt x="1042" y="1288" on="1"/>
        <pt x="1071" y="1317" on="0"/>
        <pt x="1071" y="1317" on="0"/>
        <pt x="1098" y="1290" on="1"/>
        <pt x="1125" y="1264" on="0"/>
        <pt x="1125" y="1264" on="0"/>
      </contour>
      <contour>
        <pt x="984" y="1229" on="1"/>
        <pt x="956" y="1200" on="0"/>
        <pt x="956" y="1200" on="0"/>
        <pt x="929" y="1227" on="1"/>
        <pt x="901" y="1254" on="0"/>
        <pt x="901" y="1254" on="0"/>
        <pt x="930" y="1283" on="1"/>
        <pt x="959" y="1312" on="0"/>
        <pt x="959" y="1312" on="0"/>
        <pt x="986" y="1285" on="1"/>
        <pt x="1013" y="1259" on="0"/>
        <pt x="1013" y="1259" on="0"/>
      </contour>
      <contour>
        <pt x="1042" y="1288" on="1"/>
        <pt x="1013" y="1259" on="0"/>
        <pt x="1013" y="1259" on="0"/>
        <pt x="986" y="1285" on="1"/>
        <pt x="959" y="1312" on="0"/>
        <pt x="959" y="1312" on="0"/>
        <pt x="988" y="1341" on="1"/>
        <pt x="1017" y="1370" on="0"/>
        <pt x="1017" y="1370" on="0"/>
        <pt x="1044" y="1344" on="1"/>
        <pt x="1071" y="1317" on="0"/>
        <pt x="1071" y="1317" on="0"/>
      </contour>
      <contour>
        <pt x="969" y="57" on="1"/>
        <pt x="940" y="86" on="0"/>
        <pt x="940" y="86" on="0"/>
        <pt x="967" y="113" on="1"/>
        <pt x="994" y="140" on="0"/>
        <pt x="994" y="140" on="0"/>
        <pt x="1023" y="111" on="1"/>
        <pt x="1052" y="82" on="0"/>
        <pt x="1052" y="82" on="0"/>
        <pt x="1025" y="55" on="1"/>
        <pt x="998" y="28" on="0"/>
        <pt x="998" y="28" on="0"/>
      </contour>
      <contour>
        <pt x="1027" y="-1" on="1"/>
        <pt x="998" y="28" on="0"/>
        <pt x="998" y="28" on="0"/>
        <pt x="1025" y="55" on="1"/>
        <pt x="1052" y="82" on="0"/>
        <pt x="1052" y="82" on="0"/>
        <pt x="1081" y="53" on="1"/>
        <pt x="1109" y="24" on="0"/>
        <pt x="1109" y="24" on="0"/>
        <pt x="1083" y="-3" on="1"/>
        <pt x="1056" y="-30" on="0"/>
        <pt x="1056" y="-30" on="0"/>
      </contour>
      <contour>
        <pt x="1023" y="111" on="1"/>
        <pt x="994" y="140" on="0"/>
        <pt x="994" y="140" on="0"/>
        <pt x="1020" y="167" on="1"/>
        <pt x="1047" y="193" on="0"/>
        <pt x="1047" y="193" on="0"/>
        <pt x="1076" y="164" on="1"/>
        <pt x="1105" y="135" on="0"/>
        <pt x="1105" y="135" on="0"/>
        <pt x="1078" y="109" on="1"/>
        <pt x="1052" y="82" on="0"/>
        <pt x="1052" y="82" on="0"/>
      </contour>
      <contour>
        <pt x="1081" y="53" on="1"/>
        <pt x="1052" y="82" on="0"/>
        <pt x="1052" y="82" on="0"/>
        <pt x="1078" y="109" on="1"/>
        <pt x="1105" y="135" on="0"/>
        <pt x="1105" y="135" on="0"/>
        <pt x="1134" y="106" on="1"/>
        <pt x="1163" y="77" on="0"/>
        <pt x="1163" y="77" on="0"/>
        <pt x="1136" y="51" on="1"/>
        <pt x="1109" y="24" on="0"/>
        <pt x="1109" y="24" on="0"/>
      </contour>
      <contour>
        <pt x="466" y="606" on="1"/>
        <pt x="437" y="577" on="0"/>
        <pt x="437" y="577" on="0"/>
        <pt x="410" y="604" on="1"/>
        <pt x="383" y="631" on="0"/>
        <pt x="383" y="631" on="0"/>
        <pt x="412" y="660" on="1"/>
        <pt x="441" y="689" on="0"/>
        <pt x="441" y="689" on="0"/>
        <pt x="468" y="662" on="1"/>
        <pt x="495" y="635" on="0"/>
        <pt x="495" y="635" on="0"/>
      </contour>
      <contour>
        <pt x="524" y="664" on="1"/>
        <pt x="495" y="635" on="0"/>
        <pt x="495" y="635" on="0"/>
        <pt x="468" y="662" on="1"/>
        <pt x="441" y="689" on="0"/>
        <pt x="441" y="689" on="0"/>
        <pt x="470" y="718" on="1"/>
        <pt x="499" y="746" on="0"/>
        <pt x="499" y="746" on="0"/>
        <pt x="526" y="720" on="1"/>
        <pt x="553" y="693" on="0"/>
        <pt x="553" y="693" on="0"/>
      </contour>
      <contour>
        <pt x="412" y="660" on="1"/>
        <pt x="383" y="631" on="0"/>
        <pt x="383" y="631" on="0"/>
        <pt x="356" y="657" on="1"/>
        <pt x="330" y="684" on="0"/>
        <pt x="330" y="684" on="0"/>
        <pt x="359" y="713" on="1"/>
        <pt x="388" y="742" on="0"/>
        <pt x="388" y="742" on="0"/>
        <pt x="414" y="715" on="1"/>
        <pt x="441" y="689" on="0"/>
        <pt x="441" y="689" on="0"/>
      </contour>
      <contour>
        <pt x="470" y="718" on="1"/>
        <pt x="441" y="689" on="0"/>
        <pt x="441" y="689" on="0"/>
        <pt x="414" y="715" on="1"/>
        <pt x="388" y="742" on="0"/>
        <pt x="388" y="742" on="0"/>
        <pt x="417" y="771" on="1"/>
        <pt x="446" y="800" on="0"/>
        <pt x="446" y="800" on="0"/>
        <pt x="472" y="773" on="1"/>
        <pt x="499" y="746" on="0"/>
        <pt x="499" y="746" on="0"/>
      </contour>
      <contour>
        <pt x="205" y="608" on="1"/>
        <pt x="164" y="608" on="0"/>
        <pt x="164" y="608" on="0"/>
        <pt x="164" y="646" on="1"/>
        <pt x="164" y="684" on="0"/>
        <pt x="164" y="684" on="0"/>
        <pt x="205" y="684" on="1"/>
        <pt x="246" y="684" on="0"/>
        <pt x="246" y="684" on="0"/>
        <pt x="246" y="646" on="1"/>
        <pt x="246" y="608" on="0"/>
        <pt x="246" y="608" on="0"/>
      </contour>
      <contour>
        <pt x="287" y="608" on="1"/>
        <pt x="246" y="608" on="0"/>
        <pt x="246" y="608" on="0"/>
        <pt x="246" y="646" on="1"/>
        <pt x="246" y="684" on="0"/>
        <pt x="246" y="684" on="0"/>
        <pt x="287" y="684" on="1"/>
        <pt x="328" y="684" on="0"/>
        <pt x="328" y="684" on="0"/>
        <pt x="328" y="646" on="1"/>
        <pt x="328" y="608" on="0"/>
        <pt x="328" y="608" on="0"/>
      </contour>
      <contour>
        <pt x="205" y="684" on="1"/>
        <pt x="164" y="684" on="0"/>
        <pt x="164" y="684" on="0"/>
        <pt x="164" y="722" on="1"/>
        <pt x="164" y="760" on="0"/>
        <pt x="164" y="760" on="0"/>
        <pt x="205" y="760" on="1"/>
        <pt x="246" y="760" on="0"/>
        <pt x="246" y="760" on="0"/>
        <pt x="246" y="722" on="1"/>
        <pt x="246" y="684" on="0"/>
        <pt x="246" y="684" on="0"/>
      </contour>
      <contour>
        <pt x="287" y="684" on="1"/>
        <pt x="246" y="684" on="0"/>
        <pt x="246" y="684" on="0"/>
        <pt x="246" y="722" on="1"/>
        <pt x="246" y="760" on="0"/>
        <pt x="246" y="760" on="0"/>
        <pt x="287" y="760" on="1"/>
        <pt x="328" y="760" on="0"/>
        <pt x="328" y="760" on="0"/>
        <pt x="328" y="722" on="1"/>
        <pt x="328" y="684" on="0"/>
        <pt x="328" y="684" on="0"/>
      </contour>
      <contour>
        <pt x="205" y="152" on="1"/>
        <pt x="164" y="152" on="0"/>
        <pt x="164" y="152" on="0"/>
        <pt x="164" y="190" on="1"/>
        <pt x="164" y="228" on="0"/>
        <pt x="164" y="265" on="0"/>
        <pt x="164" y="380" on="1"/>
        <pt x="164" y="491" on="0"/>
        <pt x="164" y="532" on="0"/>
        <pt x="164" y="570" on="1"/>
        <pt x="164" y="608" on="0"/>
        <pt x="164" y="608" on="0"/>
        <pt x="205" y="608" on="1"/>
        <pt x="246" y="608" on="0"/>
        <pt x="246" y="608" on="0"/>
        <pt x="246" y="570" on="1"/>
        <pt x="246" y="532" on="0"/>
        <pt x="246" y="490" on="0"/>
        <pt x="246" y="380" on="1"/>
        <pt x="246" y="263" on="0"/>
        <pt x="246" y="228" on="0"/>
        <pt x="246" y="190" on="1"/>
        <pt x="246" y="152" on="0"/>
        <pt x="246" y="152" on="0"/>
      </contour>
      <contour>
        <pt x="287" y="152" on="1"/>
        <pt x="246" y="152" on="0"/>
        <pt x="246" y="152" on="0"/>
        <pt x="246" y="190" on="1"/>
        <pt x="246" y="228" on="0"/>
        <pt x="246" y="265" on="0"/>
        <pt x="246" y="380" on="1"/>
        <pt x="246" y="491" on="0"/>
        <pt x="246" y="532" on="0"/>
        <pt x="246" y="570" on="1"/>
        <pt x="246" y="608" on="0"/>
        <pt x="246" y="608" on="0"/>
        <pt x="287" y="608" on="1"/>
        <pt x="328" y="608" on="0"/>
        <pt x="328" y="608" on="0"/>
        <pt x="328" y="570" on="1"/>
        <pt x="328" y="532" on="0"/>
        <pt x="328" y="490" on="0"/>
        <pt x="328" y="380" on="1"/>
        <pt x="328" y="263" on="0"/>
        <pt x="328" y="228" on="0"/>
        <pt x="328" y="190" on="1"/>
        <pt x="328" y="152" on="0"/>
        <pt x="328" y="152" on="0"/>
      </contour>
      <contour>
        <pt x="205" y="760" on="1"/>
        <pt x="164" y="760" on="0"/>
        <pt x="164" y="760" on="0"/>
        <pt x="164" y="798" on="1"/>
        <pt x="164" y="836" on="0"/>
        <pt x="164" y="877" on="0"/>
        <pt x="164" y="992" on="1"/>
        <pt x="164" y="1103" on="0"/>
        <pt x="164" y="1140" on="0"/>
        <pt x="164" y="1178" on="1"/>
        <pt x="164" y="1216" on="0"/>
        <pt x="164" y="1216" on="0"/>
        <pt x="205" y="1216" on="1"/>
        <pt x="246" y="1216" on="0"/>
        <pt x="246" y="1216" on="0"/>
        <pt x="246" y="1178" on="1"/>
        <pt x="246" y="1140" on="0"/>
        <pt x="246" y="1102" on="0"/>
        <pt x="246" y="992" on="1"/>
        <pt x="246" y="875" on="0"/>
        <pt x="246" y="836" on="0"/>
        <pt x="246" y="798" on="1"/>
        <pt x="246" y="760" on="0"/>
        <pt x="246" y="760" on="0"/>
      </contour>
      <contour>
        <pt x="287" y="760" on="1"/>
        <pt x="246" y="760" on="0"/>
        <pt x="246" y="760" on="0"/>
        <pt x="246" y="798" on="1"/>
        <pt x="246" y="836" on="0"/>
        <pt x="246" y="877" on="0"/>
        <pt x="246" y="992" on="1"/>
        <pt x="246" y="1103" on="0"/>
        <pt x="246" y="1140" on="0"/>
        <pt x="246" y="1178" on="1"/>
        <pt x="246" y="1216" on="0"/>
        <pt x="246" y="1216" on="0"/>
        <pt x="287" y="1216" on="1"/>
        <pt x="328" y="1216" on="0"/>
        <pt x="328" y="1216" on="0"/>
        <pt x="328" y="1178" on="1"/>
        <pt x="328" y="1140" on="0"/>
        <pt x="328" y="1102" on="0"/>
        <pt x="328" y="992" on="1"/>
        <pt x="328" y="875" on="0"/>
        <pt x="328" y="836" on="0"/>
        <pt x="328" y="798" on="1"/>
        <pt x="328" y="760" on="0"/>
        <pt x="328" y="760" on="0"/>
      </contour>
      <contour>
        <pt x="205" y="0" on="1"/>
        <pt x="164" y="0" on="0"/>
        <pt x="164" y="0" on="0"/>
        <pt x="164" y="38" on="1"/>
        <pt x="164" y="76" on="0"/>
        <pt x="164" y="76" on="0"/>
        <pt x="205" y="76" on="1"/>
        <pt x="246" y="76" on="0"/>
        <pt x="246" y="76" on="0"/>
        <pt x="246" y="38" on="1"/>
        <pt x="246" y="0" on="0"/>
        <pt x="246" y="0" on="0"/>
      </contour>
      <contour>
        <pt x="287" y="0" on="1"/>
        <pt x="246" y="0" on="0"/>
        <pt x="246" y="0" on="0"/>
        <pt x="246" y="38" on="1"/>
        <pt x="246" y="76" on="0"/>
        <pt x="246" y="76" on="0"/>
        <pt x="287" y="76" on="1"/>
        <pt x="328" y="76" on="0"/>
        <pt x="328" y="76" on="0"/>
        <pt x="328" y="38" on="1"/>
        <pt x="328" y="0" on="0"/>
        <pt x="328" y="0" on="0"/>
      </contour>
      <contour>
        <pt x="205" y="76" on="1"/>
        <pt x="164" y="76" on="0"/>
        <pt x="164" y="76" on="0"/>
        <pt x="164" y="114" on="1"/>
        <pt x="164" y="152" on="0"/>
        <pt x="164" y="152" on="0"/>
        <pt x="205" y="152" on="1"/>
        <pt x="246" y="152" on="0"/>
        <pt x="246" y="152" on="0"/>
        <pt x="246" y="114" on="1"/>
        <pt x="246" y="76" on="0"/>
        <pt x="246" y="76" on="0"/>
      </contour>
      <contour>
        <pt x="287" y="76" on="1"/>
        <pt x="246" y="76" on="0"/>
        <pt x="246" y="76" on="0"/>
        <pt x="246" y="114" on="1"/>
        <pt x="246" y="152" on="0"/>
        <pt x="246" y="152" on="0"/>
        <pt x="287" y="152" on="1"/>
        <pt x="328" y="152" on="0"/>
        <pt x="328" y="152" on="0"/>
        <pt x="328" y="114" on="1"/>
        <pt x="328" y="76" on="0"/>
        <pt x="328" y="76" on="0"/>
      </contour>
      <contour>
        <pt x="205" y="1216" on="1"/>
        <pt x="164" y="1216" on="0"/>
        <pt x="164" y="1216" on="0"/>
        <pt x="164" y="1254" on="1"/>
        <pt x="164" y="1292" on="0"/>
        <pt x="164" y="1292" on="0"/>
        <pt x="205" y="1292" on="1"/>
        <pt x="246" y="1292" on="0"/>
        <pt x="246" y="1292" on="0"/>
        <pt x="246" y="1254" on="1"/>
        <pt x="246" y="1216" on="0"/>
        <pt x="246" y="1216" on="0"/>
      </contour>
      <contour>
        <pt x="287" y="1216" on="1"/>
        <pt x="246" y="1216" on="0"/>
        <pt x="246" y="1216" on="0"/>
        <pt x="246" y="1254" on="1"/>
        <pt x="246" y="1292" on="0"/>
        <pt x="246" y="1292" on="0"/>
        <pt x="287" y="1292" on="1"/>
        <pt x="328" y="1292" on="0"/>
        <pt x="328" y="1292" on="0"/>
        <pt x="328" y="1254" on="1"/>
        <pt x="328" y="1216" on="0"/>
        <pt x="328" y="1216" on="0"/>
      </contour>
      <contour>
        <pt x="205" y="1292" on="1"/>
        <pt x="164" y="1292" on="0"/>
        <pt x="164" y="1292" on="0"/>
        <pt x="164" y="1330" on="1"/>
        <pt x="164" y="1368" on="0"/>
        <pt x="164" y="1368" on="0"/>
        <pt x="205" y="1368" on="1"/>
        <pt x="246" y="1368" on="0"/>
        <pt x="246" y="1368" on="0"/>
        <pt x="246" y="1330" on="1"/>
        <pt x="246" y="1292" on="0"/>
        <pt x="246" y="1292" on="0"/>
      </contour>
      <contour>
        <pt x="287" y="1292" on="1"/>
        <pt x="246" y="1292" on="0"/>
        <pt x="246" y="1292" on="0"/>
        <pt x="246" y="1330" on="1"/>
        <pt x="246" y="1368" on="0"/>
        <pt x="246" y="1368" on="0"/>
        <pt x="287" y="1368" on="1"/>
        <pt x="328" y="1368" on="0"/>
        <pt x="328" y="1368" on="0"/>
        <pt x="328" y="1330" on="1"/>
        <pt x="328" y="1292" on="0"/>
        <pt x="328" y="1292" on="0"/>
      </contour>
    </TTGlyph>
    <TTGlyph name="L" xMin="164" yMin="0" xMax="820" yMax="1368">
      <contour>
        <pt x="391" y="152" on="1"/>
        <pt x="458" y="152" on="0"/>
        <pt x="520" y="152" on="0"/>
        <pt x="584" y="152" on="1"/>
        <pt x="656" y="152" on="0"/>
        <pt x="656" y="152" on="0"/>
        <pt x="656" y="114" on="1"/>
        <pt x="656" y="76" on="0"/>
        <pt x="656" y="76" on="0"/>
        <pt x="584" y="76" on="1"/>
        <pt x="520" y="76" on="0"/>
        <pt x="458" y="76" on="0"/>
        <pt x="391" y="76" on="1"/>
        <pt x="328" y="76" on="0"/>
        <pt x="328" y="76" on="0"/>
        <pt x="328" y="114" on="1"/>
        <pt x="328" y="152" on="0"/>
        <pt x="328" y="152" on="0"/>
      </contour>
      <contour>
        <pt x="391" y="76" on="1"/>
        <pt x="458" y="76" on="0"/>
        <pt x="520" y="76" on="0"/>
        <pt x="584" y="76" on="1"/>
        <pt x="656" y="76" on="0"/>
        <pt x="656" y="76" on="0"/>
        <pt x="656" y="38" on="1"/>
        <pt x="656" y="0" on="0"/>
        <pt x="656" y="0" on="0"/>
        <pt x="584" y="0" on="1"/>
        <pt x="520" y="0" on="0"/>
        <pt x="458" y="0" on="0"/>
        <pt x="391" y="0" on="1"/>
        <pt x="328" y="0" on="0"/>
        <pt x="328" y="0" on="0"/>
        <pt x="328" y="38" on="1"/>
        <pt x="328" y="76" on="0"/>
        <pt x="328" y="76" on="0"/>
      </contour>
      <contour>
        <pt x="205" y="0" on="1"/>
        <pt x="164" y="0" on="0"/>
        <pt x="164" y="0" on="0"/>
        <pt x="164" y="38" on="1"/>
        <pt x="164" y="76" on="0"/>
        <pt x="164" y="76" on="0"/>
        <pt x="205" y="76" on="1"/>
        <pt x="246" y="76" on="0"/>
        <pt x="246" y="76" on="0"/>
        <pt x="246" y="38" on="1"/>
        <pt x="246" y="0" on="0"/>
        <pt x="246" y="0" on="0"/>
      </contour>
      <contour>
        <pt x="287" y="0" on="1"/>
        <pt x="246" y="0" on="0"/>
        <pt x="246" y="0" on="0"/>
        <pt x="246" y="38" on="1"/>
        <pt x="246" y="76" on="0"/>
        <pt x="246" y="76" on="0"/>
        <pt x="287" y="76" on="1"/>
        <pt x="328" y="76" on="0"/>
        <pt x="328" y="76" on="0"/>
        <pt x="328" y="38" on="1"/>
        <pt x="328" y="0" on="0"/>
        <pt x="328" y="0" on="0"/>
      </contour>
      <contour>
        <pt x="205" y="76" on="1"/>
        <pt x="164" y="76" on="0"/>
        <pt x="164" y="76" on="0"/>
        <pt x="164" y="114" on="1"/>
        <pt x="164" y="152" on="0"/>
        <pt x="164" y="152" on="0"/>
        <pt x="205" y="152" on="1"/>
        <pt x="246" y="152" on="0"/>
        <pt x="246" y="152" on="0"/>
        <pt x="246" y="114" on="1"/>
        <pt x="246" y="76" on="0"/>
        <pt x="246" y="76" on="0"/>
      </contour>
      <contour>
        <pt x="287" y="76" on="1"/>
        <pt x="246" y="76" on="0"/>
        <pt x="246" y="76" on="0"/>
        <pt x="246" y="114" on="1"/>
        <pt x="246" y="152" on="0"/>
        <pt x="246" y="152" on="0"/>
        <pt x="287" y="152" on="1"/>
        <pt x="328" y="152" on="0"/>
        <pt x="328" y="152" on="0"/>
        <pt x="328" y="114" on="1"/>
        <pt x="328" y="76" on="0"/>
        <pt x="328" y="76" on="0"/>
      </contour>
      <contour>
        <pt x="205" y="1216" on="1"/>
        <pt x="164" y="1216" on="0"/>
        <pt x="164" y="1216" on="0"/>
        <pt x="164" y="1254" on="1"/>
        <pt x="164" y="1292" on="0"/>
        <pt x="164" y="1292" on="0"/>
        <pt x="205" y="1292" on="1"/>
        <pt x="246" y="1292" on="0"/>
        <pt x="246" y="1292" on="0"/>
        <pt x="246" y="1254" on="1"/>
        <pt x="246" y="1216" on="0"/>
        <pt x="246" y="1216" on="0"/>
      </contour>
      <contour>
        <pt x="287" y="1216" on="1"/>
        <pt x="246" y="1216" on="0"/>
        <pt x="246" y="1216" on="0"/>
        <pt x="246" y="1254" on="1"/>
        <pt x="246" y="1292" on="0"/>
        <pt x="246" y="1292" on="0"/>
        <pt x="287" y="1292" on="1"/>
        <pt x="328" y="1292" on="0"/>
        <pt x="328" y="1292" on="0"/>
        <pt x="328" y="1254" on="1"/>
        <pt x="328" y="1216" on="0"/>
        <pt x="328" y="1216" on="0"/>
      </contour>
      <contour>
        <pt x="205" y="1292" on="1"/>
        <pt x="164" y="1292" on="0"/>
        <pt x="164" y="1292" on="0"/>
        <pt x="164" y="1330" on="1"/>
        <pt x="164" y="1368" on="0"/>
        <pt x="164" y="1368" on="0"/>
        <pt x="205" y="1368" on="1"/>
        <pt x="246" y="1368" on="0"/>
        <pt x="246" y="1368" on="0"/>
        <pt x="246" y="1330" on="1"/>
        <pt x="246" y="1292" on="0"/>
        <pt x="246" y="1292" on="0"/>
      </contour>
      <contour>
        <pt x="287" y="1292" on="1"/>
        <pt x="246" y="1292" on="0"/>
        <pt x="246" y="1292" on="0"/>
        <pt x="246" y="1330" on="1"/>
        <pt x="246" y="1368" on="0"/>
        <pt x="246" y="1368" on="0"/>
        <pt x="287" y="1368" on="1"/>
        <pt x="328" y="1368" on="0"/>
        <pt x="328" y="1368" on="0"/>
        <pt x="328" y="1330" on="1"/>
        <pt x="328" y="1292" on="0"/>
        <pt x="328" y="1292" on="0"/>
      </contour>
      <contour>
        <pt x="205" y="152" on="1"/>
        <pt x="164" y="152" on="0"/>
        <pt x="164" y="152" on="0"/>
        <pt x="164" y="190" on="1"/>
        <pt x="164" y="228" on="0"/>
        <pt x="164" y="265" on="0"/>
        <pt x="164" y="380" on="1"/>
        <pt x="164" y="491" on="0"/>
        <pt x="164" y="532" on="0"/>
        <pt x="164" y="570" on="1"/>
        <pt x="164" y="608" on="0"/>
        <pt x="164" y="608" on="0"/>
        <pt x="205" y="608" on="1"/>
        <pt x="246" y="608" on="0"/>
        <pt x="246" y="608" on="0"/>
        <pt x="246" y="570" on="1"/>
        <pt x="246" y="532" on="0"/>
        <pt x="246" y="490" on="0"/>
        <pt x="246" y="380" on="1"/>
        <pt x="246" y="263" on="0"/>
        <pt x="246" y="228" on="0"/>
        <pt x="246" y="190" on="1"/>
        <pt x="246" y="152" on="0"/>
        <pt x="246" y="152" on="0"/>
      </contour>
      <contour>
        <pt x="287" y="152" on="1"/>
        <pt x="246" y="152" on="0"/>
        <pt x="246" y="152" on="0"/>
        <pt x="246" y="190" on="1"/>
        <pt x="246" y="228" on="0"/>
        <pt x="246" y="265" on="0"/>
        <pt x="246" y="380" on="1"/>
        <pt x="246" y="491" on="0"/>
        <pt x="246" y="532" on="0"/>
        <pt x="246" y="570" on="1"/>
        <pt x="246" y="608" on="0"/>
        <pt x="246" y="608" on="0"/>
        <pt x="287" y="608" on="1"/>
        <pt x="328" y="608" on="0"/>
        <pt x="328" y="608" on="0"/>
        <pt x="328" y="570" on="1"/>
        <pt x="328" y="532" on="0"/>
        <pt x="328" y="490" on="0"/>
        <pt x="328" y="380" on="1"/>
        <pt x="328" y="263" on="0"/>
        <pt x="328" y="228" on="0"/>
        <pt x="328" y="190" on="1"/>
        <pt x="328" y="152" on="0"/>
        <pt x="328" y="152" on="0"/>
      </contour>
      <contour>
        <pt x="205" y="760" on="1"/>
        <pt x="164" y="760" on="0"/>
        <pt x="164" y="760" on="0"/>
        <pt x="164" y="798" on="1"/>
        <pt x="164" y="836" on="0"/>
        <pt x="164" y="877" on="0"/>
        <pt x="164" y="992" on="1"/>
        <pt x="164" y="1103" on="0"/>
        <pt x="164" y="1140" on="0"/>
        <pt x="164" y="1178" on="1"/>
        <pt x="164" y="1216" on="0"/>
        <pt x="164" y="1216" on="0"/>
        <pt x="205" y="1216" on="1"/>
        <pt x="246" y="1216" on="0"/>
        <pt x="246" y="1216" on="0"/>
        <pt x="246" y="1178" on="1"/>
        <pt x="246" y="1140" on="0"/>
        <pt x="246" y="1102" on="0"/>
        <pt x="246" y="992" on="1"/>
        <pt x="246" y="875" on="0"/>
        <pt x="246" y="836" on="0"/>
        <pt x="246" y="798" on="1"/>
        <pt x="246" y="760" on="0"/>
        <pt x="246" y="760" on="0"/>
      </contour>
      <contour>
        <pt x="287" y="760" on="1"/>
        <pt x="246" y="760" on="0"/>
        <pt x="246" y="760" on="0"/>
        <pt x="246" y="798" on="1"/>
        <pt x="246" y="836" on="0"/>
        <pt x="246" y="877" on="0"/>
        <pt x="246" y="992" on="1"/>
        <pt x="246" y="1103" on="0"/>
        <pt x="246" y="1140" on="0"/>
        <pt x="246" y="1178" on="1"/>
        <pt x="246" y="1216" on="0"/>
        <pt x="246" y="1216" on="0"/>
        <pt x="287" y="1216" on="1"/>
        <pt x="328" y="1216" on="0"/>
        <pt x="328" y="1216" on="0"/>
        <pt x="328" y="1178" on="1"/>
        <pt x="328" y="1140" on="0"/>
        <pt x="328" y="1102" on="0"/>
        <pt x="328" y="992" on="1"/>
        <pt x="328" y="875" on="0"/>
        <pt x="328" y="836" on="0"/>
        <pt x="328" y="798" on="1"/>
        <pt x="328" y="760" on="0"/>
        <pt x="328" y="760" on="0"/>
      </contour>
      <contour>
        <pt x="205" y="608" on="1"/>
        <pt x="164" y="608" on="0"/>
        <pt x="164" y="608" on="0"/>
        <pt x="164" y="646" on="1"/>
        <pt x="164" y="684" on="0"/>
        <pt x="164" y="684" on="0"/>
        <pt x="205" y="684" on="1"/>
        <pt x="246" y="684" on="0"/>
        <pt x="246" y="684" on="0"/>
        <pt x="246" y="646" on="1"/>
        <pt x="246" y="608" on="0"/>
        <pt x="246" y="608" on="0"/>
      </contour>
      <contour>
        <pt x="287" y="608" on="1"/>
        <pt x="246" y="608" on="0"/>
        <pt x="246" y="608" on="0"/>
        <pt x="246" y="646" on="1"/>
        <pt x="246" y="684" on="0"/>
        <pt x="246" y="684" on="0"/>
        <pt x="287" y="684" on="1"/>
        <pt x="328" y="684" on="0"/>
        <pt x="328" y="684" on="0"/>
        <pt x="328" y="646" on="1"/>
        <pt x="328" y="608" on="0"/>
        <pt x="328" y="608" on="0"/>
      </contour>
      <contour>
        <pt x="205" y="684" on="1"/>
        <pt x="164" y="684" on="0"/>
        <pt x="164" y="684" on="0"/>
        <pt x="164" y="722" on="1"/>
        <pt x="164" y="760" on="0"/>
        <pt x="164" y="760" on="0"/>
        <pt x="205" y="760" on="1"/>
        <pt x="246" y="760" on="0"/>
        <pt x="246" y="760" on="0"/>
        <pt x="246" y="722" on="1"/>
        <pt x="246" y="684" on="0"/>
        <pt x="246" y="684" on="0"/>
      </contour>
      <contour>
        <pt x="287" y="684" on="1"/>
        <pt x="246" y="684" on="0"/>
        <pt x="246" y="684" on="0"/>
        <pt x="246" y="722" on="1"/>
        <pt x="246" y="760" on="0"/>
        <pt x="246" y="760" on="0"/>
        <pt x="287" y="760" on="1"/>
        <pt x="328" y="760" on="0"/>
        <pt x="328" y="760" on="0"/>
        <pt x="328" y="722" on="1"/>
        <pt x="328" y="684" on="0"/>
        <pt x="328" y="684" on="0"/>
      </contour>
      <contour>
        <pt x="697" y="0" on="1"/>
        <pt x="656" y="0" on="0"/>
        <pt x="656" y="0" on="0"/>
        <pt x="656" y="38" on="1"/>
        <pt x="656" y="76" on="0"/>
        <pt x="656" y="76" on="0"/>
        <pt x="697" y="76" on="1"/>
        <pt x="738" y="76" on="0"/>
        <pt x="738" y="76" on="0"/>
        <pt x="738" y="38" on="1"/>
        <pt x="738" y="0" on="0"/>
        <pt x="738" y="0" on="0"/>
      </contour>
      <contour>
        <pt x="779" y="0" on="1"/>
        <pt x="738" y="0" on="0"/>
        <pt x="738" y="0" on="0"/>
        <pt x="738" y="38" on="1"/>
        <pt x="738" y="76" on="0"/>
        <pt x="738" y="76" on="0"/>
        <pt x="779" y="76" on="1"/>
        <pt x="820" y="76" on="0"/>
        <pt x="820" y="76" on="0"/>
        <pt x="820" y="38" on="1"/>
        <pt x="820" y="0" on="0"/>
        <pt x="820" y="0" on="0"/>
      </contour>
      <contour>
        <pt x="697" y="76" on="1"/>
        <pt x="656" y="76" on="0"/>
        <pt x="656" y="76" on="0"/>
        <pt x="656" y="114" on="1"/>
        <pt x="656" y="152" on="0"/>
        <pt x="656" y="152" on="0"/>
        <pt x="697" y="152" on="1"/>
        <pt x="738" y="152" on="0"/>
        <pt x="738" y="152" on="0"/>
        <pt x="738" y="114" on="1"/>
        <pt x="738" y="76" on="0"/>
        <pt x="738" y="76" on="0"/>
      </contour>
      <contour>
        <pt x="779" y="76" on="1"/>
        <pt x="738" y="76" on="0"/>
        <pt x="738" y="76" on="0"/>
        <pt x="738" y="114" on="1"/>
        <pt x="738" y="152" on="0"/>
        <pt x="738" y="152" on="0"/>
        <pt x="779" y="152" on="1"/>
        <pt x="820" y="152" on="0"/>
        <pt x="820" y="152" on="0"/>
        <pt x="820" y="114" on="1"/>
        <pt x="820" y="76" on="0"/>
        <pt x="820" y="76" on="0"/>
      </contour>
    </TTGlyph>
    <TTGlyph name="LeftElementBV3" xMin="246" yMin="0" xMax="410" yMax="152">
      <contour>
        <pt x="287" y="0" on="1"/>
        <pt x="246" y="0" on="0"/>
        <pt x="246" y="0" on="0"/>
        <pt x="246" y="38" on="1"/>
        <pt x="246" y="76" on="0"/>
        <pt x="246" y="76" on="0"/>
        <pt x="287" y="76" on="1"/>
        <pt x="328" y="76" on="0"/>
        <pt x="328" y="76" on="0"/>
        <pt x="328" y="38" on="1"/>
        <pt x="328" y="0" on="0"/>
        <pt x="328" y="0" on="0"/>
      </contour>
      <contour>
        <pt x="369" y="0" on="1"/>
        <pt x="328" y="0" on="0"/>
        <pt x="328" y="0" on="0"/>
        <pt x="328" y="38" on="1"/>
        <pt x="328" y="76" on="0"/>
        <pt x="328" y="76" on="0"/>
        <pt x="369" y="76" on="1"/>
        <pt x="410" y="76" on="0"/>
        <pt x="410" y="76" on="0"/>
        <pt x="410" y="38" on="1"/>
        <pt x="410" y="0" on="0"/>
        <pt x="410" y="0" on="0"/>
      </contour>
      <contour>
        <pt x="287" y="76" on="1"/>
        <pt x="246" y="76" on="0"/>
        <pt x="246" y="76" on="0"/>
        <pt x="246" y="114" on="1"/>
        <pt x="246" y="152" on="0"/>
        <pt x="246" y="152" on="0"/>
        <pt x="287" y="152" on="1"/>
        <pt x="328" y="152" on="0"/>
        <pt x="328" y="152" on="0"/>
        <pt x="328" y="114" on="1"/>
        <pt x="328" y="76" on="0"/>
        <pt x="328" y="76" on="0"/>
      </contour>
      <contour>
        <pt x="369" y="76" on="1"/>
        <pt x="328" y="76" on="0"/>
        <pt x="328" y="76" on="0"/>
        <pt x="328" y="114" on="1"/>
        <pt x="328" y="152" on="0"/>
        <pt x="328" y="152" on="0"/>
        <pt x="369" y="152" on="1"/>
        <pt x="410" y="152" on="0"/>
        <pt x="410" y="152" on="0"/>
        <pt x="410" y="114" on="1"/>
        <pt x="410" y="76" on="0"/>
        <pt x="410" y="76" on="0"/>
      </contour>
    </TTGlyph>
    <TTGlyph name="LeftElementV3" xMin="246" yMin="0" xMax="410" yMax="152">
      <contour>
        <pt x="287" y="0" on="1"/>
        <pt x="246" y="0" on="0"/>
        <pt x="246" y="0" on="0"/>
        <pt x="246" y="38" on="1"/>
        <pt x="246" y="76" on="0"/>
        <pt x="246" y="76" on="0"/>
        <pt x="287" y="76" on="1"/>
        <pt x="328" y="76" on="0"/>
        <pt x="328" y="76" on="0"/>
        <pt x="328" y="38" on="1"/>
        <pt x="328" y="0" on="0"/>
        <pt x="328" y="0" on="0"/>
      </contour>
      <contour>
        <pt x="369" y="0" on="1"/>
        <pt x="328" y="0" on="0"/>
        <pt x="328" y="0" on="0"/>
        <pt x="328" y="38" on="1"/>
        <pt x="328" y="76" on="0"/>
        <pt x="328" y="76" on="0"/>
        <pt x="369" y="76" on="1"/>
        <pt x="410" y="76" on="0"/>
        <pt x="410" y="76" on="0"/>
        <pt x="410" y="38" on="1"/>
        <pt x="410" y="0" on="0"/>
        <pt x="410" y="0" on="0"/>
      </contour>
      <contour>
        <pt x="287" y="76" on="1"/>
        <pt x="246" y="76" on="0"/>
        <pt x="246" y="76" on="0"/>
        <pt x="246" y="114" on="1"/>
        <pt x="246" y="152" on="0"/>
        <pt x="246" y="152" on="0"/>
        <pt x="287" y="152" on="1"/>
        <pt x="328" y="152" on="0"/>
        <pt x="328" y="152" on="0"/>
        <pt x="328" y="114" on="1"/>
        <pt x="328" y="76" on="0"/>
        <pt x="328" y="76" on="0"/>
      </contour>
      <contour>
        <pt x="369" y="76" on="1"/>
        <pt x="328" y="76" on="0"/>
        <pt x="328" y="76" on="0"/>
        <pt x="328" y="114" on="1"/>
        <pt x="328" y="152" on="0"/>
        <pt x="328" y="152" on="0"/>
        <pt x="369" y="152" on="1"/>
        <pt x="410" y="152" on="0"/>
        <pt x="410" y="152" on="0"/>
        <pt x="410" y="114" on="1"/>
        <pt x="410" y="76" on="0"/>
        <pt x="410" y="76" on="0"/>
      </contour>
    </TTGlyph>
    <TTGlyph name="M" xMin="164" yMin="0" xMax="1482" yMax="1368">
      <contour>
        <pt x="835" y="0" on="1"/>
        <pt x="820" y="0" on="0"/>
        <pt x="820" y="0" on="0"/>
        <pt x="820" y="39" on="1"/>
        <pt x="820" y="76" on="0"/>
        <pt x="820" y="76" on="0"/>
        <pt x="855" y="76" on="1"/>
        <pt x="889" y="76" on="0"/>
        <pt x="889" y="76" on="0"/>
        <pt x="870" y="39" on="1"/>
        <pt x="849" y="0" on="0"/>
        <pt x="849" y="0" on="0"/>
      </contour>
      <contour>
        <pt x="804" y="0" on="1"/>
        <pt x="788" y="0" on="0"/>
        <pt x="788" y="0" on="0"/>
        <pt x="768" y="39" on="1"/>
        <pt x="750" y="76" on="0"/>
        <pt x="750" y="76" on="0"/>
        <pt x="786" y="76" on="1"/>
        <pt x="820" y="76" on="0"/>
        <pt x="820" y="76" on="0"/>
        <pt x="820" y="39" on="1"/>
        <pt x="820" y="0" on="0"/>
        <pt x="820" y="0" on="0"/>
      </contour>
      <contour>
        <pt x="855" y="76" on="1"/>
        <pt x="820" y="76" on="0"/>
        <pt x="820" y="76" on="0"/>
        <pt x="820" y="115" on="1"/>
        <pt x="820" y="152" on="0"/>
        <pt x="820" y="152" on="0"/>
        <pt x="886" y="152" on="1"/>
        <pt x="929" y="152" on="0"/>
        <pt x="929" y="152" on="0"/>
        <pt x="909" y="115" on="1"/>
        <pt x="889" y="76" on="0"/>
        <pt x="889" y="76" on="0"/>
      </contour>
      <contour>
        <pt x="786" y="76" on="1"/>
        <pt x="750" y="76" on="0"/>
        <pt x="750" y="76" on="0"/>
        <pt x="730" y="115" on="1"/>
        <pt x="711" y="152" on="0"/>
        <pt x="711" y="152" on="0"/>
        <pt x="754" y="152" on="1"/>
        <pt x="820" y="152" on="0"/>
        <pt x="820" y="152" on="0"/>
        <pt x="820" y="115" on="1"/>
        <pt x="820" y="76" on="0"/>
        <pt x="820" y="76" on="0"/>
      </contour>
      <contour>
        <pt x="1157" y="744" on="1"/>
        <pt x="1187" y="799" on="0"/>
        <pt x="1279" y="974" on="0"/>
        <pt x="1302" y="1016" on="1"/>
        <pt x="1356" y="1119" on="0"/>
        <pt x="1356" y="1119" on="0"/>
        <pt x="1377" y="1243" on="1"/>
        <pt x="1398" y="1368" on="0"/>
        <pt x="1398" y="1368" on="0"/>
        <pt x="1374" y="1323" on="1"/>
        <pt x="1212" y="1016" on="0"/>
        <pt x="1116" y="836" on="0"/>
        <pt x="1087" y="782" on="1"/>
        <pt x="1055" y="722" on="0"/>
        <pt x="1055" y="722" on="0"/>
        <pt x="1089" y="704" on="1"/>
        <pt x="1125" y="685" on="0"/>
        <pt x="1125" y="685" on="0"/>
      </contour>
      <contour>
        <pt x="841" y="152" on="1"/>
        <pt x="914" y="289" on="0"/>
        <pt x="1071" y="586" on="0"/>
        <pt x="1098" y="636" on="1"/>
        <pt x="1125" y="685" on="0"/>
        <pt x="1125" y="685" on="0"/>
        <pt x="1089" y="704" on="1"/>
        <pt x="1055" y="722" on="0"/>
        <pt x="1055" y="722" on="0"/>
        <pt x="1030" y="675" on="1"/>
        <pt x="1001" y="621" on="0"/>
        <pt x="850" y="335" on="0"/>
        <pt x="820" y="280" on="1"/>
        <pt x="820" y="237" on="0"/>
        <pt x="820" y="195" on="0"/>
        <pt x="820" y="152" on="1"/>
        <pt x="827" y="152" on="0"/>
        <pt x="834" y="152" on="0"/>
      </contour>
      <contour>
        <pt x="1098" y="636" on="1"/>
        <pt x="1071" y="586" on="0"/>
        <pt x="914" y="289" on="0"/>
        <pt x="869" y="205" on="1"/>
        <pt x="841" y="152" on="0"/>
        <pt x="841" y="152" on="0"/>
        <pt x="886" y="152" on="1"/>
        <pt x="929" y="152" on="0"/>
        <pt x="929" y="152" on="0"/>
        <pt x="957" y="205" on="1"/>
        <pt x="1003" y="292" on="0"/>
        <pt x="1141" y="556" on="0"/>
        <pt x="1166" y="604" on="1"/>
        <pt x="1191" y="650" on="0"/>
        <pt x="1191" y="650" on="0"/>
        <pt x="1158" y="667" on="1"/>
        <pt x="1125" y="685" on="0"/>
        <pt x="1125" y="685" on="0"/>
      </contour>
      <contour>
        <pt x="1301" y="860" on="1"/>
        <pt x="1318" y="892" on="0"/>
        <pt x="1318" y="892" on="0"/>
        <pt x="1336" y="999" on="1"/>
        <pt x="1356" y="1119" on="0"/>
        <pt x="1356" y="1119" on="0"/>
        <pt x="1302" y="1016" on="1"/>
        <pt x="1279" y="974" on="0"/>
        <pt x="1187" y="799" on="0"/>
        <pt x="1157" y="744" on="1"/>
        <pt x="1125" y="685" on="0"/>
        <pt x="1125" y="685" on="0"/>
        <pt x="1158" y="667" on="1"/>
        <pt x="1191" y="650" on="0"/>
        <pt x="1191" y="650" on="0"/>
        <pt x="1219" y="704" on="1"/>
        <pt x="1250" y="763" on="0"/>
        <pt x="1280" y="822" on="0"/>
      </contour>
      <contour>
        <pt x="492" y="744" on="1"/>
        <pt x="463" y="799" on="0"/>
        <pt x="376" y="974" on="0"/>
        <pt x="355" y="1015" on="1"/>
        <pt x="302" y="1117" on="0"/>
        <pt x="302" y="1117" on="0"/>
        <pt x="286" y="1243" on="1"/>
        <pt x="269" y="1368" on="0"/>
        <pt x="269" y="1368" on="0"/>
        <pt x="295" y="1318" on="1"/>
        <pt x="447" y="1016" on="0"/>
        <pt x="538" y="836" on="0"/>
        <pt x="565" y="782" on="1"/>
        <pt x="596" y="722" on="0"/>
        <pt x="596" y="722" on="0"/>
        <pt x="560" y="703" on="1"/>
        <pt x="523" y="684" on="0"/>
        <pt x="523" y="684" on="0"/>
      </contour>
      <contour>
        <pt x="820" y="280" on="1"/>
        <pt x="820" y="237" on="0"/>
        <pt x="820" y="195" on="0"/>
        <pt x="820" y="152" on="1"/>
        <pt x="813" y="152" on="0"/>
        <pt x="805" y="152" on="0"/>
        <pt x="798" y="152" on="1"/>
        <pt x="727" y="289" on="0"/>
        <pt x="574" y="586" on="0"/>
        <pt x="547" y="637" on="1"/>
        <pt x="523" y="684" on="0"/>
        <pt x="523" y="684" on="0"/>
        <pt x="560" y="703" on="1"/>
        <pt x="596" y="722" on="0"/>
        <pt x="596" y="722" on="0"/>
        <pt x="620" y="675" on="1"/>
        <pt x="647" y="621" on="0"/>
        <pt x="793" y="334" on="0"/>
      </contour>
      <contour>
        <pt x="432" y="703" on="1"/>
        <pt x="402" y="763" on="0"/>
        <pt x="372" y="823" on="0"/>
        <pt x="352" y="861" on="1"/>
        <pt x="328" y="911" on="0"/>
        <pt x="328" y="911" on="0"/>
        <pt x="316" y="1002" on="1"/>
        <pt x="302" y="1117" on="0"/>
        <pt x="302" y="1117" on="0"/>
        <pt x="355" y="1015" on="1"/>
        <pt x="376" y="974" on="0"/>
        <pt x="463" y="799" on="0"/>
        <pt x="492" y="744" on="1"/>
        <pt x="523" y="684" on="0"/>
        <pt x="523" y="684" on="0"/>
        <pt x="491" y="668" on="1"/>
        <pt x="459" y="651" on="0"/>
        <pt x="459" y="651" on="0"/>
      </contour>
      <contour>
        <pt x="684" y="205" on="1"/>
        <pt x="640" y="292" on="0"/>
        <pt x="507" y="556" on="0"/>
        <pt x="483" y="604" on="1"/>
        <pt x="459" y="651" on="0"/>
        <pt x="459" y="651" on="0"/>
        <pt x="491" y="668" on="1"/>
        <pt x="523" y="684" on="0"/>
        <pt x="523" y="684" on="0"/>
        <pt x="547" y="637" on="1"/>
        <pt x="574" y="586" on="0"/>
        <pt x="727" y="289" on="0"/>
        <pt x="771" y="205" on="1"/>
        <pt x="798" y="152" on="0"/>
        <pt x="798" y="152" on="0"/>
        <pt x="754" y="152" on="1"/>
        <pt x="711" y="152" on="0"/>
        <pt x="711" y="152" on="0"/>
      </contour>
      <contour>
        <pt x="164" y="614" on="1"/>
        <pt x="164" y="507" on="0"/>
        <pt x="164" y="329" on="0"/>
        <pt x="164" y="222" on="1"/>
        <pt x="164" y="152" on="0"/>
        <pt x="164" y="152" on="0"/>
        <pt x="205" y="152" on="1"/>
        <pt x="246" y="152" on="0"/>
        <pt x="246" y="152" on="0"/>
        <pt x="246" y="222" on="1"/>
        <pt x="246" y="329" on="0"/>
        <pt x="246" y="507" on="0"/>
        <pt x="246" y="614" on="1"/>
        <pt x="246" y="684" on="0"/>
        <pt x="246" y="684" on="0"/>
        <pt x="206" y="684" on="1"/>
        <pt x="164" y="684" on="0"/>
        <pt x="164" y="684" on="0"/>
      </contour>
      <contour>
        <pt x="246" y="1318" on="1"/>
        <pt x="246" y="1368" on="0"/>
        <pt x="246" y="1368" on="0"/>
        <pt x="206" y="1368" on="1"/>
        <pt x="164" y="1368" on="0"/>
        <pt x="164" y="1368" on="0"/>
        <pt x="164" y="1318" on="1"/>
        <pt x="164" y="1090" on="0"/>
        <pt x="164" y="912" on="0"/>
        <pt x="164" y="754" on="1"/>
        <pt x="164" y="684" on="0"/>
        <pt x="164" y="684" on="0"/>
        <pt x="206" y="684" on="1"/>
        <pt x="246" y="684" on="0"/>
        <pt x="246" y="684" on="0"/>
        <pt x="246" y="754" on="1"/>
        <pt x="246" y="912" on="0"/>
        <pt x="246" y="1090" on="0"/>
      </contour>
      <contour>
        <pt x="302" y="1117" on="1"/>
        <pt x="269" y="1368" on="0"/>
        <pt x="269" y="1368" on="0"/>
        <pt x="258" y="1368" on="1"/>
        <pt x="246" y="1368" on="0"/>
        <pt x="246" y="1368" on="0"/>
        <pt x="246" y="1318" on="1"/>
        <pt x="246" y="1090" on="0"/>
        <pt x="246" y="912" on="0"/>
        <pt x="246" y="754" on="1"/>
        <pt x="246" y="684" on="0"/>
        <pt x="246" y="684" on="0"/>
        <pt x="288" y="684" on="1"/>
        <pt x="328" y="684" on="0"/>
        <pt x="328" y="684" on="0"/>
        <pt x="328" y="754" on="1"/>
        <pt x="328" y="911" on="0"/>
        <pt x="328" y="911" on="0"/>
      </contour>
      <contour>
        <pt x="1482" y="754" on="1"/>
        <pt x="1482" y="912" on="0"/>
        <pt x="1482" y="1090" on="0"/>
        <pt x="1482" y="1323" on="1"/>
        <pt x="1482" y="1368" on="0"/>
        <pt x="1482" y="1368" on="0"/>
        <pt x="1442" y="1368" on="1"/>
        <pt x="1400" y="1368" on="0"/>
        <pt x="1400" y="1368" on="0"/>
        <pt x="1400" y="1323" on="1"/>
        <pt x="1400" y="1090" on="0"/>
        <pt x="1400" y="912" on="0"/>
        <pt x="1400" y="754" on="1"/>
        <pt x="1400" y="684" on="0"/>
        <pt x="1400" y="684" on="0"/>
        <pt x="1442" y="684" on="1"/>
        <pt x="1482" y="684" on="0"/>
        <pt x="1482" y="684" on="0"/>
      </contour>
      <contour>
        <pt x="1400" y="222" on="1"/>
        <pt x="1400" y="152" on="0"/>
        <pt x="1400" y="152" on="0"/>
        <pt x="1441" y="152" on="1"/>
        <pt x="1482" y="152" on="0"/>
        <pt x="1482" y="152" on="0"/>
        <pt x="1482" y="222" on="1"/>
        <pt x="1482" y="329" on="0"/>
        <pt x="1482" y="507" on="0"/>
        <pt x="1482" y="614" on="1"/>
        <pt x="1482" y="684" on="0"/>
        <pt x="1482" y="684" on="0"/>
        <pt x="1442" y="684" on="1"/>
        <pt x="1400" y="684" on="0"/>
        <pt x="1400" y="684" on="0"/>
        <pt x="1400" y="614" on="1"/>
        <pt x="1400" y="507" on="0"/>
        <pt x="1400" y="329" on="0"/>
      </contour>
      <contour>
        <pt x="1318" y="614" on="1"/>
        <pt x="1318" y="507" on="0"/>
        <pt x="1318" y="329" on="0"/>
        <pt x="1318" y="222" on="1"/>
        <pt x="1318" y="152" on="0"/>
        <pt x="1318" y="152" on="0"/>
        <pt x="1360" y="152" on="1"/>
        <pt x="1400" y="152" on="0"/>
        <pt x="1400" y="152" on="0"/>
        <pt x="1400" y="222" on="1"/>
        <pt x="1400" y="329" on="0"/>
        <pt x="1400" y="507" on="0"/>
        <pt x="1400" y="614" on="1"/>
        <pt x="1400" y="684" on="0"/>
        <pt x="1400" y="684" on="0"/>
        <pt x="1360" y="684" on="1"/>
        <pt x="1318" y="684" on="0"/>
        <pt x="1318" y="684" on="0"/>
      </contour>
      <contour>
        <pt x="1318" y="754" on="1"/>
        <pt x="1318" y="684" on="0"/>
        <pt x="1318" y="684" on="0"/>
        <pt x="1360" y="684" on="1"/>
        <pt x="1400" y="684" on="0"/>
        <pt x="1400" y="684" on="0"/>
        <pt x="1400" y="754" on="1"/>
        <pt x="1400" y="912" on="0"/>
        <pt x="1400" y="1090" on="0"/>
        <pt x="1400" y="1323" on="1"/>
        <pt x="1400" y="1368" on="0"/>
        <pt x="1400" y="1368" on="0"/>
        <pt x="1399" y="1368" on="1"/>
        <pt x="1398" y="1368" on="0"/>
        <pt x="1398" y="1368" on="0"/>
        <pt x="1356" y="1119" on="1"/>
        <pt x="1318" y="892" on="0"/>
        <pt x="1318" y="892" on="0"/>
      </contour>
      <contour>
        <pt x="246" y="614" on="1"/>
        <pt x="246" y="507" on="0"/>
        <pt x="246" y="329" on="0"/>
        <pt x="246" y="222" on="1"/>
        <pt x="246" y="152" on="0"/>
        <pt x="246" y="152" on="0"/>
        <pt x="287" y="152" on="1"/>
        <pt x="328" y="152" on="0"/>
        <pt x="328" y="152" on="0"/>
        <pt x="328" y="222" on="1"/>
        <pt x="328" y="329" on="0"/>
        <pt x="328" y="507" on="0"/>
        <pt x="328" y="614" on="1"/>
        <pt x="328" y="684" on="0"/>
        <pt x="328" y="684" on="0"/>
        <pt x="288" y="684" on="1"/>
        <pt x="246" y="684" on="0"/>
        <pt x="246" y="684" on="0"/>
      </contour>
      <contour>
        <pt x="205" y="0" on="1"/>
        <pt x="164" y="0" on="0"/>
        <pt x="164" y="0" on="0"/>
        <pt x="164" y="38" on="1"/>
        <pt x="164" y="76" on="0"/>
        <pt x="164" y="76" on="0"/>
        <pt x="205" y="76" on="1"/>
        <pt x="246" y="76" on="0"/>
        <pt x="246" y="76" on="0"/>
        <pt x="246" y="38" on="1"/>
        <pt x="246" y="0" on="0"/>
        <pt x="246" y="0" on="0"/>
      </contour>
      <contour>
        <pt x="287" y="0" on="1"/>
        <pt x="246" y="0" on="0"/>
        <pt x="246" y="0" on="0"/>
        <pt x="246" y="38" on="1"/>
        <pt x="246" y="76" on="0"/>
        <pt x="246" y="76" on="0"/>
        <pt x="287" y="76" on="1"/>
        <pt x="328" y="76" on="0"/>
        <pt x="328" y="76" on="0"/>
        <pt x="328" y="38" on="1"/>
        <pt x="328" y="0" on="0"/>
        <pt x="328" y="0" on="0"/>
      </contour>
      <contour>
        <pt x="205" y="76" on="1"/>
        <pt x="164" y="76" on="0"/>
        <pt x="164" y="76" on="0"/>
        <pt x="164" y="114" on="1"/>
        <pt x="164" y="152" on="0"/>
        <pt x="164" y="152" on="0"/>
        <pt x="205" y="152" on="1"/>
        <pt x="246" y="152" on="0"/>
        <pt x="246" y="152" on="0"/>
        <pt x="246" y="114" on="1"/>
        <pt x="246" y="76" on="0"/>
        <pt x="246" y="76" on="0"/>
      </contour>
      <contour>
        <pt x="287" y="76" on="1"/>
        <pt x="246" y="76" on="0"/>
        <pt x="246" y="76" on="0"/>
        <pt x="246" y="114" on="1"/>
        <pt x="246" y="152" on="0"/>
        <pt x="246" y="152" on="0"/>
        <pt x="287" y="152" on="1"/>
        <pt x="328" y="152" on="0"/>
        <pt x="328" y="152" on="0"/>
        <pt x="328" y="114" on="1"/>
        <pt x="328" y="76" on="0"/>
        <pt x="328" y="76" on="0"/>
      </contour>
      <contour>
        <pt x="1359" y="0" on="1"/>
        <pt x="1318" y="0" on="0"/>
        <pt x="1318" y="0" on="0"/>
        <pt x="1318" y="38" on="1"/>
        <pt x="1318" y="76" on="0"/>
        <pt x="1318" y="76" on="0"/>
        <pt x="1359" y="76" on="1"/>
        <pt x="1400" y="76" on="0"/>
        <pt x="1400" y="76" on="0"/>
        <pt x="1400" y="38" on="1"/>
        <pt x="1400" y="0" on="0"/>
        <pt x="1400" y="0" on="0"/>
      </contour>
      <contour>
        <pt x="1441" y="0" on="1"/>
        <pt x="1400" y="0" on="0"/>
        <pt x="1400" y="0" on="0"/>
        <pt x="1400" y="38" on="1"/>
        <pt x="1400" y="76" on="0"/>
        <pt x="1400" y="76" on="0"/>
        <pt x="1441" y="76" on="1"/>
        <pt x="1482" y="76" on="0"/>
        <pt x="1482" y="76" on="0"/>
        <pt x="1482" y="38" on="1"/>
        <pt x="1482" y="0" on="0"/>
        <pt x="1482" y="0" on="0"/>
      </contour>
      <contour>
        <pt x="1359" y="76" on="1"/>
        <pt x="1318" y="76" on="0"/>
        <pt x="1318" y="76" on="0"/>
        <pt x="1318" y="114" on="1"/>
        <pt x="1318" y="152" on="0"/>
        <pt x="1318" y="152" on="0"/>
        <pt x="1359" y="152" on="1"/>
        <pt x="1400" y="152" on="0"/>
        <pt x="1400" y="152" on="0"/>
        <pt x="1400" y="114" on="1"/>
        <pt x="1400" y="76" on="0"/>
        <pt x="1400" y="76" on="0"/>
      </contour>
      <contour>
        <pt x="1441" y="76" on="1"/>
        <pt x="1400" y="76" on="0"/>
        <pt x="1400" y="76" on="0"/>
        <pt x="1400" y="114" on="1"/>
        <pt x="1400" y="152" on="0"/>
        <pt x="1400" y="152" on="0"/>
        <pt x="1441" y="152" on="1"/>
        <pt x="1482" y="152" on="0"/>
        <pt x="1482" y="152" on="0"/>
        <pt x="1482" y="114" on="1"/>
        <pt x="1482" y="76" on="0"/>
        <pt x="1482" y="76" on="0"/>
      </contour>
    </TTGlyph>
    <TTGlyph name="MidElement" xMin="246" yMin="152" xMax="410" yMax="1216">
      <contour>
        <pt x="287" y="152" on="1"/>
        <pt x="246" y="152" on="0"/>
        <pt x="246" y="152" on="0"/>
        <pt x="246" y="190" on="1"/>
        <pt x="246" y="228" on="0"/>
        <pt x="246" y="265" on="0"/>
        <pt x="246" y="380" on="1"/>
        <pt x="246" y="491" on="0"/>
        <pt x="246" y="532" on="0"/>
        <pt x="246" y="570" on="1"/>
        <pt x="246" y="608" on="0"/>
        <pt x="246" y="608" on="0"/>
        <pt x="287" y="608" on="1"/>
        <pt x="328" y="608" on="0"/>
        <pt x="328" y="608" on="0"/>
        <pt x="328" y="570" on="1"/>
        <pt x="328" y="532" on="0"/>
        <pt x="328" y="490" on="0"/>
        <pt x="328" y="380" on="1"/>
        <pt x="328" y="263" on="0"/>
        <pt x="328" y="228" on="0"/>
        <pt x="328" y="190" on="1"/>
        <pt x="328" y="152" on="0"/>
        <pt x="328" y="152" on="0"/>
      </contour>
      <contour>
        <pt x="369" y="152" on="1"/>
        <pt x="328" y="152" on="0"/>
        <pt x="328" y="152" on="0"/>
        <pt x="328" y="190" on="1"/>
        <pt x="328" y="228" on="0"/>
        <pt x="328" y="265" on="0"/>
        <pt x="328" y="380" on="1"/>
        <pt x="328" y="491" on="0"/>
        <pt x="328" y="532" on="0"/>
        <pt x="328" y="570" on="1"/>
        <pt x="328" y="608" on="0"/>
        <pt x="328" y="608" on="0"/>
        <pt x="369" y="608" on="1"/>
        <pt x="410" y="608" on="0"/>
        <pt x="410" y="608" on="0"/>
        <pt x="410" y="570" on="1"/>
        <pt x="410" y="532" on="0"/>
        <pt x="410" y="490" on="0"/>
        <pt x="410" y="380" on="1"/>
        <pt x="410" y="263" on="0"/>
        <pt x="410" y="228" on="0"/>
        <pt x="410" y="190" on="1"/>
        <pt x="410" y="152" on="0"/>
        <pt x="410" y="152" on="0"/>
      </contour>
      <contour>
        <pt x="287" y="760" on="1"/>
        <pt x="246" y="760" on="0"/>
        <pt x="246" y="760" on="0"/>
        <pt x="246" y="798" on="1"/>
        <pt x="246" y="836" on="0"/>
        <pt x="246" y="877" on="0"/>
        <pt x="246" y="992" on="1"/>
        <pt x="246" y="1103" on="0"/>
        <pt x="246" y="1140" on="0"/>
        <pt x="246" y="1178" on="1"/>
        <pt x="246" y="1216" on="0"/>
        <pt x="246" y="1216" on="0"/>
        <pt x="287" y="1216" on="1"/>
        <pt x="328" y="1216" on="0"/>
        <pt x="328" y="1216" on="0"/>
        <pt x="328" y="1178" on="1"/>
        <pt x="328" y="1140" on="0"/>
        <pt x="328" y="1102" on="0"/>
        <pt x="328" y="992" on="1"/>
        <pt x="328" y="875" on="0"/>
        <pt x="328" y="836" on="0"/>
        <pt x="328" y="798" on="1"/>
        <pt x="328" y="760" on="0"/>
        <pt x="328" y="760" on="0"/>
      </contour>
      <contour>
        <pt x="369" y="760" on="1"/>
        <pt x="328" y="760" on="0"/>
        <pt x="328" y="760" on="0"/>
        <pt x="328" y="798" on="1"/>
        <pt x="328" y="836" on="0"/>
        <pt x="328" y="877" on="0"/>
        <pt x="328" y="992" on="1"/>
        <pt x="328" y="1103" on="0"/>
        <pt x="328" y="1140" on="0"/>
        <pt x="328" y="1178" on="1"/>
        <pt x="328" y="1216" on="0"/>
        <pt x="328" y="1216" on="0"/>
        <pt x="369" y="1216" on="1"/>
        <pt x="410" y="1216" on="0"/>
        <pt x="410" y="1216" on="0"/>
        <pt x="410" y="1178" on="1"/>
        <pt x="410" y="1140" on="0"/>
        <pt x="410" y="1102" on="0"/>
        <pt x="410" y="992" on="1"/>
        <pt x="410" y="875" on="0"/>
        <pt x="410" y="836" on="0"/>
        <pt x="410" y="798" on="1"/>
        <pt x="410" y="760" on="0"/>
        <pt x="410" y="760" on="0"/>
      </contour>
    </TTGlyph>
</ttFont>
